<mxfile host="app.diagrams.net" agent="Mozilla/5.0 (Windows NT 10.0; Win64; x64) AppleWebKit/537.36 (KHTML, like Gecko) Chrome/138.0.0.0 Safari/537.36 OPR/122.0.0.0" version="28.2.7" pages="11">
  <diagram name="PÃ¡gina-1" id="7tfy913IrRh1-P73H2d2">
    <mxGraphModel dx="2024" dy="834" grid="1" gridSize="10" guides="1" tooltips="1" connect="1" arrows="1" fold="1" page="1" pageScale="1" pageWidth="827" pageHeight="1169" math="0" shadow="0">
      <root>
        <mxCell id="0" />
        <mxCell id="1" parent="0" />
        <mxCell id="rHM-oYwe2mxJ79eZtE9j-1" value="&lt;span style=&quot;color: rgb(51, 51, 51); font-family: -apple-system, BlinkMacSystemFont, &amp;quot;Segoe UI&amp;quot;, Roboto, &amp;quot;Helvetica Neue&amp;quot;, Arial, &amp;quot;Noto Sans&amp;quot;, &amp;quot;Liberation Sans&amp;quot;, sans-serif, &amp;quot;Apple Color Emoji&amp;quot;, &amp;quot;Segoe UI Emoji&amp;quot;, &amp;quot;Segoe UI Symbol&amp;quot;, &amp;quot;Noto Color Emoji&amp;quot;; font-style: normal; font-variant-ligatures: normal; font-variant-caps: normal; font-weight: 400; letter-spacing: normal; orphans: 2; text-align: left; text-indent: 0px; text-transform: none; widows: 2; word-spacing: 0px; -webkit-text-stroke-width: 0px; white-space: normal; background-color: rgb(255, 255, 255); text-decoration-thickness: initial; text-decoration-style: initial; text-decoration-color: initial; float: none; display: inline !important;&quot;&gt;&lt;font style=&quot;font-size: 16px;&quot;&gt;Inserir 14 21 12 74 61 24 42 32&amp;nbsp;&lt;/font&gt;&lt;/span&gt;" style="text;whiteSpace=wrap;html=1;" vertex="1" parent="1">
          <mxGeometry x="120" y="40" width="250" height="40" as="geometry" />
        </mxCell>
        <mxCell id="rHM-oYwe2mxJ79eZtE9j-2" value="&lt;span style=&quot;color: rgb(51, 51, 51); font-family: -apple-system, BlinkMacSystemFont, &amp;quot;Segoe UI&amp;quot;, Roboto, &amp;quot;Helvetica Neue&amp;quot;, Arial, &amp;quot;Noto Sans&amp;quot;, &amp;quot;Liberation Sans&amp;quot;, sans-serif, &amp;quot;Apple Color Emoji&amp;quot;, &amp;quot;Segoe UI Emoji&amp;quot;, &amp;quot;Segoe UI Symbol&amp;quot;, &amp;quot;Noto Color Emoji&amp;quot;; font-style: normal; font-variant-ligatures: normal; font-variant-caps: normal; font-weight: 400; letter-spacing: normal; orphans: 2; text-align: left; text-indent: 0px; text-transform: none; widows: 2; word-spacing: 0px; -webkit-text-stroke-width: 0px; white-space: normal; background-color: rgb(255, 255, 255); text-decoration-thickness: initial; text-decoration-style: initial; text-decoration-color: initial; float: none; display: inline !important;&quot;&gt;&lt;font style=&quot;font-size: 16px;&quot;&gt;Tamanho 10&lt;/font&gt;&lt;/span&gt;" style="text;whiteSpace=wrap;html=1;" vertex="1" parent="1">
          <mxGeometry x="570" y="40" width="100" height="40" as="geometry" />
        </mxCell>
        <mxCell id="rHM-oYwe2mxJ79eZtE9j-3" value="" style="rounded=0;whiteSpace=wrap;html=1;" vertex="1" parent="1">
          <mxGeometry x="60" y="300" width="70" height="60" as="geometry" />
        </mxCell>
        <mxCell id="rHM-oYwe2mxJ79eZtE9j-4" value="" style="rounded=0;whiteSpace=wrap;html=1;" vertex="1" parent="1">
          <mxGeometry x="130" y="300" width="70" height="60" as="geometry" />
        </mxCell>
        <mxCell id="rHM-oYwe2mxJ79eZtE9j-5" value="" style="rounded=0;whiteSpace=wrap;html=1;" vertex="1" parent="1">
          <mxGeometry x="200" y="300" width="70" height="60" as="geometry" />
        </mxCell>
        <mxCell id="rHM-oYwe2mxJ79eZtE9j-6" value="" style="rounded=0;whiteSpace=wrap;html=1;" vertex="1" parent="1">
          <mxGeometry x="270" y="300" width="70" height="60" as="geometry" />
        </mxCell>
        <mxCell id="rHM-oYwe2mxJ79eZtE9j-7" value="14" style="rounded=0;whiteSpace=wrap;html=1;" vertex="1" parent="1">
          <mxGeometry x="340" y="300" width="70" height="60" as="geometry" />
        </mxCell>
        <mxCell id="rHM-oYwe2mxJ79eZtE9j-8" value="" style="rounded=0;whiteSpace=wrap;html=1;" vertex="1" parent="1">
          <mxGeometry x="410" y="300" width="70" height="60" as="geometry" />
        </mxCell>
        <mxCell id="rHM-oYwe2mxJ79eZtE9j-9" value="" style="rounded=0;whiteSpace=wrap;html=1;" vertex="1" parent="1">
          <mxGeometry x="480" y="300" width="70" height="60" as="geometry" />
        </mxCell>
        <mxCell id="rHM-oYwe2mxJ79eZtE9j-10" value="" style="rounded=0;whiteSpace=wrap;html=1;" vertex="1" parent="1">
          <mxGeometry x="550" y="300" width="70" height="60" as="geometry" />
        </mxCell>
        <mxCell id="rHM-oYwe2mxJ79eZtE9j-11" value="" style="rounded=0;whiteSpace=wrap;html=1;" vertex="1" parent="1">
          <mxGeometry x="620" y="300" width="70" height="60" as="geometry" />
        </mxCell>
        <mxCell id="rHM-oYwe2mxJ79eZtE9j-12" value="" style="rounded=0;whiteSpace=wrap;html=1;" vertex="1" parent="1">
          <mxGeometry x="690" y="300" width="70" height="60" as="geometry" />
        </mxCell>
        <mxCell id="rHM-oYwe2mxJ79eZtE9j-13" value="&lt;span style=&quot;font-family: -apple-system, BlinkMacSystemFont, &amp;quot;Segoe UI&amp;quot;, Roboto, &amp;quot;Helvetica Neue&amp;quot;, Arial, &amp;quot;Noto Sans&amp;quot;, &amp;quot;Liberation Sans&amp;quot;, sans-serif, &amp;quot;Apple Color Emoji&amp;quot;, &amp;quot;Segoe UI Emoji&amp;quot;, &amp;quot;Segoe UI Symbol&amp;quot;, &amp;quot;Noto Color Emoji&amp;quot;; font-size: 16px; font-style: normal; font-variant-ligatures: normal; font-variant-caps: normal; font-weight: 400; letter-spacing: normal; orphans: 2; text-align: left; text-indent: 0px; text-transform: none; widows: 2; word-spacing: 0px; -webkit-text-stroke-width: 0px; white-space: normal; text-decoration-thickness: initial; text-decoration-style: initial; text-decoration-color: initial; float: none; display: inline !important;&quot;&gt;&lt;font style=&quot;color: light-dark(rgb(193, 193, 193), rgb(255, 255, 255));&quot;&gt;0&lt;/font&gt;&lt;/span&gt;" style="text;whiteSpace=wrap;html=1;" vertex="1" parent="1">
          <mxGeometry x="85" y="250" width="20" height="30" as="geometry" />
        </mxCell>
        <mxCell id="rHM-oYwe2mxJ79eZtE9j-15" value="&lt;span style=&quot;font-family: -apple-system, BlinkMacSystemFont, &amp;quot;Segoe UI&amp;quot;, Roboto, &amp;quot;Helvetica Neue&amp;quot;, Arial, &amp;quot;Noto Sans&amp;quot;, &amp;quot;Liberation Sans&amp;quot;, sans-serif, &amp;quot;Apple Color Emoji&amp;quot;, &amp;quot;Segoe UI Emoji&amp;quot;, &amp;quot;Segoe UI Symbol&amp;quot;, &amp;quot;Noto Color Emoji&amp;quot;; font-size: 16px; font-style: normal; font-variant-ligatures: normal; font-variant-caps: normal; font-weight: 400; letter-spacing: normal; orphans: 2; text-align: left; text-indent: 0px; text-transform: none; widows: 2; word-spacing: 0px; -webkit-text-stroke-width: 0px; white-space: normal; text-decoration-thickness: initial; text-decoration-style: initial; text-decoration-color: initial; float: none; display: inline !important;&quot;&gt;&lt;font style=&quot;color: light-dark(rgb(193, 193, 193), rgb(255, 255, 255));&quot;&gt;1&lt;/font&gt;&lt;/span&gt;" style="text;whiteSpace=wrap;html=1;" vertex="1" parent="1">
          <mxGeometry x="155" y="250" width="20" height="30" as="geometry" />
        </mxCell>
        <mxCell id="rHM-oYwe2mxJ79eZtE9j-16" value="&lt;span style=&quot;font-family: -apple-system, BlinkMacSystemFont, &amp;quot;Segoe UI&amp;quot;, Roboto, &amp;quot;Helvetica Neue&amp;quot;, Arial, &amp;quot;Noto Sans&amp;quot;, &amp;quot;Liberation Sans&amp;quot;, sans-serif, &amp;quot;Apple Color Emoji&amp;quot;, &amp;quot;Segoe UI Emoji&amp;quot;, &amp;quot;Segoe UI Symbol&amp;quot;, &amp;quot;Noto Color Emoji&amp;quot;; font-size: 16px; font-style: normal; font-variant-ligatures: normal; font-variant-caps: normal; font-weight: 400; letter-spacing: normal; orphans: 2; text-align: left; text-indent: 0px; text-transform: none; widows: 2; word-spacing: 0px; -webkit-text-stroke-width: 0px; white-space: normal; text-decoration-thickness: initial; text-decoration-style: initial; text-decoration-color: initial; float: none; display: inline !important;&quot;&gt;&lt;font style=&quot;color: light-dark(rgb(193, 193, 193), rgb(255, 255, 255));&quot;&gt;2&lt;/font&gt;&lt;/span&gt;" style="text;whiteSpace=wrap;html=1;" vertex="1" parent="1">
          <mxGeometry x="225" y="250" width="20" height="30" as="geometry" />
        </mxCell>
        <mxCell id="rHM-oYwe2mxJ79eZtE9j-17" value="&lt;span style=&quot;font-family: -apple-system, BlinkMacSystemFont, &amp;quot;Segoe UI&amp;quot;, Roboto, &amp;quot;Helvetica Neue&amp;quot;, Arial, &amp;quot;Noto Sans&amp;quot;, &amp;quot;Liberation Sans&amp;quot;, sans-serif, &amp;quot;Apple Color Emoji&amp;quot;, &amp;quot;Segoe UI Emoji&amp;quot;, &amp;quot;Segoe UI Symbol&amp;quot;, &amp;quot;Noto Color Emoji&amp;quot;; font-size: 16px; font-style: normal; font-variant-ligatures: normal; font-variant-caps: normal; font-weight: 400; letter-spacing: normal; orphans: 2; text-align: left; text-indent: 0px; text-transform: none; widows: 2; word-spacing: 0px; -webkit-text-stroke-width: 0px; white-space: normal; text-decoration-thickness: initial; text-decoration-style: initial; text-decoration-color: initial; float: none; display: inline !important;&quot;&gt;&lt;font style=&quot;color: light-dark(rgb(193, 193, 193), rgb(255, 255, 255));&quot;&gt;3&lt;/font&gt;&lt;/span&gt;" style="text;whiteSpace=wrap;html=1;" vertex="1" parent="1">
          <mxGeometry x="295" y="250" width="20" height="30" as="geometry" />
        </mxCell>
        <mxCell id="rHM-oYwe2mxJ79eZtE9j-18" value="&lt;span style=&quot;font-family: -apple-system, BlinkMacSystemFont, &amp;quot;Segoe UI&amp;quot;, Roboto, &amp;quot;Helvetica Neue&amp;quot;, Arial, &amp;quot;Noto Sans&amp;quot;, &amp;quot;Liberation Sans&amp;quot;, sans-serif, &amp;quot;Apple Color Emoji&amp;quot;, &amp;quot;Segoe UI Emoji&amp;quot;, &amp;quot;Segoe UI Symbol&amp;quot;, &amp;quot;Noto Color Emoji&amp;quot;; font-size: 16px; font-style: normal; font-variant-ligatures: normal; font-variant-caps: normal; font-weight: 400; letter-spacing: normal; orphans: 2; text-align: left; text-indent: 0px; text-transform: none; widows: 2; word-spacing: 0px; -webkit-text-stroke-width: 0px; white-space: normal; text-decoration-thickness: initial; text-decoration-style: initial; text-decoration-color: initial; float: none; display: inline !important;&quot;&gt;&lt;font style=&quot;color: light-dark(rgb(193, 193, 193), rgb(255, 255, 255));&quot;&gt;4&lt;/font&gt;&lt;/span&gt;" style="text;whiteSpace=wrap;html=1;" vertex="1" parent="1">
          <mxGeometry x="365" y="250" width="20" height="30" as="geometry" />
        </mxCell>
        <mxCell id="rHM-oYwe2mxJ79eZtE9j-19" value="&lt;span style=&quot;font-family: -apple-system, BlinkMacSystemFont, &amp;quot;Segoe UI&amp;quot;, Roboto, &amp;quot;Helvetica Neue&amp;quot;, Arial, &amp;quot;Noto Sans&amp;quot;, &amp;quot;Liberation Sans&amp;quot;, sans-serif, &amp;quot;Apple Color Emoji&amp;quot;, &amp;quot;Segoe UI Emoji&amp;quot;, &amp;quot;Segoe UI Symbol&amp;quot;, &amp;quot;Noto Color Emoji&amp;quot;; font-size: 16px; font-style: normal; font-variant-ligatures: normal; font-variant-caps: normal; font-weight: 400; letter-spacing: normal; orphans: 2; text-align: left; text-indent: 0px; text-transform: none; widows: 2; word-spacing: 0px; -webkit-text-stroke-width: 0px; white-space: normal; text-decoration-thickness: initial; text-decoration-style: initial; text-decoration-color: initial; float: none; display: inline !important;&quot;&gt;&lt;font style=&quot;color: light-dark(rgb(193, 193, 193), rgb(255, 255, 255));&quot;&gt;5&lt;/font&gt;&lt;/span&gt;" style="text;whiteSpace=wrap;html=1;" vertex="1" parent="1">
          <mxGeometry x="435" y="250" width="20" height="30" as="geometry" />
        </mxCell>
        <mxCell id="rHM-oYwe2mxJ79eZtE9j-20" value="&lt;span style=&quot;font-family: -apple-system, BlinkMacSystemFont, &amp;quot;Segoe UI&amp;quot;, Roboto, &amp;quot;Helvetica Neue&amp;quot;, Arial, &amp;quot;Noto Sans&amp;quot;, &amp;quot;Liberation Sans&amp;quot;, sans-serif, &amp;quot;Apple Color Emoji&amp;quot;, &amp;quot;Segoe UI Emoji&amp;quot;, &amp;quot;Segoe UI Symbol&amp;quot;, &amp;quot;Noto Color Emoji&amp;quot;; font-size: 16px; font-style: normal; font-variant-ligatures: normal; font-variant-caps: normal; font-weight: 400; letter-spacing: normal; orphans: 2; text-align: left; text-indent: 0px; text-transform: none; widows: 2; word-spacing: 0px; -webkit-text-stroke-width: 0px; white-space: normal; text-decoration-thickness: initial; text-decoration-style: initial; text-decoration-color: initial; float: none; display: inline !important;&quot;&gt;&lt;font style=&quot;color: light-dark(rgb(193, 193, 193), rgb(255, 255, 255));&quot;&gt;6&lt;/font&gt;&lt;/span&gt;" style="text;whiteSpace=wrap;html=1;" vertex="1" parent="1">
          <mxGeometry x="505" y="250" width="20" height="30" as="geometry" />
        </mxCell>
        <mxCell id="rHM-oYwe2mxJ79eZtE9j-22" value="&lt;span style=&quot;font-family: -apple-system, BlinkMacSystemFont, &amp;quot;Segoe UI&amp;quot;, Roboto, &amp;quot;Helvetica Neue&amp;quot;, Arial, &amp;quot;Noto Sans&amp;quot;, &amp;quot;Liberation Sans&amp;quot;, sans-serif, &amp;quot;Apple Color Emoji&amp;quot;, &amp;quot;Segoe UI Emoji&amp;quot;, &amp;quot;Segoe UI Symbol&amp;quot;, &amp;quot;Noto Color Emoji&amp;quot;; font-size: 16px; font-style: normal; font-variant-ligatures: normal; font-variant-caps: normal; font-weight: 400; letter-spacing: normal; orphans: 2; text-align: left; text-indent: 0px; text-transform: none; widows: 2; word-spacing: 0px; -webkit-text-stroke-width: 0px; white-space: normal; text-decoration-thickness: initial; text-decoration-style: initial; text-decoration-color: initial; float: none; display: inline !important;&quot;&gt;&lt;font style=&quot;color: light-dark(rgb(193, 193, 193), rgb(255, 255, 255));&quot;&gt;7&lt;/font&gt;&lt;/span&gt;" style="text;whiteSpace=wrap;html=1;" vertex="1" parent="1">
          <mxGeometry x="570" y="250" width="20" height="30" as="geometry" />
        </mxCell>
        <mxCell id="rHM-oYwe2mxJ79eZtE9j-23" value="&lt;span style=&quot;font-family: -apple-system, BlinkMacSystemFont, &amp;quot;Segoe UI&amp;quot;, Roboto, &amp;quot;Helvetica Neue&amp;quot;, Arial, &amp;quot;Noto Sans&amp;quot;, &amp;quot;Liberation Sans&amp;quot;, sans-serif, &amp;quot;Apple Color Emoji&amp;quot;, &amp;quot;Segoe UI Emoji&amp;quot;, &amp;quot;Segoe UI Symbol&amp;quot;, &amp;quot;Noto Color Emoji&amp;quot;; font-size: 16px; font-style: normal; font-variant-ligatures: normal; font-variant-caps: normal; font-weight: 400; letter-spacing: normal; orphans: 2; text-align: left; text-indent: 0px; text-transform: none; widows: 2; word-spacing: 0px; -webkit-text-stroke-width: 0px; white-space: normal; text-decoration-thickness: initial; text-decoration-style: initial; text-decoration-color: initial; float: none; display: inline !important;&quot;&gt;&lt;font style=&quot;color: light-dark(rgb(193, 193, 193), rgb(255, 255, 255));&quot;&gt;8&lt;/font&gt;&lt;/span&gt;" style="text;whiteSpace=wrap;html=1;" vertex="1" parent="1">
          <mxGeometry x="640" y="250" width="20" height="30" as="geometry" />
        </mxCell>
        <mxCell id="rHM-oYwe2mxJ79eZtE9j-24" value="&lt;span style=&quot;font-family: -apple-system, BlinkMacSystemFont, &amp;quot;Segoe UI&amp;quot;, Roboto, &amp;quot;Helvetica Neue&amp;quot;, Arial, &amp;quot;Noto Sans&amp;quot;, &amp;quot;Liberation Sans&amp;quot;, sans-serif, &amp;quot;Apple Color Emoji&amp;quot;, &amp;quot;Segoe UI Emoji&amp;quot;, &amp;quot;Segoe UI Symbol&amp;quot;, &amp;quot;Noto Color Emoji&amp;quot;; font-size: 16px; font-style: normal; font-variant-ligatures: normal; font-variant-caps: normal; font-weight: 400; letter-spacing: normal; orphans: 2; text-align: left; text-indent: 0px; text-transform: none; widows: 2; word-spacing: 0px; -webkit-text-stroke-width: 0px; white-space: normal; text-decoration-thickness: initial; text-decoration-style: initial; text-decoration-color: initial; float: none; display: inline !important;&quot;&gt;&lt;font style=&quot;color: light-dark(rgb(193, 193, 193), rgb(255, 255, 255));&quot;&gt;9&lt;/font&gt;&lt;/span&gt;" style="text;whiteSpace=wrap;html=1;" vertex="1" parent="1">
          <mxGeometry x="710" y="250" width="20" height="30" as="geometry" />
        </mxCell>
      </root>
    </mxGraphModel>
  </diagram>
  <diagram name="CÃ³pia do PÃ¡gina-1" id="eFbCdvdMkmL2yFNC4ndn">
    <mxGraphModel dx="2024" dy="834" grid="1" gridSize="10" guides="1" tooltips="1" connect="1" arrows="1" fold="1" page="1" pageScale="1" pageWidth="827" pageHeight="1169" math="0" shadow="0">
      <root>
        <mxCell id="A3SwsD7uPUs9U5FYij50-0" />
        <mxCell id="A3SwsD7uPUs9U5FYij50-1" parent="A3SwsD7uPUs9U5FYij50-0" />
        <mxCell id="A3SwsD7uPUs9U5FYij50-2" value="&lt;span style=&quot;color: rgb(51, 51, 51); font-family: -apple-system, BlinkMacSystemFont, &amp;quot;Segoe UI&amp;quot;, Roboto, &amp;quot;Helvetica Neue&amp;quot;, Arial, &amp;quot;Noto Sans&amp;quot;, &amp;quot;Liberation Sans&amp;quot;, sans-serif, &amp;quot;Apple Color Emoji&amp;quot;, &amp;quot;Segoe UI Emoji&amp;quot;, &amp;quot;Segoe UI Symbol&amp;quot;, &amp;quot;Noto Color Emoji&amp;quot;; font-style: normal; font-variant-ligatures: normal; font-variant-caps: normal; font-weight: 400; letter-spacing: normal; orphans: 2; text-align: left; text-indent: 0px; text-transform: none; widows: 2; word-spacing: 0px; -webkit-text-stroke-width: 0px; white-space: normal; background-color: rgb(255, 255, 255); text-decoration-thickness: initial; text-decoration-style: initial; text-decoration-color: initial; float: none; display: inline !important;&quot;&gt;&lt;font style=&quot;font-size: 16px;&quot;&gt;Inserir 21 12 74 61 24 42 32&amp;nbsp;&lt;/font&gt;&lt;/span&gt;" style="text;whiteSpace=wrap;html=1;" vertex="1" parent="A3SwsD7uPUs9U5FYij50-1">
          <mxGeometry x="120" y="40" width="250" height="40" as="geometry" />
        </mxCell>
        <mxCell id="A3SwsD7uPUs9U5FYij50-3" value="&lt;span style=&quot;color: rgb(51, 51, 51); font-family: -apple-system, BlinkMacSystemFont, &amp;quot;Segoe UI&amp;quot;, Roboto, &amp;quot;Helvetica Neue&amp;quot;, Arial, &amp;quot;Noto Sans&amp;quot;, &amp;quot;Liberation Sans&amp;quot;, sans-serif, &amp;quot;Apple Color Emoji&amp;quot;, &amp;quot;Segoe UI Emoji&amp;quot;, &amp;quot;Segoe UI Symbol&amp;quot;, &amp;quot;Noto Color Emoji&amp;quot;; font-style: normal; font-variant-ligatures: normal; font-variant-caps: normal; font-weight: 400; letter-spacing: normal; orphans: 2; text-align: left; text-indent: 0px; text-transform: none; widows: 2; word-spacing: 0px; -webkit-text-stroke-width: 0px; white-space: normal; background-color: rgb(255, 255, 255); text-decoration-thickness: initial; text-decoration-style: initial; text-decoration-color: initial; float: none; display: inline !important;&quot;&gt;&lt;font style=&quot;font-size: 16px;&quot;&gt;Tamanho 10&lt;/font&gt;&lt;/span&gt;" style="text;whiteSpace=wrap;html=1;" vertex="1" parent="A3SwsD7uPUs9U5FYij50-1">
          <mxGeometry x="570" y="40" width="100" height="40" as="geometry" />
        </mxCell>
        <mxCell id="A3SwsD7uPUs9U5FYij50-4" value="" style="rounded=0;whiteSpace=wrap;html=1;" vertex="1" parent="A3SwsD7uPUs9U5FYij50-1">
          <mxGeometry x="60" y="300" width="70" height="60" as="geometry" />
        </mxCell>
        <mxCell id="A3SwsD7uPUs9U5FYij50-5" value="21" style="rounded=0;whiteSpace=wrap;html=1;" vertex="1" parent="A3SwsD7uPUs9U5FYij50-1">
          <mxGeometry x="130" y="300" width="70" height="60" as="geometry" />
        </mxCell>
        <mxCell id="A3SwsD7uPUs9U5FYij50-6" value="" style="rounded=0;whiteSpace=wrap;html=1;" vertex="1" parent="A3SwsD7uPUs9U5FYij50-1">
          <mxGeometry x="200" y="300" width="70" height="60" as="geometry" />
        </mxCell>
        <mxCell id="A3SwsD7uPUs9U5FYij50-7" value="" style="rounded=0;whiteSpace=wrap;html=1;" vertex="1" parent="A3SwsD7uPUs9U5FYij50-1">
          <mxGeometry x="270" y="300" width="70" height="60" as="geometry" />
        </mxCell>
        <mxCell id="A3SwsD7uPUs9U5FYij50-8" value="14" style="rounded=0;whiteSpace=wrap;html=1;" vertex="1" parent="A3SwsD7uPUs9U5FYij50-1">
          <mxGeometry x="340" y="300" width="70" height="60" as="geometry" />
        </mxCell>
        <mxCell id="A3SwsD7uPUs9U5FYij50-9" value="" style="rounded=0;whiteSpace=wrap;html=1;" vertex="1" parent="A3SwsD7uPUs9U5FYij50-1">
          <mxGeometry x="410" y="300" width="70" height="60" as="geometry" />
        </mxCell>
        <mxCell id="A3SwsD7uPUs9U5FYij50-10" value="" style="rounded=0;whiteSpace=wrap;html=1;" vertex="1" parent="A3SwsD7uPUs9U5FYij50-1">
          <mxGeometry x="480" y="300" width="70" height="60" as="geometry" />
        </mxCell>
        <mxCell id="A3SwsD7uPUs9U5FYij50-11" value="" style="rounded=0;whiteSpace=wrap;html=1;" vertex="1" parent="A3SwsD7uPUs9U5FYij50-1">
          <mxGeometry x="550" y="300" width="70" height="60" as="geometry" />
        </mxCell>
        <mxCell id="A3SwsD7uPUs9U5FYij50-12" value="" style="rounded=0;whiteSpace=wrap;html=1;" vertex="1" parent="A3SwsD7uPUs9U5FYij50-1">
          <mxGeometry x="620" y="300" width="70" height="60" as="geometry" />
        </mxCell>
        <mxCell id="A3SwsD7uPUs9U5FYij50-13" value="" style="rounded=0;whiteSpace=wrap;html=1;" vertex="1" parent="A3SwsD7uPUs9U5FYij50-1">
          <mxGeometry x="690" y="300" width="70" height="60" as="geometry" />
        </mxCell>
        <mxCell id="A3SwsD7uPUs9U5FYij50-14" value="&lt;span style=&quot;font-family: -apple-system, BlinkMacSystemFont, &amp;quot;Segoe UI&amp;quot;, Roboto, &amp;quot;Helvetica Neue&amp;quot;, Arial, &amp;quot;Noto Sans&amp;quot;, &amp;quot;Liberation Sans&amp;quot;, sans-serif, &amp;quot;Apple Color Emoji&amp;quot;, &amp;quot;Segoe UI Emoji&amp;quot;, &amp;quot;Segoe UI Symbol&amp;quot;, &amp;quot;Noto Color Emoji&amp;quot;; font-size: 16px; font-style: normal; font-variant-ligatures: normal; font-variant-caps: normal; font-weight: 400; letter-spacing: normal; orphans: 2; text-align: left; text-indent: 0px; text-transform: none; widows: 2; word-spacing: 0px; -webkit-text-stroke-width: 0px; white-space: normal; text-decoration-thickness: initial; text-decoration-style: initial; text-decoration-color: initial; float: none; display: inline !important;&quot;&gt;&lt;font style=&quot;color: light-dark(rgb(193, 193, 193), rgb(255, 255, 255));&quot;&gt;0&lt;/font&gt;&lt;/span&gt;" style="text;whiteSpace=wrap;html=1;" vertex="1" parent="A3SwsD7uPUs9U5FYij50-1">
          <mxGeometry x="85" y="250" width="20" height="30" as="geometry" />
        </mxCell>
        <mxCell id="A3SwsD7uPUs9U5FYij50-15" value="&lt;span style=&quot;font-family: -apple-system, BlinkMacSystemFont, &amp;quot;Segoe UI&amp;quot;, Roboto, &amp;quot;Helvetica Neue&amp;quot;, Arial, &amp;quot;Noto Sans&amp;quot;, &amp;quot;Liberation Sans&amp;quot;, sans-serif, &amp;quot;Apple Color Emoji&amp;quot;, &amp;quot;Segoe UI Emoji&amp;quot;, &amp;quot;Segoe UI Symbol&amp;quot;, &amp;quot;Noto Color Emoji&amp;quot;; font-size: 16px; font-style: normal; font-variant-ligatures: normal; font-variant-caps: normal; font-weight: 400; letter-spacing: normal; orphans: 2; text-align: left; text-indent: 0px; text-transform: none; widows: 2; word-spacing: 0px; -webkit-text-stroke-width: 0px; white-space: normal; text-decoration-thickness: initial; text-decoration-style: initial; text-decoration-color: initial; float: none; display: inline !important;&quot;&gt;&lt;font style=&quot;color: light-dark(rgb(193, 193, 193), rgb(255, 255, 255));&quot;&gt;1&lt;/font&gt;&lt;/span&gt;" style="text;whiteSpace=wrap;html=1;" vertex="1" parent="A3SwsD7uPUs9U5FYij50-1">
          <mxGeometry x="155" y="250" width="20" height="30" as="geometry" />
        </mxCell>
        <mxCell id="A3SwsD7uPUs9U5FYij50-16" value="&lt;span style=&quot;font-family: -apple-system, BlinkMacSystemFont, &amp;quot;Segoe UI&amp;quot;, Roboto, &amp;quot;Helvetica Neue&amp;quot;, Arial, &amp;quot;Noto Sans&amp;quot;, &amp;quot;Liberation Sans&amp;quot;, sans-serif, &amp;quot;Apple Color Emoji&amp;quot;, &amp;quot;Segoe UI Emoji&amp;quot;, &amp;quot;Segoe UI Symbol&amp;quot;, &amp;quot;Noto Color Emoji&amp;quot;; font-size: 16px; font-style: normal; font-variant-ligatures: normal; font-variant-caps: normal; font-weight: 400; letter-spacing: normal; orphans: 2; text-align: left; text-indent: 0px; text-transform: none; widows: 2; word-spacing: 0px; -webkit-text-stroke-width: 0px; white-space: normal; text-decoration-thickness: initial; text-decoration-style: initial; text-decoration-color: initial; float: none; display: inline !important;&quot;&gt;&lt;font style=&quot;color: light-dark(rgb(193, 193, 193), rgb(255, 255, 255));&quot;&gt;2&lt;/font&gt;&lt;/span&gt;" style="text;whiteSpace=wrap;html=1;" vertex="1" parent="A3SwsD7uPUs9U5FYij50-1">
          <mxGeometry x="225" y="250" width="20" height="30" as="geometry" />
        </mxCell>
        <mxCell id="A3SwsD7uPUs9U5FYij50-17" value="&lt;span style=&quot;font-family: -apple-system, BlinkMacSystemFont, &amp;quot;Segoe UI&amp;quot;, Roboto, &amp;quot;Helvetica Neue&amp;quot;, Arial, &amp;quot;Noto Sans&amp;quot;, &amp;quot;Liberation Sans&amp;quot;, sans-serif, &amp;quot;Apple Color Emoji&amp;quot;, &amp;quot;Segoe UI Emoji&amp;quot;, &amp;quot;Segoe UI Symbol&amp;quot;, &amp;quot;Noto Color Emoji&amp;quot;; font-size: 16px; font-style: normal; font-variant-ligatures: normal; font-variant-caps: normal; font-weight: 400; letter-spacing: normal; orphans: 2; text-align: left; text-indent: 0px; text-transform: none; widows: 2; word-spacing: 0px; -webkit-text-stroke-width: 0px; white-space: normal; text-decoration-thickness: initial; text-decoration-style: initial; text-decoration-color: initial; float: none; display: inline !important;&quot;&gt;&lt;font style=&quot;color: light-dark(rgb(193, 193, 193), rgb(255, 255, 255));&quot;&gt;3&lt;/font&gt;&lt;/span&gt;" style="text;whiteSpace=wrap;html=1;" vertex="1" parent="A3SwsD7uPUs9U5FYij50-1">
          <mxGeometry x="295" y="250" width="20" height="30" as="geometry" />
        </mxCell>
        <mxCell id="A3SwsD7uPUs9U5FYij50-18" value="&lt;span style=&quot;font-family: -apple-system, BlinkMacSystemFont, &amp;quot;Segoe UI&amp;quot;, Roboto, &amp;quot;Helvetica Neue&amp;quot;, Arial, &amp;quot;Noto Sans&amp;quot;, &amp;quot;Liberation Sans&amp;quot;, sans-serif, &amp;quot;Apple Color Emoji&amp;quot;, &amp;quot;Segoe UI Emoji&amp;quot;, &amp;quot;Segoe UI Symbol&amp;quot;, &amp;quot;Noto Color Emoji&amp;quot;; font-size: 16px; font-style: normal; font-variant-ligatures: normal; font-variant-caps: normal; font-weight: 400; letter-spacing: normal; orphans: 2; text-align: left; text-indent: 0px; text-transform: none; widows: 2; word-spacing: 0px; -webkit-text-stroke-width: 0px; white-space: normal; text-decoration-thickness: initial; text-decoration-style: initial; text-decoration-color: initial; float: none; display: inline !important;&quot;&gt;&lt;font style=&quot;color: light-dark(rgb(193, 193, 193), rgb(255, 255, 255));&quot;&gt;4&lt;/font&gt;&lt;/span&gt;" style="text;whiteSpace=wrap;html=1;" vertex="1" parent="A3SwsD7uPUs9U5FYij50-1">
          <mxGeometry x="365" y="250" width="20" height="30" as="geometry" />
        </mxCell>
        <mxCell id="A3SwsD7uPUs9U5FYij50-19" value="&lt;span style=&quot;font-family: -apple-system, BlinkMacSystemFont, &amp;quot;Segoe UI&amp;quot;, Roboto, &amp;quot;Helvetica Neue&amp;quot;, Arial, &amp;quot;Noto Sans&amp;quot;, &amp;quot;Liberation Sans&amp;quot;, sans-serif, &amp;quot;Apple Color Emoji&amp;quot;, &amp;quot;Segoe UI Emoji&amp;quot;, &amp;quot;Segoe UI Symbol&amp;quot;, &amp;quot;Noto Color Emoji&amp;quot;; font-size: 16px; font-style: normal; font-variant-ligatures: normal; font-variant-caps: normal; font-weight: 400; letter-spacing: normal; orphans: 2; text-align: left; text-indent: 0px; text-transform: none; widows: 2; word-spacing: 0px; -webkit-text-stroke-width: 0px; white-space: normal; text-decoration-thickness: initial; text-decoration-style: initial; text-decoration-color: initial; float: none; display: inline !important;&quot;&gt;&lt;font style=&quot;color: light-dark(rgb(193, 193, 193), rgb(255, 255, 255));&quot;&gt;5&lt;/font&gt;&lt;/span&gt;" style="text;whiteSpace=wrap;html=1;" vertex="1" parent="A3SwsD7uPUs9U5FYij50-1">
          <mxGeometry x="435" y="250" width="20" height="30" as="geometry" />
        </mxCell>
        <mxCell id="A3SwsD7uPUs9U5FYij50-20" value="&lt;span style=&quot;font-family: -apple-system, BlinkMacSystemFont, &amp;quot;Segoe UI&amp;quot;, Roboto, &amp;quot;Helvetica Neue&amp;quot;, Arial, &amp;quot;Noto Sans&amp;quot;, &amp;quot;Liberation Sans&amp;quot;, sans-serif, &amp;quot;Apple Color Emoji&amp;quot;, &amp;quot;Segoe UI Emoji&amp;quot;, &amp;quot;Segoe UI Symbol&amp;quot;, &amp;quot;Noto Color Emoji&amp;quot;; font-size: 16px; font-style: normal; font-variant-ligatures: normal; font-variant-caps: normal; font-weight: 400; letter-spacing: normal; orphans: 2; text-align: left; text-indent: 0px; text-transform: none; widows: 2; word-spacing: 0px; -webkit-text-stroke-width: 0px; white-space: normal; text-decoration-thickness: initial; text-decoration-style: initial; text-decoration-color: initial; float: none; display: inline !important;&quot;&gt;&lt;font style=&quot;color: light-dark(rgb(193, 193, 193), rgb(255, 255, 255));&quot;&gt;6&lt;/font&gt;&lt;/span&gt;" style="text;whiteSpace=wrap;html=1;" vertex="1" parent="A3SwsD7uPUs9U5FYij50-1">
          <mxGeometry x="505" y="250" width="20" height="30" as="geometry" />
        </mxCell>
        <mxCell id="A3SwsD7uPUs9U5FYij50-21" value="&lt;span style=&quot;font-family: -apple-system, BlinkMacSystemFont, &amp;quot;Segoe UI&amp;quot;, Roboto, &amp;quot;Helvetica Neue&amp;quot;, Arial, &amp;quot;Noto Sans&amp;quot;, &amp;quot;Liberation Sans&amp;quot;, sans-serif, &amp;quot;Apple Color Emoji&amp;quot;, &amp;quot;Segoe UI Emoji&amp;quot;, &amp;quot;Segoe UI Symbol&amp;quot;, &amp;quot;Noto Color Emoji&amp;quot;; font-size: 16px; font-style: normal; font-variant-ligatures: normal; font-variant-caps: normal; font-weight: 400; letter-spacing: normal; orphans: 2; text-align: left; text-indent: 0px; text-transform: none; widows: 2; word-spacing: 0px; -webkit-text-stroke-width: 0px; white-space: normal; text-decoration-thickness: initial; text-decoration-style: initial; text-decoration-color: initial; float: none; display: inline !important;&quot;&gt;&lt;font style=&quot;color: light-dark(rgb(193, 193, 193), rgb(255, 255, 255));&quot;&gt;7&lt;/font&gt;&lt;/span&gt;" style="text;whiteSpace=wrap;html=1;" vertex="1" parent="A3SwsD7uPUs9U5FYij50-1">
          <mxGeometry x="570" y="250" width="20" height="30" as="geometry" />
        </mxCell>
        <mxCell id="A3SwsD7uPUs9U5FYij50-22" value="&lt;span style=&quot;font-family: -apple-system, BlinkMacSystemFont, &amp;quot;Segoe UI&amp;quot;, Roboto, &amp;quot;Helvetica Neue&amp;quot;, Arial, &amp;quot;Noto Sans&amp;quot;, &amp;quot;Liberation Sans&amp;quot;, sans-serif, &amp;quot;Apple Color Emoji&amp;quot;, &amp;quot;Segoe UI Emoji&amp;quot;, &amp;quot;Segoe UI Symbol&amp;quot;, &amp;quot;Noto Color Emoji&amp;quot;; font-size: 16px; font-style: normal; font-variant-ligatures: normal; font-variant-caps: normal; font-weight: 400; letter-spacing: normal; orphans: 2; text-align: left; text-indent: 0px; text-transform: none; widows: 2; word-spacing: 0px; -webkit-text-stroke-width: 0px; white-space: normal; text-decoration-thickness: initial; text-decoration-style: initial; text-decoration-color: initial; float: none; display: inline !important;&quot;&gt;&lt;font style=&quot;color: light-dark(rgb(193, 193, 193), rgb(255, 255, 255));&quot;&gt;8&lt;/font&gt;&lt;/span&gt;" style="text;whiteSpace=wrap;html=1;" vertex="1" parent="A3SwsD7uPUs9U5FYij50-1">
          <mxGeometry x="640" y="250" width="20" height="30" as="geometry" />
        </mxCell>
        <mxCell id="A3SwsD7uPUs9U5FYij50-23" value="&lt;span style=&quot;font-family: -apple-system, BlinkMacSystemFont, &amp;quot;Segoe UI&amp;quot;, Roboto, &amp;quot;Helvetica Neue&amp;quot;, Arial, &amp;quot;Noto Sans&amp;quot;, &amp;quot;Liberation Sans&amp;quot;, sans-serif, &amp;quot;Apple Color Emoji&amp;quot;, &amp;quot;Segoe UI Emoji&amp;quot;, &amp;quot;Segoe UI Symbol&amp;quot;, &amp;quot;Noto Color Emoji&amp;quot;; font-size: 16px; font-style: normal; font-variant-ligatures: normal; font-variant-caps: normal; font-weight: 400; letter-spacing: normal; orphans: 2; text-align: left; text-indent: 0px; text-transform: none; widows: 2; word-spacing: 0px; -webkit-text-stroke-width: 0px; white-space: normal; text-decoration-thickness: initial; text-decoration-style: initial; text-decoration-color: initial; float: none; display: inline !important;&quot;&gt;&lt;font style=&quot;color: light-dark(rgb(193, 193, 193), rgb(255, 255, 255));&quot;&gt;9&lt;/font&gt;&lt;/span&gt;" style="text;whiteSpace=wrap;html=1;" vertex="1" parent="A3SwsD7uPUs9U5FYij50-1">
          <mxGeometry x="710" y="250" width="20" height="30" as="geometry" />
        </mxCell>
      </root>
    </mxGraphModel>
  </diagram>
  <diagram name="CÃ³pia do CÃ³pia do PÃ¡gina-1" id="MLF7ctlyonmsv0sCAD7Y">
    <mxGraphModel dx="2024" dy="834" grid="1" gridSize="10" guides="1" tooltips="1" connect="1" arrows="1" fold="1" page="1" pageScale="1" pageWidth="827" pageHeight="1169" math="0" shadow="0">
      <root>
        <mxCell id="bSnvS7WS5-PMy5gRLA2u-0" />
        <mxCell id="bSnvS7WS5-PMy5gRLA2u-1" parent="bSnvS7WS5-PMy5gRLA2u-0" />
        <mxCell id="bSnvS7WS5-PMy5gRLA2u-2" value="&lt;span style=&quot;color: rgb(51, 51, 51); font-family: -apple-system, BlinkMacSystemFont, &amp;quot;Segoe UI&amp;quot;, Roboto, &amp;quot;Helvetica Neue&amp;quot;, Arial, &amp;quot;Noto Sans&amp;quot;, &amp;quot;Liberation Sans&amp;quot;, sans-serif, &amp;quot;Apple Color Emoji&amp;quot;, &amp;quot;Segoe UI Emoji&amp;quot;, &amp;quot;Segoe UI Symbol&amp;quot;, &amp;quot;Noto Color Emoji&amp;quot;; font-style: normal; font-variant-ligatures: normal; font-variant-caps: normal; font-weight: 400; letter-spacing: normal; orphans: 2; text-align: left; text-indent: 0px; text-transform: none; widows: 2; word-spacing: 0px; -webkit-text-stroke-width: 0px; white-space: normal; background-color: rgb(255, 255, 255); text-decoration-thickness: initial; text-decoration-style: initial; text-decoration-color: initial; float: none; display: inline !important;&quot;&gt;&lt;font style=&quot;font-size: 16px;&quot;&gt;Inserir 12 74 61 24 42 32&amp;nbsp;&lt;/font&gt;&lt;/span&gt;" style="text;whiteSpace=wrap;html=1;" vertex="1" parent="bSnvS7WS5-PMy5gRLA2u-1">
          <mxGeometry x="120" y="40" width="250" height="40" as="geometry" />
        </mxCell>
        <mxCell id="bSnvS7WS5-PMy5gRLA2u-3" value="&lt;span style=&quot;color: rgb(51, 51, 51); font-family: -apple-system, BlinkMacSystemFont, &amp;quot;Segoe UI&amp;quot;, Roboto, &amp;quot;Helvetica Neue&amp;quot;, Arial, &amp;quot;Noto Sans&amp;quot;, &amp;quot;Liberation Sans&amp;quot;, sans-serif, &amp;quot;Apple Color Emoji&amp;quot;, &amp;quot;Segoe UI Emoji&amp;quot;, &amp;quot;Segoe UI Symbol&amp;quot;, &amp;quot;Noto Color Emoji&amp;quot;; font-style: normal; font-variant-ligatures: normal; font-variant-caps: normal; font-weight: 400; letter-spacing: normal; orphans: 2; text-align: left; text-indent: 0px; text-transform: none; widows: 2; word-spacing: 0px; -webkit-text-stroke-width: 0px; white-space: normal; background-color: rgb(255, 255, 255); text-decoration-thickness: initial; text-decoration-style: initial; text-decoration-color: initial; float: none; display: inline !important;&quot;&gt;&lt;font style=&quot;font-size: 16px;&quot;&gt;Tamanho 10&lt;/font&gt;&lt;/span&gt;" style="text;whiteSpace=wrap;html=1;" vertex="1" parent="bSnvS7WS5-PMy5gRLA2u-1">
          <mxGeometry x="570" y="40" width="100" height="40" as="geometry" />
        </mxCell>
        <mxCell id="bSnvS7WS5-PMy5gRLA2u-4" value="" style="rounded=0;whiteSpace=wrap;html=1;" vertex="1" parent="bSnvS7WS5-PMy5gRLA2u-1">
          <mxGeometry x="60" y="300" width="70" height="60" as="geometry" />
        </mxCell>
        <mxCell id="bSnvS7WS5-PMy5gRLA2u-5" value="21" style="rounded=0;whiteSpace=wrap;html=1;" vertex="1" parent="bSnvS7WS5-PMy5gRLA2u-1">
          <mxGeometry x="130" y="300" width="70" height="60" as="geometry" />
        </mxCell>
        <mxCell id="bSnvS7WS5-PMy5gRLA2u-6" value="12" style="rounded=0;whiteSpace=wrap;html=1;" vertex="1" parent="bSnvS7WS5-PMy5gRLA2u-1">
          <mxGeometry x="200" y="300" width="70" height="60" as="geometry" />
        </mxCell>
        <mxCell id="bSnvS7WS5-PMy5gRLA2u-7" value="" style="rounded=0;whiteSpace=wrap;html=1;" vertex="1" parent="bSnvS7WS5-PMy5gRLA2u-1">
          <mxGeometry x="270" y="300" width="70" height="60" as="geometry" />
        </mxCell>
        <mxCell id="bSnvS7WS5-PMy5gRLA2u-8" value="14" style="rounded=0;whiteSpace=wrap;html=1;" vertex="1" parent="bSnvS7WS5-PMy5gRLA2u-1">
          <mxGeometry x="340" y="300" width="70" height="60" as="geometry" />
        </mxCell>
        <mxCell id="bSnvS7WS5-PMy5gRLA2u-9" value="" style="rounded=0;whiteSpace=wrap;html=1;" vertex="1" parent="bSnvS7WS5-PMy5gRLA2u-1">
          <mxGeometry x="410" y="300" width="70" height="60" as="geometry" />
        </mxCell>
        <mxCell id="bSnvS7WS5-PMy5gRLA2u-10" value="" style="rounded=0;whiteSpace=wrap;html=1;" vertex="1" parent="bSnvS7WS5-PMy5gRLA2u-1">
          <mxGeometry x="480" y="300" width="70" height="60" as="geometry" />
        </mxCell>
        <mxCell id="bSnvS7WS5-PMy5gRLA2u-11" value="" style="rounded=0;whiteSpace=wrap;html=1;" vertex="1" parent="bSnvS7WS5-PMy5gRLA2u-1">
          <mxGeometry x="550" y="300" width="70" height="60" as="geometry" />
        </mxCell>
        <mxCell id="bSnvS7WS5-PMy5gRLA2u-12" value="" style="rounded=0;whiteSpace=wrap;html=1;" vertex="1" parent="bSnvS7WS5-PMy5gRLA2u-1">
          <mxGeometry x="620" y="300" width="70" height="60" as="geometry" />
        </mxCell>
        <mxCell id="bSnvS7WS5-PMy5gRLA2u-13" value="" style="rounded=0;whiteSpace=wrap;html=1;" vertex="1" parent="bSnvS7WS5-PMy5gRLA2u-1">
          <mxGeometry x="690" y="300" width="70" height="60" as="geometry" />
        </mxCell>
        <mxCell id="bSnvS7WS5-PMy5gRLA2u-14" value="&lt;span style=&quot;font-family: -apple-system, BlinkMacSystemFont, &amp;quot;Segoe UI&amp;quot;, Roboto, &amp;quot;Helvetica Neue&amp;quot;, Arial, &amp;quot;Noto Sans&amp;quot;, &amp;quot;Liberation Sans&amp;quot;, sans-serif, &amp;quot;Apple Color Emoji&amp;quot;, &amp;quot;Segoe UI Emoji&amp;quot;, &amp;quot;Segoe UI Symbol&amp;quot;, &amp;quot;Noto Color Emoji&amp;quot;; font-size: 16px; font-style: normal; font-variant-ligatures: normal; font-variant-caps: normal; font-weight: 400; letter-spacing: normal; orphans: 2; text-align: left; text-indent: 0px; text-transform: none; widows: 2; word-spacing: 0px; -webkit-text-stroke-width: 0px; white-space: normal; text-decoration-thickness: initial; text-decoration-style: initial; text-decoration-color: initial; float: none; display: inline !important;&quot;&gt;&lt;font style=&quot;color: light-dark(rgb(193, 193, 193), rgb(255, 255, 255));&quot;&gt;0&lt;/font&gt;&lt;/span&gt;" style="text;whiteSpace=wrap;html=1;" vertex="1" parent="bSnvS7WS5-PMy5gRLA2u-1">
          <mxGeometry x="85" y="250" width="20" height="30" as="geometry" />
        </mxCell>
        <mxCell id="bSnvS7WS5-PMy5gRLA2u-15" value="&lt;span style=&quot;font-family: -apple-system, BlinkMacSystemFont, &amp;quot;Segoe UI&amp;quot;, Roboto, &amp;quot;Helvetica Neue&amp;quot;, Arial, &amp;quot;Noto Sans&amp;quot;, &amp;quot;Liberation Sans&amp;quot;, sans-serif, &amp;quot;Apple Color Emoji&amp;quot;, &amp;quot;Segoe UI Emoji&amp;quot;, &amp;quot;Segoe UI Symbol&amp;quot;, &amp;quot;Noto Color Emoji&amp;quot;; font-size: 16px; font-style: normal; font-variant-ligatures: normal; font-variant-caps: normal; font-weight: 400; letter-spacing: normal; orphans: 2; text-align: left; text-indent: 0px; text-transform: none; widows: 2; word-spacing: 0px; -webkit-text-stroke-width: 0px; white-space: normal; text-decoration-thickness: initial; text-decoration-style: initial; text-decoration-color: initial; float: none; display: inline !important;&quot;&gt;&lt;font style=&quot;color: light-dark(rgb(193, 193, 193), rgb(255, 255, 255));&quot;&gt;1&lt;/font&gt;&lt;/span&gt;" style="text;whiteSpace=wrap;html=1;" vertex="1" parent="bSnvS7WS5-PMy5gRLA2u-1">
          <mxGeometry x="155" y="250" width="20" height="30" as="geometry" />
        </mxCell>
        <mxCell id="bSnvS7WS5-PMy5gRLA2u-16" value="&lt;span style=&quot;font-family: -apple-system, BlinkMacSystemFont, &amp;quot;Segoe UI&amp;quot;, Roboto, &amp;quot;Helvetica Neue&amp;quot;, Arial, &amp;quot;Noto Sans&amp;quot;, &amp;quot;Liberation Sans&amp;quot;, sans-serif, &amp;quot;Apple Color Emoji&amp;quot;, &amp;quot;Segoe UI Emoji&amp;quot;, &amp;quot;Segoe UI Symbol&amp;quot;, &amp;quot;Noto Color Emoji&amp;quot;; font-size: 16px; font-style: normal; font-variant-ligatures: normal; font-variant-caps: normal; font-weight: 400; letter-spacing: normal; orphans: 2; text-align: left; text-indent: 0px; text-transform: none; widows: 2; word-spacing: 0px; -webkit-text-stroke-width: 0px; white-space: normal; text-decoration-thickness: initial; text-decoration-style: initial; text-decoration-color: initial; float: none; display: inline !important;&quot;&gt;&lt;font style=&quot;color: light-dark(rgb(193, 193, 193), rgb(255, 255, 255));&quot;&gt;2&lt;/font&gt;&lt;/span&gt;" style="text;whiteSpace=wrap;html=1;" vertex="1" parent="bSnvS7WS5-PMy5gRLA2u-1">
          <mxGeometry x="225" y="250" width="20" height="30" as="geometry" />
        </mxCell>
        <mxCell id="bSnvS7WS5-PMy5gRLA2u-17" value="&lt;span style=&quot;font-family: -apple-system, BlinkMacSystemFont, &amp;quot;Segoe UI&amp;quot;, Roboto, &amp;quot;Helvetica Neue&amp;quot;, Arial, &amp;quot;Noto Sans&amp;quot;, &amp;quot;Liberation Sans&amp;quot;, sans-serif, &amp;quot;Apple Color Emoji&amp;quot;, &amp;quot;Segoe UI Emoji&amp;quot;, &amp;quot;Segoe UI Symbol&amp;quot;, &amp;quot;Noto Color Emoji&amp;quot;; font-size: 16px; font-style: normal; font-variant-ligatures: normal; font-variant-caps: normal; font-weight: 400; letter-spacing: normal; orphans: 2; text-align: left; text-indent: 0px; text-transform: none; widows: 2; word-spacing: 0px; -webkit-text-stroke-width: 0px; white-space: normal; text-decoration-thickness: initial; text-decoration-style: initial; text-decoration-color: initial; float: none; display: inline !important;&quot;&gt;&lt;font style=&quot;color: light-dark(rgb(193, 193, 193), rgb(255, 255, 255));&quot;&gt;3&lt;/font&gt;&lt;/span&gt;" style="text;whiteSpace=wrap;html=1;" vertex="1" parent="bSnvS7WS5-PMy5gRLA2u-1">
          <mxGeometry x="295" y="250" width="20" height="30" as="geometry" />
        </mxCell>
        <mxCell id="bSnvS7WS5-PMy5gRLA2u-18" value="&lt;span style=&quot;font-family: -apple-system, BlinkMacSystemFont, &amp;quot;Segoe UI&amp;quot;, Roboto, &amp;quot;Helvetica Neue&amp;quot;, Arial, &amp;quot;Noto Sans&amp;quot;, &amp;quot;Liberation Sans&amp;quot;, sans-serif, &amp;quot;Apple Color Emoji&amp;quot;, &amp;quot;Segoe UI Emoji&amp;quot;, &amp;quot;Segoe UI Symbol&amp;quot;, &amp;quot;Noto Color Emoji&amp;quot;; font-size: 16px; font-style: normal; font-variant-ligatures: normal; font-variant-caps: normal; font-weight: 400; letter-spacing: normal; orphans: 2; text-align: left; text-indent: 0px; text-transform: none; widows: 2; word-spacing: 0px; -webkit-text-stroke-width: 0px; white-space: normal; text-decoration-thickness: initial; text-decoration-style: initial; text-decoration-color: initial; float: none; display: inline !important;&quot;&gt;&lt;font style=&quot;color: light-dark(rgb(193, 193, 193), rgb(255, 255, 255));&quot;&gt;4&lt;/font&gt;&lt;/span&gt;" style="text;whiteSpace=wrap;html=1;" vertex="1" parent="bSnvS7WS5-PMy5gRLA2u-1">
          <mxGeometry x="365" y="250" width="20" height="30" as="geometry" />
        </mxCell>
        <mxCell id="bSnvS7WS5-PMy5gRLA2u-19" value="&lt;span style=&quot;font-family: -apple-system, BlinkMacSystemFont, &amp;quot;Segoe UI&amp;quot;, Roboto, &amp;quot;Helvetica Neue&amp;quot;, Arial, &amp;quot;Noto Sans&amp;quot;, &amp;quot;Liberation Sans&amp;quot;, sans-serif, &amp;quot;Apple Color Emoji&amp;quot;, &amp;quot;Segoe UI Emoji&amp;quot;, &amp;quot;Segoe UI Symbol&amp;quot;, &amp;quot;Noto Color Emoji&amp;quot;; font-size: 16px; font-style: normal; font-variant-ligatures: normal; font-variant-caps: normal; font-weight: 400; letter-spacing: normal; orphans: 2; text-align: left; text-indent: 0px; text-transform: none; widows: 2; word-spacing: 0px; -webkit-text-stroke-width: 0px; white-space: normal; text-decoration-thickness: initial; text-decoration-style: initial; text-decoration-color: initial; float: none; display: inline !important;&quot;&gt;&lt;font style=&quot;color: light-dark(rgb(193, 193, 193), rgb(255, 255, 255));&quot;&gt;5&lt;/font&gt;&lt;/span&gt;" style="text;whiteSpace=wrap;html=1;" vertex="1" parent="bSnvS7WS5-PMy5gRLA2u-1">
          <mxGeometry x="435" y="250" width="20" height="30" as="geometry" />
        </mxCell>
        <mxCell id="bSnvS7WS5-PMy5gRLA2u-20" value="&lt;span style=&quot;font-family: -apple-system, BlinkMacSystemFont, &amp;quot;Segoe UI&amp;quot;, Roboto, &amp;quot;Helvetica Neue&amp;quot;, Arial, &amp;quot;Noto Sans&amp;quot;, &amp;quot;Liberation Sans&amp;quot;, sans-serif, &amp;quot;Apple Color Emoji&amp;quot;, &amp;quot;Segoe UI Emoji&amp;quot;, &amp;quot;Segoe UI Symbol&amp;quot;, &amp;quot;Noto Color Emoji&amp;quot;; font-size: 16px; font-style: normal; font-variant-ligatures: normal; font-variant-caps: normal; font-weight: 400; letter-spacing: normal; orphans: 2; text-align: left; text-indent: 0px; text-transform: none; widows: 2; word-spacing: 0px; -webkit-text-stroke-width: 0px; white-space: normal; text-decoration-thickness: initial; text-decoration-style: initial; text-decoration-color: initial; float: none; display: inline !important;&quot;&gt;&lt;font style=&quot;color: light-dark(rgb(193, 193, 193), rgb(255, 255, 255));&quot;&gt;6&lt;/font&gt;&lt;/span&gt;" style="text;whiteSpace=wrap;html=1;" vertex="1" parent="bSnvS7WS5-PMy5gRLA2u-1">
          <mxGeometry x="505" y="250" width="20" height="30" as="geometry" />
        </mxCell>
        <mxCell id="bSnvS7WS5-PMy5gRLA2u-21" value="&lt;span style=&quot;font-family: -apple-system, BlinkMacSystemFont, &amp;quot;Segoe UI&amp;quot;, Roboto, &amp;quot;Helvetica Neue&amp;quot;, Arial, &amp;quot;Noto Sans&amp;quot;, &amp;quot;Liberation Sans&amp;quot;, sans-serif, &amp;quot;Apple Color Emoji&amp;quot;, &amp;quot;Segoe UI Emoji&amp;quot;, &amp;quot;Segoe UI Symbol&amp;quot;, &amp;quot;Noto Color Emoji&amp;quot;; font-size: 16px; font-style: normal; font-variant-ligatures: normal; font-variant-caps: normal; font-weight: 400; letter-spacing: normal; orphans: 2; text-align: left; text-indent: 0px; text-transform: none; widows: 2; word-spacing: 0px; -webkit-text-stroke-width: 0px; white-space: normal; text-decoration-thickness: initial; text-decoration-style: initial; text-decoration-color: initial; float: none; display: inline !important;&quot;&gt;&lt;font style=&quot;color: light-dark(rgb(193, 193, 193), rgb(255, 255, 255));&quot;&gt;7&lt;/font&gt;&lt;/span&gt;" style="text;whiteSpace=wrap;html=1;" vertex="1" parent="bSnvS7WS5-PMy5gRLA2u-1">
          <mxGeometry x="570" y="250" width="20" height="30" as="geometry" />
        </mxCell>
        <mxCell id="bSnvS7WS5-PMy5gRLA2u-22" value="&lt;span style=&quot;font-family: -apple-system, BlinkMacSystemFont, &amp;quot;Segoe UI&amp;quot;, Roboto, &amp;quot;Helvetica Neue&amp;quot;, Arial, &amp;quot;Noto Sans&amp;quot;, &amp;quot;Liberation Sans&amp;quot;, sans-serif, &amp;quot;Apple Color Emoji&amp;quot;, &amp;quot;Segoe UI Emoji&amp;quot;, &amp;quot;Segoe UI Symbol&amp;quot;, &amp;quot;Noto Color Emoji&amp;quot;; font-size: 16px; font-style: normal; font-variant-ligatures: normal; font-variant-caps: normal; font-weight: 400; letter-spacing: normal; orphans: 2; text-align: left; text-indent: 0px; text-transform: none; widows: 2; word-spacing: 0px; -webkit-text-stroke-width: 0px; white-space: normal; text-decoration-thickness: initial; text-decoration-style: initial; text-decoration-color: initial; float: none; display: inline !important;&quot;&gt;&lt;font style=&quot;color: light-dark(rgb(193, 193, 193), rgb(255, 255, 255));&quot;&gt;8&lt;/font&gt;&lt;/span&gt;" style="text;whiteSpace=wrap;html=1;" vertex="1" parent="bSnvS7WS5-PMy5gRLA2u-1">
          <mxGeometry x="640" y="250" width="20" height="30" as="geometry" />
        </mxCell>
        <mxCell id="bSnvS7WS5-PMy5gRLA2u-23" value="&lt;span style=&quot;font-family: -apple-system, BlinkMacSystemFont, &amp;quot;Segoe UI&amp;quot;, Roboto, &amp;quot;Helvetica Neue&amp;quot;, Arial, &amp;quot;Noto Sans&amp;quot;, &amp;quot;Liberation Sans&amp;quot;, sans-serif, &amp;quot;Apple Color Emoji&amp;quot;, &amp;quot;Segoe UI Emoji&amp;quot;, &amp;quot;Segoe UI Symbol&amp;quot;, &amp;quot;Noto Color Emoji&amp;quot;; font-size: 16px; font-style: normal; font-variant-ligatures: normal; font-variant-caps: normal; font-weight: 400; letter-spacing: normal; orphans: 2; text-align: left; text-indent: 0px; text-transform: none; widows: 2; word-spacing: 0px; -webkit-text-stroke-width: 0px; white-space: normal; text-decoration-thickness: initial; text-decoration-style: initial; text-decoration-color: initial; float: none; display: inline !important;&quot;&gt;&lt;font style=&quot;color: light-dark(rgb(193, 193, 193), rgb(255, 255, 255));&quot;&gt;9&lt;/font&gt;&lt;/span&gt;" style="text;whiteSpace=wrap;html=1;" vertex="1" parent="bSnvS7WS5-PMy5gRLA2u-1">
          <mxGeometry x="710" y="250" width="20" height="30" as="geometry" />
        </mxCell>
      </root>
    </mxGraphModel>
  </diagram>
  <diagram name="CÃ³pia do CÃ³pia do CÃ³pia do PÃ¡gina-1" id="7B66zObyIk30DxvEDvMZ">
    <mxGraphModel dx="2024" dy="834" grid="1" gridSize="10" guides="1" tooltips="1" connect="1" arrows="1" fold="1" page="1" pageScale="1" pageWidth="827" pageHeight="1169" math="0" shadow="0">
      <root>
        <mxCell id="RBS9vJey9JwK-H_Azzpe-0" />
        <mxCell id="RBS9vJey9JwK-H_Azzpe-1" parent="RBS9vJey9JwK-H_Azzpe-0" />
        <mxCell id="RBS9vJey9JwK-H_Azzpe-2" value="&lt;span style=&quot;color: rgb(51, 51, 51); font-family: -apple-system, BlinkMacSystemFont, &amp;quot;Segoe UI&amp;quot;, Roboto, &amp;quot;Helvetica Neue&amp;quot;, Arial, &amp;quot;Noto Sans&amp;quot;, &amp;quot;Liberation Sans&amp;quot;, sans-serif, &amp;quot;Apple Color Emoji&amp;quot;, &amp;quot;Segoe UI Emoji&amp;quot;, &amp;quot;Segoe UI Symbol&amp;quot;, &amp;quot;Noto Color Emoji&amp;quot;; font-style: normal; font-variant-ligatures: normal; font-variant-caps: normal; font-weight: 400; letter-spacing: normal; orphans: 2; text-align: left; text-indent: 0px; text-transform: none; widows: 2; word-spacing: 0px; -webkit-text-stroke-width: 0px; white-space: normal; background-color: rgb(255, 255, 255); text-decoration-thickness: initial; text-decoration-style: initial; text-decoration-color: initial; float: none; display: inline !important;&quot;&gt;&lt;font style=&quot;font-size: 16px;&quot;&gt;Inserir 74 61 24 42 32&amp;nbsp;&lt;/font&gt;&lt;/span&gt;" style="text;whiteSpace=wrap;html=1;" vertex="1" parent="RBS9vJey9JwK-H_Azzpe-1">
          <mxGeometry x="120" y="40" width="250" height="40" as="geometry" />
        </mxCell>
        <mxCell id="RBS9vJey9JwK-H_Azzpe-3" value="&lt;span style=&quot;color: rgb(51, 51, 51); font-family: -apple-system, BlinkMacSystemFont, &amp;quot;Segoe UI&amp;quot;, Roboto, &amp;quot;Helvetica Neue&amp;quot;, Arial, &amp;quot;Noto Sans&amp;quot;, &amp;quot;Liberation Sans&amp;quot;, sans-serif, &amp;quot;Apple Color Emoji&amp;quot;, &amp;quot;Segoe UI Emoji&amp;quot;, &amp;quot;Segoe UI Symbol&amp;quot;, &amp;quot;Noto Color Emoji&amp;quot;; font-style: normal; font-variant-ligatures: normal; font-variant-caps: normal; font-weight: 400; letter-spacing: normal; orphans: 2; text-align: left; text-indent: 0px; text-transform: none; widows: 2; word-spacing: 0px; -webkit-text-stroke-width: 0px; white-space: normal; background-color: rgb(255, 255, 255); text-decoration-thickness: initial; text-decoration-style: initial; text-decoration-color: initial; float: none; display: inline !important;&quot;&gt;&lt;font style=&quot;font-size: 16px;&quot;&gt;Tamanho 10&lt;/font&gt;&lt;/span&gt;" style="text;whiteSpace=wrap;html=1;" vertex="1" parent="RBS9vJey9JwK-H_Azzpe-1">
          <mxGeometry x="570" y="40" width="100" height="40" as="geometry" />
        </mxCell>
        <mxCell id="RBS9vJey9JwK-H_Azzpe-4" value="" style="rounded=0;whiteSpace=wrap;html=1;" vertex="1" parent="RBS9vJey9JwK-H_Azzpe-1">
          <mxGeometry x="60" y="300" width="70" height="60" as="geometry" />
        </mxCell>
        <mxCell id="RBS9vJey9JwK-H_Azzpe-5" value="21" style="rounded=0;whiteSpace=wrap;html=1;" vertex="1" parent="RBS9vJey9JwK-H_Azzpe-1">
          <mxGeometry x="130" y="300" width="70" height="60" as="geometry" />
        </mxCell>
        <mxCell id="RBS9vJey9JwK-H_Azzpe-6" value="12" style="rounded=0;whiteSpace=wrap;html=1;" vertex="1" parent="RBS9vJey9JwK-H_Azzpe-1">
          <mxGeometry x="200" y="300" width="70" height="60" as="geometry" />
        </mxCell>
        <mxCell id="RBS9vJey9JwK-H_Azzpe-7" value="" style="rounded=0;whiteSpace=wrap;html=1;" vertex="1" parent="RBS9vJey9JwK-H_Azzpe-1">
          <mxGeometry x="270" y="300" width="70" height="60" as="geometry" />
        </mxCell>
        <mxCell id="RBS9vJey9JwK-H_Azzpe-8" value="14" style="rounded=0;whiteSpace=wrap;html=1;" vertex="1" parent="RBS9vJey9JwK-H_Azzpe-1">
          <mxGeometry x="340" y="300" width="70" height="60" as="geometry" />
        </mxCell>
        <mxCell id="RBS9vJey9JwK-H_Azzpe-9" value="74" style="rounded=0;whiteSpace=wrap;html=1;" vertex="1" parent="RBS9vJey9JwK-H_Azzpe-1">
          <mxGeometry x="410" y="300" width="70" height="60" as="geometry" />
        </mxCell>
        <mxCell id="RBS9vJey9JwK-H_Azzpe-10" value="" style="rounded=0;whiteSpace=wrap;html=1;" vertex="1" parent="RBS9vJey9JwK-H_Azzpe-1">
          <mxGeometry x="480" y="300" width="70" height="60" as="geometry" />
        </mxCell>
        <mxCell id="RBS9vJey9JwK-H_Azzpe-11" value="" style="rounded=0;whiteSpace=wrap;html=1;" vertex="1" parent="RBS9vJey9JwK-H_Azzpe-1">
          <mxGeometry x="550" y="300" width="70" height="60" as="geometry" />
        </mxCell>
        <mxCell id="RBS9vJey9JwK-H_Azzpe-12" value="" style="rounded=0;whiteSpace=wrap;html=1;" vertex="1" parent="RBS9vJey9JwK-H_Azzpe-1">
          <mxGeometry x="620" y="300" width="70" height="60" as="geometry" />
        </mxCell>
        <mxCell id="RBS9vJey9JwK-H_Azzpe-13" value="" style="rounded=0;whiteSpace=wrap;html=1;" vertex="1" parent="RBS9vJey9JwK-H_Azzpe-1">
          <mxGeometry x="690" y="300" width="70" height="60" as="geometry" />
        </mxCell>
        <mxCell id="RBS9vJey9JwK-H_Azzpe-14" value="&lt;span style=&quot;font-family: -apple-system, BlinkMacSystemFont, &amp;quot;Segoe UI&amp;quot;, Roboto, &amp;quot;Helvetica Neue&amp;quot;, Arial, &amp;quot;Noto Sans&amp;quot;, &amp;quot;Liberation Sans&amp;quot;, sans-serif, &amp;quot;Apple Color Emoji&amp;quot;, &amp;quot;Segoe UI Emoji&amp;quot;, &amp;quot;Segoe UI Symbol&amp;quot;, &amp;quot;Noto Color Emoji&amp;quot;; font-size: 16px; font-style: normal; font-variant-ligatures: normal; font-variant-caps: normal; font-weight: 400; letter-spacing: normal; orphans: 2; text-align: left; text-indent: 0px; text-transform: none; widows: 2; word-spacing: 0px; -webkit-text-stroke-width: 0px; white-space: normal; text-decoration-thickness: initial; text-decoration-style: initial; text-decoration-color: initial; float: none; display: inline !important;&quot;&gt;&lt;font style=&quot;color: light-dark(rgb(193, 193, 193), rgb(255, 255, 255));&quot;&gt;0&lt;/font&gt;&lt;/span&gt;" style="text;whiteSpace=wrap;html=1;" vertex="1" parent="RBS9vJey9JwK-H_Azzpe-1">
          <mxGeometry x="85" y="250" width="20" height="30" as="geometry" />
        </mxCell>
        <mxCell id="RBS9vJey9JwK-H_Azzpe-15" value="&lt;span style=&quot;font-family: -apple-system, BlinkMacSystemFont, &amp;quot;Segoe UI&amp;quot;, Roboto, &amp;quot;Helvetica Neue&amp;quot;, Arial, &amp;quot;Noto Sans&amp;quot;, &amp;quot;Liberation Sans&amp;quot;, sans-serif, &amp;quot;Apple Color Emoji&amp;quot;, &amp;quot;Segoe UI Emoji&amp;quot;, &amp;quot;Segoe UI Symbol&amp;quot;, &amp;quot;Noto Color Emoji&amp;quot;; font-size: 16px; font-style: normal; font-variant-ligatures: normal; font-variant-caps: normal; font-weight: 400; letter-spacing: normal; orphans: 2; text-align: left; text-indent: 0px; text-transform: none; widows: 2; word-spacing: 0px; -webkit-text-stroke-width: 0px; white-space: normal; text-decoration-thickness: initial; text-decoration-style: initial; text-decoration-color: initial; float: none; display: inline !important;&quot;&gt;&lt;font style=&quot;color: light-dark(rgb(193, 193, 193), rgb(255, 255, 255));&quot;&gt;1&lt;/font&gt;&lt;/span&gt;" style="text;whiteSpace=wrap;html=1;" vertex="1" parent="RBS9vJey9JwK-H_Azzpe-1">
          <mxGeometry x="155" y="250" width="20" height="30" as="geometry" />
        </mxCell>
        <mxCell id="RBS9vJey9JwK-H_Azzpe-16" value="&lt;span style=&quot;font-family: -apple-system, BlinkMacSystemFont, &amp;quot;Segoe UI&amp;quot;, Roboto, &amp;quot;Helvetica Neue&amp;quot;, Arial, &amp;quot;Noto Sans&amp;quot;, &amp;quot;Liberation Sans&amp;quot;, sans-serif, &amp;quot;Apple Color Emoji&amp;quot;, &amp;quot;Segoe UI Emoji&amp;quot;, &amp;quot;Segoe UI Symbol&amp;quot;, &amp;quot;Noto Color Emoji&amp;quot;; font-size: 16px; font-style: normal; font-variant-ligatures: normal; font-variant-caps: normal; font-weight: 400; letter-spacing: normal; orphans: 2; text-align: left; text-indent: 0px; text-transform: none; widows: 2; word-spacing: 0px; -webkit-text-stroke-width: 0px; white-space: normal; text-decoration-thickness: initial; text-decoration-style: initial; text-decoration-color: initial; float: none; display: inline !important;&quot;&gt;&lt;font style=&quot;color: light-dark(rgb(193, 193, 193), rgb(255, 255, 255));&quot;&gt;2&lt;/font&gt;&lt;/span&gt;" style="text;whiteSpace=wrap;html=1;" vertex="1" parent="RBS9vJey9JwK-H_Azzpe-1">
          <mxGeometry x="225" y="250" width="20" height="30" as="geometry" />
        </mxCell>
        <mxCell id="RBS9vJey9JwK-H_Azzpe-17" value="&lt;span style=&quot;font-family: -apple-system, BlinkMacSystemFont, &amp;quot;Segoe UI&amp;quot;, Roboto, &amp;quot;Helvetica Neue&amp;quot;, Arial, &amp;quot;Noto Sans&amp;quot;, &amp;quot;Liberation Sans&amp;quot;, sans-serif, &amp;quot;Apple Color Emoji&amp;quot;, &amp;quot;Segoe UI Emoji&amp;quot;, &amp;quot;Segoe UI Symbol&amp;quot;, &amp;quot;Noto Color Emoji&amp;quot;; font-size: 16px; font-style: normal; font-variant-ligatures: normal; font-variant-caps: normal; font-weight: 400; letter-spacing: normal; orphans: 2; text-align: left; text-indent: 0px; text-transform: none; widows: 2; word-spacing: 0px; -webkit-text-stroke-width: 0px; white-space: normal; text-decoration-thickness: initial; text-decoration-style: initial; text-decoration-color: initial; float: none; display: inline !important;&quot;&gt;&lt;font style=&quot;color: light-dark(rgb(193, 193, 193), rgb(255, 255, 255));&quot;&gt;3&lt;/font&gt;&lt;/span&gt;" style="text;whiteSpace=wrap;html=1;" vertex="1" parent="RBS9vJey9JwK-H_Azzpe-1">
          <mxGeometry x="295" y="250" width="20" height="30" as="geometry" />
        </mxCell>
        <mxCell id="RBS9vJey9JwK-H_Azzpe-18" value="&lt;span style=&quot;font-family: -apple-system, BlinkMacSystemFont, &amp;quot;Segoe UI&amp;quot;, Roboto, &amp;quot;Helvetica Neue&amp;quot;, Arial, &amp;quot;Noto Sans&amp;quot;, &amp;quot;Liberation Sans&amp;quot;, sans-serif, &amp;quot;Apple Color Emoji&amp;quot;, &amp;quot;Segoe UI Emoji&amp;quot;, &amp;quot;Segoe UI Symbol&amp;quot;, &amp;quot;Noto Color Emoji&amp;quot;; font-size: 16px; font-style: normal; font-variant-ligatures: normal; font-variant-caps: normal; font-weight: 400; letter-spacing: normal; orphans: 2; text-align: left; text-indent: 0px; text-transform: none; widows: 2; word-spacing: 0px; -webkit-text-stroke-width: 0px; white-space: normal; text-decoration-thickness: initial; text-decoration-style: initial; text-decoration-color: initial; float: none; display: inline !important;&quot;&gt;&lt;font style=&quot;color: light-dark(rgb(193, 193, 193), rgb(255, 255, 255));&quot;&gt;4&lt;/font&gt;&lt;/span&gt;" style="text;whiteSpace=wrap;html=1;" vertex="1" parent="RBS9vJey9JwK-H_Azzpe-1">
          <mxGeometry x="365" y="250" width="20" height="30" as="geometry" />
        </mxCell>
        <mxCell id="RBS9vJey9JwK-H_Azzpe-19" value="&lt;span style=&quot;font-family: -apple-system, BlinkMacSystemFont, &amp;quot;Segoe UI&amp;quot;, Roboto, &amp;quot;Helvetica Neue&amp;quot;, Arial, &amp;quot;Noto Sans&amp;quot;, &amp;quot;Liberation Sans&amp;quot;, sans-serif, &amp;quot;Apple Color Emoji&amp;quot;, &amp;quot;Segoe UI Emoji&amp;quot;, &amp;quot;Segoe UI Symbol&amp;quot;, &amp;quot;Noto Color Emoji&amp;quot;; font-size: 16px; font-style: normal; font-variant-ligatures: normal; font-variant-caps: normal; font-weight: 400; letter-spacing: normal; orphans: 2; text-align: left; text-indent: 0px; text-transform: none; widows: 2; word-spacing: 0px; -webkit-text-stroke-width: 0px; white-space: normal; text-decoration-thickness: initial; text-decoration-style: initial; text-decoration-color: initial; float: none; display: inline !important;&quot;&gt;&lt;font style=&quot;color: light-dark(rgb(193, 193, 193), rgb(255, 255, 255));&quot;&gt;5&lt;/font&gt;&lt;/span&gt;" style="text;whiteSpace=wrap;html=1;" vertex="1" parent="RBS9vJey9JwK-H_Azzpe-1">
          <mxGeometry x="435" y="250" width="20" height="30" as="geometry" />
        </mxCell>
        <mxCell id="RBS9vJey9JwK-H_Azzpe-20" value="&lt;span style=&quot;font-family: -apple-system, BlinkMacSystemFont, &amp;quot;Segoe UI&amp;quot;, Roboto, &amp;quot;Helvetica Neue&amp;quot;, Arial, &amp;quot;Noto Sans&amp;quot;, &amp;quot;Liberation Sans&amp;quot;, sans-serif, &amp;quot;Apple Color Emoji&amp;quot;, &amp;quot;Segoe UI Emoji&amp;quot;, &amp;quot;Segoe UI Symbol&amp;quot;, &amp;quot;Noto Color Emoji&amp;quot;; font-size: 16px; font-style: normal; font-variant-ligatures: normal; font-variant-caps: normal; font-weight: 400; letter-spacing: normal; orphans: 2; text-align: left; text-indent: 0px; text-transform: none; widows: 2; word-spacing: 0px; -webkit-text-stroke-width: 0px; white-space: normal; text-decoration-thickness: initial; text-decoration-style: initial; text-decoration-color: initial; float: none; display: inline !important;&quot;&gt;&lt;font style=&quot;color: light-dark(rgb(193, 193, 193), rgb(255, 255, 255));&quot;&gt;6&lt;/font&gt;&lt;/span&gt;" style="text;whiteSpace=wrap;html=1;" vertex="1" parent="RBS9vJey9JwK-H_Azzpe-1">
          <mxGeometry x="505" y="250" width="20" height="30" as="geometry" />
        </mxCell>
        <mxCell id="RBS9vJey9JwK-H_Azzpe-21" value="&lt;span style=&quot;font-family: -apple-system, BlinkMacSystemFont, &amp;quot;Segoe UI&amp;quot;, Roboto, &amp;quot;Helvetica Neue&amp;quot;, Arial, &amp;quot;Noto Sans&amp;quot;, &amp;quot;Liberation Sans&amp;quot;, sans-serif, &amp;quot;Apple Color Emoji&amp;quot;, &amp;quot;Segoe UI Emoji&amp;quot;, &amp;quot;Segoe UI Symbol&amp;quot;, &amp;quot;Noto Color Emoji&amp;quot;; font-size: 16px; font-style: normal; font-variant-ligatures: normal; font-variant-caps: normal; font-weight: 400; letter-spacing: normal; orphans: 2; text-align: left; text-indent: 0px; text-transform: none; widows: 2; word-spacing: 0px; -webkit-text-stroke-width: 0px; white-space: normal; text-decoration-thickness: initial; text-decoration-style: initial; text-decoration-color: initial; float: none; display: inline !important;&quot;&gt;&lt;font style=&quot;color: light-dark(rgb(193, 193, 193), rgb(255, 255, 255));&quot;&gt;7&lt;/font&gt;&lt;/span&gt;" style="text;whiteSpace=wrap;html=1;" vertex="1" parent="RBS9vJey9JwK-H_Azzpe-1">
          <mxGeometry x="570" y="250" width="20" height="30" as="geometry" />
        </mxCell>
        <mxCell id="RBS9vJey9JwK-H_Azzpe-22" value="&lt;span style=&quot;font-family: -apple-system, BlinkMacSystemFont, &amp;quot;Segoe UI&amp;quot;, Roboto, &amp;quot;Helvetica Neue&amp;quot;, Arial, &amp;quot;Noto Sans&amp;quot;, &amp;quot;Liberation Sans&amp;quot;, sans-serif, &amp;quot;Apple Color Emoji&amp;quot;, &amp;quot;Segoe UI Emoji&amp;quot;, &amp;quot;Segoe UI Symbol&amp;quot;, &amp;quot;Noto Color Emoji&amp;quot;; font-size: 16px; font-style: normal; font-variant-ligatures: normal; font-variant-caps: normal; font-weight: 400; letter-spacing: normal; orphans: 2; text-align: left; text-indent: 0px; text-transform: none; widows: 2; word-spacing: 0px; -webkit-text-stroke-width: 0px; white-space: normal; text-decoration-thickness: initial; text-decoration-style: initial; text-decoration-color: initial; float: none; display: inline !important;&quot;&gt;&lt;font style=&quot;color: light-dark(rgb(193, 193, 193), rgb(255, 255, 255));&quot;&gt;8&lt;/font&gt;&lt;/span&gt;" style="text;whiteSpace=wrap;html=1;" vertex="1" parent="RBS9vJey9JwK-H_Azzpe-1">
          <mxGeometry x="640" y="250" width="20" height="30" as="geometry" />
        </mxCell>
        <mxCell id="RBS9vJey9JwK-H_Azzpe-23" value="&lt;span style=&quot;font-family: -apple-system, BlinkMacSystemFont, &amp;quot;Segoe UI&amp;quot;, Roboto, &amp;quot;Helvetica Neue&amp;quot;, Arial, &amp;quot;Noto Sans&amp;quot;, &amp;quot;Liberation Sans&amp;quot;, sans-serif, &amp;quot;Apple Color Emoji&amp;quot;, &amp;quot;Segoe UI Emoji&amp;quot;, &amp;quot;Segoe UI Symbol&amp;quot;, &amp;quot;Noto Color Emoji&amp;quot;; font-size: 16px; font-style: normal; font-variant-ligatures: normal; font-variant-caps: normal; font-weight: 400; letter-spacing: normal; orphans: 2; text-align: left; text-indent: 0px; text-transform: none; widows: 2; word-spacing: 0px; -webkit-text-stroke-width: 0px; white-space: normal; text-decoration-thickness: initial; text-decoration-style: initial; text-decoration-color: initial; float: none; display: inline !important;&quot;&gt;&lt;font style=&quot;color: light-dark(rgb(193, 193, 193), rgb(255, 255, 255));&quot;&gt;9&lt;/font&gt;&lt;/span&gt;" style="text;whiteSpace=wrap;html=1;" vertex="1" parent="RBS9vJey9JwK-H_Azzpe-1">
          <mxGeometry x="710" y="250" width="20" height="30" as="geometry" />
        </mxCell>
      </root>
    </mxGraphModel>
  </diagram>
  <diagram name="CÃ³pia do CÃ³pia do CÃ³pia do CÃ³pia do PÃ¡gina-1" id="NguAzOyQKVkiGE7JrkSd">
    <mxGraphModel dx="2024" dy="834" grid="1" gridSize="10" guides="1" tooltips="1" connect="1" arrows="1" fold="1" page="1" pageScale="1" pageWidth="827" pageHeight="1169" math="0" shadow="0">
      <root>
        <mxCell id="Jnp8QlZ9ht1-b3fxU1vd-0" />
        <mxCell id="Jnp8QlZ9ht1-b3fxU1vd-1" parent="Jnp8QlZ9ht1-b3fxU1vd-0" />
        <mxCell id="Jnp8QlZ9ht1-b3fxU1vd-2" value="&lt;span style=&quot;color: rgb(51, 51, 51); font-family: -apple-system, BlinkMacSystemFont, &amp;quot;Segoe UI&amp;quot;, Roboto, &amp;quot;Helvetica Neue&amp;quot;, Arial, &amp;quot;Noto Sans&amp;quot;, &amp;quot;Liberation Sans&amp;quot;, sans-serif, &amp;quot;Apple Color Emoji&amp;quot;, &amp;quot;Segoe UI Emoji&amp;quot;, &amp;quot;Segoe UI Symbol&amp;quot;, &amp;quot;Noto Color Emoji&amp;quot;; font-style: normal; font-variant-ligatures: normal; font-variant-caps: normal; font-weight: 400; letter-spacing: normal; orphans: 2; text-align: left; text-indent: 0px; text-transform: none; widows: 2; word-spacing: 0px; -webkit-text-stroke-width: 0px; white-space: normal; background-color: rgb(255, 255, 255); text-decoration-thickness: initial; text-decoration-style: initial; text-decoration-color: initial; float: none; display: inline !important;&quot;&gt;&lt;font style=&quot;font-size: 16px;&quot;&gt;Inserir 61 24 42 32&amp;nbsp;&lt;/font&gt;&lt;/span&gt;" style="text;whiteSpace=wrap;html=1;" vertex="1" parent="Jnp8QlZ9ht1-b3fxU1vd-1">
          <mxGeometry x="120" y="40" width="250" height="40" as="geometry" />
        </mxCell>
        <mxCell id="Jnp8QlZ9ht1-b3fxU1vd-3" value="&lt;span style=&quot;color: rgb(51, 51, 51); font-family: -apple-system, BlinkMacSystemFont, &amp;quot;Segoe UI&amp;quot;, Roboto, &amp;quot;Helvetica Neue&amp;quot;, Arial, &amp;quot;Noto Sans&amp;quot;, &amp;quot;Liberation Sans&amp;quot;, sans-serif, &amp;quot;Apple Color Emoji&amp;quot;, &amp;quot;Segoe UI Emoji&amp;quot;, &amp;quot;Segoe UI Symbol&amp;quot;, &amp;quot;Noto Color Emoji&amp;quot;; font-style: normal; font-variant-ligatures: normal; font-variant-caps: normal; font-weight: 400; letter-spacing: normal; orphans: 2; text-align: left; text-indent: 0px; text-transform: none; widows: 2; word-spacing: 0px; -webkit-text-stroke-width: 0px; white-space: normal; background-color: rgb(255, 255, 255); text-decoration-thickness: initial; text-decoration-style: initial; text-decoration-color: initial; float: none; display: inline !important;&quot;&gt;&lt;font style=&quot;font-size: 16px;&quot;&gt;Tamanho 10&lt;/font&gt;&lt;/span&gt;" style="text;whiteSpace=wrap;html=1;" vertex="1" parent="Jnp8QlZ9ht1-b3fxU1vd-1">
          <mxGeometry x="570" y="40" width="100" height="40" as="geometry" />
        </mxCell>
        <mxCell id="Jnp8QlZ9ht1-b3fxU1vd-4" value="" style="rounded=0;whiteSpace=wrap;html=1;" vertex="1" parent="Jnp8QlZ9ht1-b3fxU1vd-1">
          <mxGeometry x="60" y="300" width="70" height="60" as="geometry" />
        </mxCell>
        <mxCell id="Jnp8QlZ9ht1-b3fxU1vd-5" value="21" style="rounded=0;whiteSpace=wrap;html=1;" vertex="1" parent="Jnp8QlZ9ht1-b3fxU1vd-1">
          <mxGeometry x="130" y="300" width="70" height="60" as="geometry" />
        </mxCell>
        <mxCell id="Jnp8QlZ9ht1-b3fxU1vd-6" value="12" style="rounded=0;whiteSpace=wrap;html=1;" vertex="1" parent="Jnp8QlZ9ht1-b3fxU1vd-1">
          <mxGeometry x="200" y="300" width="70" height="60" as="geometry" />
        </mxCell>
        <mxCell id="Jnp8QlZ9ht1-b3fxU1vd-7" value="61" style="rounded=0;whiteSpace=wrap;html=1;" vertex="1" parent="Jnp8QlZ9ht1-b3fxU1vd-1">
          <mxGeometry x="270" y="300" width="70" height="60" as="geometry" />
        </mxCell>
        <mxCell id="Jnp8QlZ9ht1-b3fxU1vd-8" value="14" style="rounded=0;whiteSpace=wrap;html=1;" vertex="1" parent="Jnp8QlZ9ht1-b3fxU1vd-1">
          <mxGeometry x="340" y="300" width="70" height="60" as="geometry" />
        </mxCell>
        <mxCell id="Jnp8QlZ9ht1-b3fxU1vd-9" value="74" style="rounded=0;whiteSpace=wrap;html=1;" vertex="1" parent="Jnp8QlZ9ht1-b3fxU1vd-1">
          <mxGeometry x="410" y="300" width="70" height="60" as="geometry" />
        </mxCell>
        <mxCell id="Jnp8QlZ9ht1-b3fxU1vd-10" value="" style="rounded=0;whiteSpace=wrap;html=1;" vertex="1" parent="Jnp8QlZ9ht1-b3fxU1vd-1">
          <mxGeometry x="480" y="300" width="70" height="60" as="geometry" />
        </mxCell>
        <mxCell id="Jnp8QlZ9ht1-b3fxU1vd-11" value="" style="rounded=0;whiteSpace=wrap;html=1;" vertex="1" parent="Jnp8QlZ9ht1-b3fxU1vd-1">
          <mxGeometry x="550" y="300" width="70" height="60" as="geometry" />
        </mxCell>
        <mxCell id="Jnp8QlZ9ht1-b3fxU1vd-12" value="" style="rounded=0;whiteSpace=wrap;html=1;" vertex="1" parent="Jnp8QlZ9ht1-b3fxU1vd-1">
          <mxGeometry x="620" y="300" width="70" height="60" as="geometry" />
        </mxCell>
        <mxCell id="Jnp8QlZ9ht1-b3fxU1vd-13" value="" style="rounded=0;whiteSpace=wrap;html=1;" vertex="1" parent="Jnp8QlZ9ht1-b3fxU1vd-1">
          <mxGeometry x="690" y="300" width="70" height="60" as="geometry" />
        </mxCell>
        <mxCell id="Jnp8QlZ9ht1-b3fxU1vd-14" value="&lt;span style=&quot;font-family: -apple-system, BlinkMacSystemFont, &amp;quot;Segoe UI&amp;quot;, Roboto, &amp;quot;Helvetica Neue&amp;quot;, Arial, &amp;quot;Noto Sans&amp;quot;, &amp;quot;Liberation Sans&amp;quot;, sans-serif, &amp;quot;Apple Color Emoji&amp;quot;, &amp;quot;Segoe UI Emoji&amp;quot;, &amp;quot;Segoe UI Symbol&amp;quot;, &amp;quot;Noto Color Emoji&amp;quot;; font-size: 16px; font-style: normal; font-variant-ligatures: normal; font-variant-caps: normal; font-weight: 400; letter-spacing: normal; orphans: 2; text-align: left; text-indent: 0px; text-transform: none; widows: 2; word-spacing: 0px; -webkit-text-stroke-width: 0px; white-space: normal; text-decoration-thickness: initial; text-decoration-style: initial; text-decoration-color: initial; float: none; display: inline !important;&quot;&gt;&lt;font style=&quot;color: light-dark(rgb(193, 193, 193), rgb(255, 255, 255));&quot;&gt;0&lt;/font&gt;&lt;/span&gt;" style="text;whiteSpace=wrap;html=1;" vertex="1" parent="Jnp8QlZ9ht1-b3fxU1vd-1">
          <mxGeometry x="85" y="250" width="20" height="30" as="geometry" />
        </mxCell>
        <mxCell id="Jnp8QlZ9ht1-b3fxU1vd-15" value="&lt;span style=&quot;font-family: -apple-system, BlinkMacSystemFont, &amp;quot;Segoe UI&amp;quot;, Roboto, &amp;quot;Helvetica Neue&amp;quot;, Arial, &amp;quot;Noto Sans&amp;quot;, &amp;quot;Liberation Sans&amp;quot;, sans-serif, &amp;quot;Apple Color Emoji&amp;quot;, &amp;quot;Segoe UI Emoji&amp;quot;, &amp;quot;Segoe UI Symbol&amp;quot;, &amp;quot;Noto Color Emoji&amp;quot;; font-size: 16px; font-style: normal; font-variant-ligatures: normal; font-variant-caps: normal; font-weight: 400; letter-spacing: normal; orphans: 2; text-align: left; text-indent: 0px; text-transform: none; widows: 2; word-spacing: 0px; -webkit-text-stroke-width: 0px; white-space: normal; text-decoration-thickness: initial; text-decoration-style: initial; text-decoration-color: initial; float: none; display: inline !important;&quot;&gt;&lt;font style=&quot;color: light-dark(rgb(193, 193, 193), rgb(255, 255, 255));&quot;&gt;1&lt;/font&gt;&lt;/span&gt;" style="text;whiteSpace=wrap;html=1;" vertex="1" parent="Jnp8QlZ9ht1-b3fxU1vd-1">
          <mxGeometry x="155" y="250" width="20" height="30" as="geometry" />
        </mxCell>
        <mxCell id="Jnp8QlZ9ht1-b3fxU1vd-16" value="&lt;span style=&quot;font-family: -apple-system, BlinkMacSystemFont, &amp;quot;Segoe UI&amp;quot;, Roboto, &amp;quot;Helvetica Neue&amp;quot;, Arial, &amp;quot;Noto Sans&amp;quot;, &amp;quot;Liberation Sans&amp;quot;, sans-serif, &amp;quot;Apple Color Emoji&amp;quot;, &amp;quot;Segoe UI Emoji&amp;quot;, &amp;quot;Segoe UI Symbol&amp;quot;, &amp;quot;Noto Color Emoji&amp;quot;; font-size: 16px; font-style: normal; font-variant-ligatures: normal; font-variant-caps: normal; font-weight: 400; letter-spacing: normal; orphans: 2; text-align: left; text-indent: 0px; text-transform: none; widows: 2; word-spacing: 0px; -webkit-text-stroke-width: 0px; white-space: normal; text-decoration-thickness: initial; text-decoration-style: initial; text-decoration-color: initial; float: none; display: inline !important;&quot;&gt;&lt;font style=&quot;color: light-dark(rgb(193, 193, 193), rgb(255, 255, 255));&quot;&gt;2&lt;/font&gt;&lt;/span&gt;" style="text;whiteSpace=wrap;html=1;" vertex="1" parent="Jnp8QlZ9ht1-b3fxU1vd-1">
          <mxGeometry x="225" y="250" width="20" height="30" as="geometry" />
        </mxCell>
        <mxCell id="Jnp8QlZ9ht1-b3fxU1vd-17" value="&lt;span style=&quot;font-family: -apple-system, BlinkMacSystemFont, &amp;quot;Segoe UI&amp;quot;, Roboto, &amp;quot;Helvetica Neue&amp;quot;, Arial, &amp;quot;Noto Sans&amp;quot;, &amp;quot;Liberation Sans&amp;quot;, sans-serif, &amp;quot;Apple Color Emoji&amp;quot;, &amp;quot;Segoe UI Emoji&amp;quot;, &amp;quot;Segoe UI Symbol&amp;quot;, &amp;quot;Noto Color Emoji&amp;quot;; font-size: 16px; font-style: normal; font-variant-ligatures: normal; font-variant-caps: normal; font-weight: 400; letter-spacing: normal; orphans: 2; text-align: left; text-indent: 0px; text-transform: none; widows: 2; word-spacing: 0px; -webkit-text-stroke-width: 0px; white-space: normal; text-decoration-thickness: initial; text-decoration-style: initial; text-decoration-color: initial; float: none; display: inline !important;&quot;&gt;&lt;font style=&quot;color: light-dark(rgb(193, 193, 193), rgb(255, 255, 255));&quot;&gt;3&lt;/font&gt;&lt;/span&gt;" style="text;whiteSpace=wrap;html=1;" vertex="1" parent="Jnp8QlZ9ht1-b3fxU1vd-1">
          <mxGeometry x="295" y="250" width="20" height="30" as="geometry" />
        </mxCell>
        <mxCell id="Jnp8QlZ9ht1-b3fxU1vd-18" value="&lt;span style=&quot;font-family: -apple-system, BlinkMacSystemFont, &amp;quot;Segoe UI&amp;quot;, Roboto, &amp;quot;Helvetica Neue&amp;quot;, Arial, &amp;quot;Noto Sans&amp;quot;, &amp;quot;Liberation Sans&amp;quot;, sans-serif, &amp;quot;Apple Color Emoji&amp;quot;, &amp;quot;Segoe UI Emoji&amp;quot;, &amp;quot;Segoe UI Symbol&amp;quot;, &amp;quot;Noto Color Emoji&amp;quot;; font-size: 16px; font-style: normal; font-variant-ligatures: normal; font-variant-caps: normal; font-weight: 400; letter-spacing: normal; orphans: 2; text-align: left; text-indent: 0px; text-transform: none; widows: 2; word-spacing: 0px; -webkit-text-stroke-width: 0px; white-space: normal; text-decoration-thickness: initial; text-decoration-style: initial; text-decoration-color: initial; float: none; display: inline !important;&quot;&gt;&lt;font style=&quot;color: light-dark(rgb(193, 193, 193), rgb(255, 255, 255));&quot;&gt;4&lt;/font&gt;&lt;/span&gt;" style="text;whiteSpace=wrap;html=1;" vertex="1" parent="Jnp8QlZ9ht1-b3fxU1vd-1">
          <mxGeometry x="365" y="250" width="20" height="30" as="geometry" />
        </mxCell>
        <mxCell id="Jnp8QlZ9ht1-b3fxU1vd-19" value="&lt;span style=&quot;font-family: -apple-system, BlinkMacSystemFont, &amp;quot;Segoe UI&amp;quot;, Roboto, &amp;quot;Helvetica Neue&amp;quot;, Arial, &amp;quot;Noto Sans&amp;quot;, &amp;quot;Liberation Sans&amp;quot;, sans-serif, &amp;quot;Apple Color Emoji&amp;quot;, &amp;quot;Segoe UI Emoji&amp;quot;, &amp;quot;Segoe UI Symbol&amp;quot;, &amp;quot;Noto Color Emoji&amp;quot;; font-size: 16px; font-style: normal; font-variant-ligatures: normal; font-variant-caps: normal; font-weight: 400; letter-spacing: normal; orphans: 2; text-align: left; text-indent: 0px; text-transform: none; widows: 2; word-spacing: 0px; -webkit-text-stroke-width: 0px; white-space: normal; text-decoration-thickness: initial; text-decoration-style: initial; text-decoration-color: initial; float: none; display: inline !important;&quot;&gt;&lt;font style=&quot;color: light-dark(rgb(193, 193, 193), rgb(255, 255, 255));&quot;&gt;5&lt;/font&gt;&lt;/span&gt;" style="text;whiteSpace=wrap;html=1;" vertex="1" parent="Jnp8QlZ9ht1-b3fxU1vd-1">
          <mxGeometry x="435" y="250" width="20" height="30" as="geometry" />
        </mxCell>
        <mxCell id="Jnp8QlZ9ht1-b3fxU1vd-20" value="&lt;span style=&quot;font-family: -apple-system, BlinkMacSystemFont, &amp;quot;Segoe UI&amp;quot;, Roboto, &amp;quot;Helvetica Neue&amp;quot;, Arial, &amp;quot;Noto Sans&amp;quot;, &amp;quot;Liberation Sans&amp;quot;, sans-serif, &amp;quot;Apple Color Emoji&amp;quot;, &amp;quot;Segoe UI Emoji&amp;quot;, &amp;quot;Segoe UI Symbol&amp;quot;, &amp;quot;Noto Color Emoji&amp;quot;; font-size: 16px; font-style: normal; font-variant-ligatures: normal; font-variant-caps: normal; font-weight: 400; letter-spacing: normal; orphans: 2; text-align: left; text-indent: 0px; text-transform: none; widows: 2; word-spacing: 0px; -webkit-text-stroke-width: 0px; white-space: normal; text-decoration-thickness: initial; text-decoration-style: initial; text-decoration-color: initial; float: none; display: inline !important;&quot;&gt;&lt;font style=&quot;color: light-dark(rgb(193, 193, 193), rgb(255, 255, 255));&quot;&gt;6&lt;/font&gt;&lt;/span&gt;" style="text;whiteSpace=wrap;html=1;" vertex="1" parent="Jnp8QlZ9ht1-b3fxU1vd-1">
          <mxGeometry x="505" y="250" width="20" height="30" as="geometry" />
        </mxCell>
        <mxCell id="Jnp8QlZ9ht1-b3fxU1vd-21" value="&lt;span style=&quot;font-family: -apple-system, BlinkMacSystemFont, &amp;quot;Segoe UI&amp;quot;, Roboto, &amp;quot;Helvetica Neue&amp;quot;, Arial, &amp;quot;Noto Sans&amp;quot;, &amp;quot;Liberation Sans&amp;quot;, sans-serif, &amp;quot;Apple Color Emoji&amp;quot;, &amp;quot;Segoe UI Emoji&amp;quot;, &amp;quot;Segoe UI Symbol&amp;quot;, &amp;quot;Noto Color Emoji&amp;quot;; font-size: 16px; font-style: normal; font-variant-ligatures: normal; font-variant-caps: normal; font-weight: 400; letter-spacing: normal; orphans: 2; text-align: left; text-indent: 0px; text-transform: none; widows: 2; word-spacing: 0px; -webkit-text-stroke-width: 0px; white-space: normal; text-decoration-thickness: initial; text-decoration-style: initial; text-decoration-color: initial; float: none; display: inline !important;&quot;&gt;&lt;font style=&quot;color: light-dark(rgb(193, 193, 193), rgb(255, 255, 255));&quot;&gt;7&lt;/font&gt;&lt;/span&gt;" style="text;whiteSpace=wrap;html=1;" vertex="1" parent="Jnp8QlZ9ht1-b3fxU1vd-1">
          <mxGeometry x="570" y="250" width="20" height="30" as="geometry" />
        </mxCell>
        <mxCell id="Jnp8QlZ9ht1-b3fxU1vd-22" value="&lt;span style=&quot;font-family: -apple-system, BlinkMacSystemFont, &amp;quot;Segoe UI&amp;quot;, Roboto, &amp;quot;Helvetica Neue&amp;quot;, Arial, &amp;quot;Noto Sans&amp;quot;, &amp;quot;Liberation Sans&amp;quot;, sans-serif, &amp;quot;Apple Color Emoji&amp;quot;, &amp;quot;Segoe UI Emoji&amp;quot;, &amp;quot;Segoe UI Symbol&amp;quot;, &amp;quot;Noto Color Emoji&amp;quot;; font-size: 16px; font-style: normal; font-variant-ligatures: normal; font-variant-caps: normal; font-weight: 400; letter-spacing: normal; orphans: 2; text-align: left; text-indent: 0px; text-transform: none; widows: 2; word-spacing: 0px; -webkit-text-stroke-width: 0px; white-space: normal; text-decoration-thickness: initial; text-decoration-style: initial; text-decoration-color: initial; float: none; display: inline !important;&quot;&gt;&lt;font style=&quot;color: light-dark(rgb(193, 193, 193), rgb(255, 255, 255));&quot;&gt;8&lt;/font&gt;&lt;/span&gt;" style="text;whiteSpace=wrap;html=1;" vertex="1" parent="Jnp8QlZ9ht1-b3fxU1vd-1">
          <mxGeometry x="640" y="250" width="20" height="30" as="geometry" />
        </mxCell>
        <mxCell id="Jnp8QlZ9ht1-b3fxU1vd-23" value="&lt;span style=&quot;font-family: -apple-system, BlinkMacSystemFont, &amp;quot;Segoe UI&amp;quot;, Roboto, &amp;quot;Helvetica Neue&amp;quot;, Arial, &amp;quot;Noto Sans&amp;quot;, &amp;quot;Liberation Sans&amp;quot;, sans-serif, &amp;quot;Apple Color Emoji&amp;quot;, &amp;quot;Segoe UI Emoji&amp;quot;, &amp;quot;Segoe UI Symbol&amp;quot;, &amp;quot;Noto Color Emoji&amp;quot;; font-size: 16px; font-style: normal; font-variant-ligatures: normal; font-variant-caps: normal; font-weight: 400; letter-spacing: normal; orphans: 2; text-align: left; text-indent: 0px; text-transform: none; widows: 2; word-spacing: 0px; -webkit-text-stroke-width: 0px; white-space: normal; text-decoration-thickness: initial; text-decoration-style: initial; text-decoration-color: initial; float: none; display: inline !important;&quot;&gt;&lt;font style=&quot;color: light-dark(rgb(193, 193, 193), rgb(255, 255, 255));&quot;&gt;9&lt;/font&gt;&lt;/span&gt;" style="text;whiteSpace=wrap;html=1;" vertex="1" parent="Jnp8QlZ9ht1-b3fxU1vd-1">
          <mxGeometry x="710" y="250" width="20" height="30" as="geometry" />
        </mxCell>
      </root>
    </mxGraphModel>
  </diagram>
  <diagram name="CÃ³pia do CÃ³pia do CÃ³pia do CÃ³pia do CÃ³pia do PÃ¡gina-1" id="nHyB3Cy_H9tS9kkbeKlL">
    <mxGraphModel dx="2024" dy="834" grid="1" gridSize="10" guides="1" tooltips="1" connect="1" arrows="1" fold="1" page="1" pageScale="1" pageWidth="827" pageHeight="1169" math="0" shadow="0">
      <root>
        <mxCell id="Ex7SC53F2OXjdfIWZYJE-0" />
        <mxCell id="Ex7SC53F2OXjdfIWZYJE-1" parent="Ex7SC53F2OXjdfIWZYJE-0" />
        <mxCell id="Ex7SC53F2OXjdfIWZYJE-2" value="&lt;span style=&quot;color: rgb(51, 51, 51); font-family: -apple-system, BlinkMacSystemFont, &amp;quot;Segoe UI&amp;quot;, Roboto, &amp;quot;Helvetica Neue&amp;quot;, Arial, &amp;quot;Noto Sans&amp;quot;, &amp;quot;Liberation Sans&amp;quot;, sans-serif, &amp;quot;Apple Color Emoji&amp;quot;, &amp;quot;Segoe UI Emoji&amp;quot;, &amp;quot;Segoe UI Symbol&amp;quot;, &amp;quot;Noto Color Emoji&amp;quot;; font-style: normal; font-variant-ligatures: normal; font-variant-caps: normal; font-weight: 400; letter-spacing: normal; orphans: 2; text-align: left; text-indent: 0px; text-transform: none; widows: 2; word-spacing: 0px; -webkit-text-stroke-width: 0px; white-space: normal; background-color: rgb(255, 255, 255); text-decoration-thickness: initial; text-decoration-style: initial; text-decoration-color: initial; float: none; display: inline !important;&quot;&gt;&lt;font style=&quot;font-size: 16px;&quot;&gt;Inserir 24 42 32&amp;nbsp;&lt;/font&gt;&lt;/span&gt;" style="text;whiteSpace=wrap;html=1;" vertex="1" parent="Ex7SC53F2OXjdfIWZYJE-1">
          <mxGeometry x="120" y="40" width="250" height="40" as="geometry" />
        </mxCell>
        <mxCell id="Ex7SC53F2OXjdfIWZYJE-3" value="&lt;span style=&quot;color: rgb(51, 51, 51); font-family: -apple-system, BlinkMacSystemFont, &amp;quot;Segoe UI&amp;quot;, Roboto, &amp;quot;Helvetica Neue&amp;quot;, Arial, &amp;quot;Noto Sans&amp;quot;, &amp;quot;Liberation Sans&amp;quot;, sans-serif, &amp;quot;Apple Color Emoji&amp;quot;, &amp;quot;Segoe UI Emoji&amp;quot;, &amp;quot;Segoe UI Symbol&amp;quot;, &amp;quot;Noto Color Emoji&amp;quot;; font-style: normal; font-variant-ligatures: normal; font-variant-caps: normal; font-weight: 400; letter-spacing: normal; orphans: 2; text-align: left; text-indent: 0px; text-transform: none; widows: 2; word-spacing: 0px; -webkit-text-stroke-width: 0px; white-space: normal; background-color: rgb(255, 255, 255); text-decoration-thickness: initial; text-decoration-style: initial; text-decoration-color: initial; float: none; display: inline !important;&quot;&gt;&lt;font style=&quot;font-size: 16px;&quot;&gt;Tamanho 10&lt;/font&gt;&lt;/span&gt;" style="text;whiteSpace=wrap;html=1;" vertex="1" parent="Ex7SC53F2OXjdfIWZYJE-1">
          <mxGeometry x="570" y="40" width="100" height="40" as="geometry" />
        </mxCell>
        <mxCell id="Ex7SC53F2OXjdfIWZYJE-4" value="" style="rounded=0;whiteSpace=wrap;html=1;" vertex="1" parent="Ex7SC53F2OXjdfIWZYJE-1">
          <mxGeometry x="60" y="300" width="70" height="60" as="geometry" />
        </mxCell>
        <mxCell id="Ex7SC53F2OXjdfIWZYJE-5" value="21" style="rounded=0;whiteSpace=wrap;html=1;" vertex="1" parent="Ex7SC53F2OXjdfIWZYJE-1">
          <mxGeometry x="130" y="300" width="70" height="60" as="geometry" />
        </mxCell>
        <mxCell id="Ex7SC53F2OXjdfIWZYJE-6" value="12" style="rounded=0;whiteSpace=wrap;html=1;" vertex="1" parent="Ex7SC53F2OXjdfIWZYJE-1">
          <mxGeometry x="200" y="300" width="70" height="60" as="geometry" />
        </mxCell>
        <mxCell id="Ex7SC53F2OXjdfIWZYJE-7" value="61" style="rounded=0;whiteSpace=wrap;html=1;" vertex="1" parent="Ex7SC53F2OXjdfIWZYJE-1">
          <mxGeometry x="270" y="300" width="70" height="60" as="geometry" />
        </mxCell>
        <mxCell id="Ex7SC53F2OXjdfIWZYJE-8" value="14" style="rounded=0;whiteSpace=wrap;html=1;" vertex="1" parent="Ex7SC53F2OXjdfIWZYJE-1">
          <mxGeometry x="340" y="300" width="70" height="60" as="geometry" />
        </mxCell>
        <mxCell id="Ex7SC53F2OXjdfIWZYJE-9" value="74" style="rounded=0;whiteSpace=wrap;html=1;" vertex="1" parent="Ex7SC53F2OXjdfIWZYJE-1">
          <mxGeometry x="410" y="300" width="70" height="60" as="geometry" />
        </mxCell>
        <mxCell id="Ex7SC53F2OXjdfIWZYJE-10" value="24" style="rounded=0;whiteSpace=wrap;html=1;" vertex="1" parent="Ex7SC53F2OXjdfIWZYJE-1">
          <mxGeometry x="480" y="300" width="70" height="60" as="geometry" />
        </mxCell>
        <mxCell id="Ex7SC53F2OXjdfIWZYJE-11" value="" style="rounded=0;whiteSpace=wrap;html=1;" vertex="1" parent="Ex7SC53F2OXjdfIWZYJE-1">
          <mxGeometry x="550" y="300" width="70" height="60" as="geometry" />
        </mxCell>
        <mxCell id="Ex7SC53F2OXjdfIWZYJE-12" value="" style="rounded=0;whiteSpace=wrap;html=1;" vertex="1" parent="Ex7SC53F2OXjdfIWZYJE-1">
          <mxGeometry x="620" y="300" width="70" height="60" as="geometry" />
        </mxCell>
        <mxCell id="Ex7SC53F2OXjdfIWZYJE-13" value="" style="rounded=0;whiteSpace=wrap;html=1;" vertex="1" parent="Ex7SC53F2OXjdfIWZYJE-1">
          <mxGeometry x="690" y="300" width="70" height="60" as="geometry" />
        </mxCell>
        <mxCell id="Ex7SC53F2OXjdfIWZYJE-14" value="&lt;span style=&quot;font-family: -apple-system, BlinkMacSystemFont, &amp;quot;Segoe UI&amp;quot;, Roboto, &amp;quot;Helvetica Neue&amp;quot;, Arial, &amp;quot;Noto Sans&amp;quot;, &amp;quot;Liberation Sans&amp;quot;, sans-serif, &amp;quot;Apple Color Emoji&amp;quot;, &amp;quot;Segoe UI Emoji&amp;quot;, &amp;quot;Segoe UI Symbol&amp;quot;, &amp;quot;Noto Color Emoji&amp;quot;; font-size: 16px; font-style: normal; font-variant-ligatures: normal; font-variant-caps: normal; font-weight: 400; letter-spacing: normal; orphans: 2; text-align: left; text-indent: 0px; text-transform: none; widows: 2; word-spacing: 0px; -webkit-text-stroke-width: 0px; white-space: normal; text-decoration-thickness: initial; text-decoration-style: initial; text-decoration-color: initial; float: none; display: inline !important;&quot;&gt;&lt;font style=&quot;color: light-dark(rgb(193, 193, 193), rgb(255, 255, 255));&quot;&gt;0&lt;/font&gt;&lt;/span&gt;" style="text;whiteSpace=wrap;html=1;" vertex="1" parent="Ex7SC53F2OXjdfIWZYJE-1">
          <mxGeometry x="85" y="250" width="20" height="30" as="geometry" />
        </mxCell>
        <mxCell id="Ex7SC53F2OXjdfIWZYJE-15" value="&lt;span style=&quot;font-family: -apple-system, BlinkMacSystemFont, &amp;quot;Segoe UI&amp;quot;, Roboto, &amp;quot;Helvetica Neue&amp;quot;, Arial, &amp;quot;Noto Sans&amp;quot;, &amp;quot;Liberation Sans&amp;quot;, sans-serif, &amp;quot;Apple Color Emoji&amp;quot;, &amp;quot;Segoe UI Emoji&amp;quot;, &amp;quot;Segoe UI Symbol&amp;quot;, &amp;quot;Noto Color Emoji&amp;quot;; font-size: 16px; font-style: normal; font-variant-ligatures: normal; font-variant-caps: normal; font-weight: 400; letter-spacing: normal; orphans: 2; text-align: left; text-indent: 0px; text-transform: none; widows: 2; word-spacing: 0px; -webkit-text-stroke-width: 0px; white-space: normal; text-decoration-thickness: initial; text-decoration-style: initial; text-decoration-color: initial; float: none; display: inline !important;&quot;&gt;&lt;font style=&quot;color: light-dark(rgb(193, 193, 193), rgb(255, 255, 255));&quot;&gt;1&lt;/font&gt;&lt;/span&gt;" style="text;whiteSpace=wrap;html=1;" vertex="1" parent="Ex7SC53F2OXjdfIWZYJE-1">
          <mxGeometry x="155" y="250" width="20" height="30" as="geometry" />
        </mxCell>
        <mxCell id="Ex7SC53F2OXjdfIWZYJE-16" value="&lt;span style=&quot;font-family: -apple-system, BlinkMacSystemFont, &amp;quot;Segoe UI&amp;quot;, Roboto, &amp;quot;Helvetica Neue&amp;quot;, Arial, &amp;quot;Noto Sans&amp;quot;, &amp;quot;Liberation Sans&amp;quot;, sans-serif, &amp;quot;Apple Color Emoji&amp;quot;, &amp;quot;Segoe UI Emoji&amp;quot;, &amp;quot;Segoe UI Symbol&amp;quot;, &amp;quot;Noto Color Emoji&amp;quot;; font-size: 16px; font-style: normal; font-variant-ligatures: normal; font-variant-caps: normal; font-weight: 400; letter-spacing: normal; orphans: 2; text-align: left; text-indent: 0px; text-transform: none; widows: 2; word-spacing: 0px; -webkit-text-stroke-width: 0px; white-space: normal; text-decoration-thickness: initial; text-decoration-style: initial; text-decoration-color: initial; float: none; display: inline !important;&quot;&gt;&lt;font style=&quot;color: light-dark(rgb(193, 193, 193), rgb(255, 255, 255));&quot;&gt;2&lt;/font&gt;&lt;/span&gt;" style="text;whiteSpace=wrap;html=1;" vertex="1" parent="Ex7SC53F2OXjdfIWZYJE-1">
          <mxGeometry x="225" y="250" width="20" height="30" as="geometry" />
        </mxCell>
        <mxCell id="Ex7SC53F2OXjdfIWZYJE-17" value="&lt;span style=&quot;font-family: -apple-system, BlinkMacSystemFont, &amp;quot;Segoe UI&amp;quot;, Roboto, &amp;quot;Helvetica Neue&amp;quot;, Arial, &amp;quot;Noto Sans&amp;quot;, &amp;quot;Liberation Sans&amp;quot;, sans-serif, &amp;quot;Apple Color Emoji&amp;quot;, &amp;quot;Segoe UI Emoji&amp;quot;, &amp;quot;Segoe UI Symbol&amp;quot;, &amp;quot;Noto Color Emoji&amp;quot;; font-size: 16px; font-style: normal; font-variant-ligatures: normal; font-variant-caps: normal; font-weight: 400; letter-spacing: normal; orphans: 2; text-align: left; text-indent: 0px; text-transform: none; widows: 2; word-spacing: 0px; -webkit-text-stroke-width: 0px; white-space: normal; text-decoration-thickness: initial; text-decoration-style: initial; text-decoration-color: initial; float: none; display: inline !important;&quot;&gt;&lt;font style=&quot;color: light-dark(rgb(193, 193, 193), rgb(255, 255, 255));&quot;&gt;3&lt;/font&gt;&lt;/span&gt;" style="text;whiteSpace=wrap;html=1;" vertex="1" parent="Ex7SC53F2OXjdfIWZYJE-1">
          <mxGeometry x="295" y="250" width="20" height="30" as="geometry" />
        </mxCell>
        <mxCell id="Ex7SC53F2OXjdfIWZYJE-18" value="&lt;span style=&quot;font-family: -apple-system, BlinkMacSystemFont, &amp;quot;Segoe UI&amp;quot;, Roboto, &amp;quot;Helvetica Neue&amp;quot;, Arial, &amp;quot;Noto Sans&amp;quot;, &amp;quot;Liberation Sans&amp;quot;, sans-serif, &amp;quot;Apple Color Emoji&amp;quot;, &amp;quot;Segoe UI Emoji&amp;quot;, &amp;quot;Segoe UI Symbol&amp;quot;, &amp;quot;Noto Color Emoji&amp;quot;; font-size: 16px; font-style: normal; font-variant-ligatures: normal; font-variant-caps: normal; font-weight: 400; letter-spacing: normal; orphans: 2; text-align: left; text-indent: 0px; text-transform: none; widows: 2; word-spacing: 0px; -webkit-text-stroke-width: 0px; white-space: normal; text-decoration-thickness: initial; text-decoration-style: initial; text-decoration-color: initial; float: none; display: inline !important;&quot;&gt;&lt;font style=&quot;color: light-dark(rgb(193, 193, 193), rgb(255, 255, 255));&quot;&gt;4&lt;/font&gt;&lt;/span&gt;" style="text;whiteSpace=wrap;html=1;" vertex="1" parent="Ex7SC53F2OXjdfIWZYJE-1">
          <mxGeometry x="365" y="250" width="20" height="30" as="geometry" />
        </mxCell>
        <mxCell id="Ex7SC53F2OXjdfIWZYJE-19" value="&lt;span style=&quot;font-family: -apple-system, BlinkMacSystemFont, &amp;quot;Segoe UI&amp;quot;, Roboto, &amp;quot;Helvetica Neue&amp;quot;, Arial, &amp;quot;Noto Sans&amp;quot;, &amp;quot;Liberation Sans&amp;quot;, sans-serif, &amp;quot;Apple Color Emoji&amp;quot;, &amp;quot;Segoe UI Emoji&amp;quot;, &amp;quot;Segoe UI Symbol&amp;quot;, &amp;quot;Noto Color Emoji&amp;quot;; font-size: 16px; font-style: normal; font-variant-ligatures: normal; font-variant-caps: normal; font-weight: 400; letter-spacing: normal; orphans: 2; text-align: left; text-indent: 0px; text-transform: none; widows: 2; word-spacing: 0px; -webkit-text-stroke-width: 0px; white-space: normal; text-decoration-thickness: initial; text-decoration-style: initial; text-decoration-color: initial; float: none; display: inline !important;&quot;&gt;&lt;font style=&quot;color: light-dark(rgb(193, 193, 193), rgb(255, 255, 255));&quot;&gt;5&lt;/font&gt;&lt;/span&gt;" style="text;whiteSpace=wrap;html=1;" vertex="1" parent="Ex7SC53F2OXjdfIWZYJE-1">
          <mxGeometry x="435" y="250" width="20" height="30" as="geometry" />
        </mxCell>
        <mxCell id="Ex7SC53F2OXjdfIWZYJE-20" value="&lt;span style=&quot;font-family: -apple-system, BlinkMacSystemFont, &amp;quot;Segoe UI&amp;quot;, Roboto, &amp;quot;Helvetica Neue&amp;quot;, Arial, &amp;quot;Noto Sans&amp;quot;, &amp;quot;Liberation Sans&amp;quot;, sans-serif, &amp;quot;Apple Color Emoji&amp;quot;, &amp;quot;Segoe UI Emoji&amp;quot;, &amp;quot;Segoe UI Symbol&amp;quot;, &amp;quot;Noto Color Emoji&amp;quot;; font-size: 16px; font-style: normal; font-variant-ligatures: normal; font-variant-caps: normal; font-weight: 400; letter-spacing: normal; orphans: 2; text-align: left; text-indent: 0px; text-transform: none; widows: 2; word-spacing: 0px; -webkit-text-stroke-width: 0px; white-space: normal; text-decoration-thickness: initial; text-decoration-style: initial; text-decoration-color: initial; float: none; display: inline !important;&quot;&gt;&lt;font style=&quot;color: light-dark(rgb(193, 193, 193), rgb(255, 255, 255));&quot;&gt;6&lt;/font&gt;&lt;/span&gt;" style="text;whiteSpace=wrap;html=1;" vertex="1" parent="Ex7SC53F2OXjdfIWZYJE-1">
          <mxGeometry x="505" y="250" width="20" height="30" as="geometry" />
        </mxCell>
        <mxCell id="Ex7SC53F2OXjdfIWZYJE-21" value="&lt;span style=&quot;font-family: -apple-system, BlinkMacSystemFont, &amp;quot;Segoe UI&amp;quot;, Roboto, &amp;quot;Helvetica Neue&amp;quot;, Arial, &amp;quot;Noto Sans&amp;quot;, &amp;quot;Liberation Sans&amp;quot;, sans-serif, &amp;quot;Apple Color Emoji&amp;quot;, &amp;quot;Segoe UI Emoji&amp;quot;, &amp;quot;Segoe UI Symbol&amp;quot;, &amp;quot;Noto Color Emoji&amp;quot;; font-size: 16px; font-style: normal; font-variant-ligatures: normal; font-variant-caps: normal; font-weight: 400; letter-spacing: normal; orphans: 2; text-align: left; text-indent: 0px; text-transform: none; widows: 2; word-spacing: 0px; -webkit-text-stroke-width: 0px; white-space: normal; text-decoration-thickness: initial; text-decoration-style: initial; text-decoration-color: initial; float: none; display: inline !important;&quot;&gt;&lt;font style=&quot;color: light-dark(rgb(193, 193, 193), rgb(255, 255, 255));&quot;&gt;7&lt;/font&gt;&lt;/span&gt;" style="text;whiteSpace=wrap;html=1;" vertex="1" parent="Ex7SC53F2OXjdfIWZYJE-1">
          <mxGeometry x="570" y="250" width="20" height="30" as="geometry" />
        </mxCell>
        <mxCell id="Ex7SC53F2OXjdfIWZYJE-22" value="&lt;span style=&quot;font-family: -apple-system, BlinkMacSystemFont, &amp;quot;Segoe UI&amp;quot;, Roboto, &amp;quot;Helvetica Neue&amp;quot;, Arial, &amp;quot;Noto Sans&amp;quot;, &amp;quot;Liberation Sans&amp;quot;, sans-serif, &amp;quot;Apple Color Emoji&amp;quot;, &amp;quot;Segoe UI Emoji&amp;quot;, &amp;quot;Segoe UI Symbol&amp;quot;, &amp;quot;Noto Color Emoji&amp;quot;; font-size: 16px; font-style: normal; font-variant-ligatures: normal; font-variant-caps: normal; font-weight: 400; letter-spacing: normal; orphans: 2; text-align: left; text-indent: 0px; text-transform: none; widows: 2; word-spacing: 0px; -webkit-text-stroke-width: 0px; white-space: normal; text-decoration-thickness: initial; text-decoration-style: initial; text-decoration-color: initial; float: none; display: inline !important;&quot;&gt;&lt;font style=&quot;color: light-dark(rgb(193, 193, 193), rgb(255, 255, 255));&quot;&gt;8&lt;/font&gt;&lt;/span&gt;" style="text;whiteSpace=wrap;html=1;" vertex="1" parent="Ex7SC53F2OXjdfIWZYJE-1">
          <mxGeometry x="640" y="250" width="20" height="30" as="geometry" />
        </mxCell>
        <mxCell id="Ex7SC53F2OXjdfIWZYJE-23" value="&lt;span style=&quot;font-family: -apple-system, BlinkMacSystemFont, &amp;quot;Segoe UI&amp;quot;, Roboto, &amp;quot;Helvetica Neue&amp;quot;, Arial, &amp;quot;Noto Sans&amp;quot;, &amp;quot;Liberation Sans&amp;quot;, sans-serif, &amp;quot;Apple Color Emoji&amp;quot;, &amp;quot;Segoe UI Emoji&amp;quot;, &amp;quot;Segoe UI Symbol&amp;quot;, &amp;quot;Noto Color Emoji&amp;quot;; font-size: 16px; font-style: normal; font-variant-ligatures: normal; font-variant-caps: normal; font-weight: 400; letter-spacing: normal; orphans: 2; text-align: left; text-indent: 0px; text-transform: none; widows: 2; word-spacing: 0px; -webkit-text-stroke-width: 0px; white-space: normal; text-decoration-thickness: initial; text-decoration-style: initial; text-decoration-color: initial; float: none; display: inline !important;&quot;&gt;&lt;font style=&quot;color: light-dark(rgb(193, 193, 193), rgb(255, 255, 255));&quot;&gt;9&lt;/font&gt;&lt;/span&gt;" style="text;whiteSpace=wrap;html=1;" vertex="1" parent="Ex7SC53F2OXjdfIWZYJE-1">
          <mxGeometry x="710" y="250" width="20" height="30" as="geometry" />
        </mxCell>
      </root>
    </mxGraphModel>
  </diagram>
  <diagram name="CÃ³pia do CÃ³pia do CÃ³pia do CÃ³pia do CÃ³pia do CÃ³pia do PÃ¡gina-1" id="Nngl6IEE1DfsVmKnBJTJ">
    <mxGraphModel dx="2024" dy="834" grid="1" gridSize="10" guides="1" tooltips="1" connect="1" arrows="1" fold="1" page="1" pageScale="1" pageWidth="827" pageHeight="1169" math="0" shadow="0">
      <root>
        <mxCell id="qE30QkaUTCeM1UBuMmLa-0" />
        <mxCell id="qE30QkaUTCeM1UBuMmLa-1" parent="qE30QkaUTCeM1UBuMmLa-0" />
        <mxCell id="qE30QkaUTCeM1UBuMmLa-2" value="&lt;span style=&quot;color: rgb(51, 51, 51); font-family: -apple-system, BlinkMacSystemFont, &amp;quot;Segoe UI&amp;quot;, Roboto, &amp;quot;Helvetica Neue&amp;quot;, Arial, &amp;quot;Noto Sans&amp;quot;, &amp;quot;Liberation Sans&amp;quot;, sans-serif, &amp;quot;Apple Color Emoji&amp;quot;, &amp;quot;Segoe UI Emoji&amp;quot;, &amp;quot;Segoe UI Symbol&amp;quot;, &amp;quot;Noto Color Emoji&amp;quot;; font-style: normal; font-variant-ligatures: normal; font-variant-caps: normal; font-weight: 400; letter-spacing: normal; orphans: 2; text-align: left; text-indent: 0px; text-transform: none; widows: 2; word-spacing: 0px; -webkit-text-stroke-width: 0px; white-space: normal; background-color: rgb(255, 255, 255); text-decoration-thickness: initial; text-decoration-style: initial; text-decoration-color: initial; float: none; display: inline !important;&quot;&gt;&lt;font style=&quot;font-size: 16px;&quot;&gt;Inserir 42 32&amp;nbsp;&lt;/font&gt;&lt;/span&gt;" style="text;whiteSpace=wrap;html=1;" vertex="1" parent="qE30QkaUTCeM1UBuMmLa-1">
          <mxGeometry x="120" y="40" width="250" height="40" as="geometry" />
        </mxCell>
        <mxCell id="qE30QkaUTCeM1UBuMmLa-3" value="&lt;span style=&quot;color: rgb(51, 51, 51); font-family: -apple-system, BlinkMacSystemFont, &amp;quot;Segoe UI&amp;quot;, Roboto, &amp;quot;Helvetica Neue&amp;quot;, Arial, &amp;quot;Noto Sans&amp;quot;, &amp;quot;Liberation Sans&amp;quot;, sans-serif, &amp;quot;Apple Color Emoji&amp;quot;, &amp;quot;Segoe UI Emoji&amp;quot;, &amp;quot;Segoe UI Symbol&amp;quot;, &amp;quot;Noto Color Emoji&amp;quot;; font-style: normal; font-variant-ligatures: normal; font-variant-caps: normal; font-weight: 400; letter-spacing: normal; orphans: 2; text-align: left; text-indent: 0px; text-transform: none; widows: 2; word-spacing: 0px; -webkit-text-stroke-width: 0px; white-space: normal; background-color: rgb(255, 255, 255); text-decoration-thickness: initial; text-decoration-style: initial; text-decoration-color: initial; float: none; display: inline !important;&quot;&gt;&lt;font style=&quot;font-size: 16px;&quot;&gt;Tamanho 10&lt;/font&gt;&lt;/span&gt;" style="text;whiteSpace=wrap;html=1;" vertex="1" parent="qE30QkaUTCeM1UBuMmLa-1">
          <mxGeometry x="570" y="40" width="100" height="40" as="geometry" />
        </mxCell>
        <mxCell id="qE30QkaUTCeM1UBuMmLa-4" value="" style="rounded=0;whiteSpace=wrap;html=1;" vertex="1" parent="qE30QkaUTCeM1UBuMmLa-1">
          <mxGeometry x="60" y="300" width="70" height="60" as="geometry" />
        </mxCell>
        <mxCell id="qE30QkaUTCeM1UBuMmLa-5" value="21" style="rounded=0;whiteSpace=wrap;html=1;" vertex="1" parent="qE30QkaUTCeM1UBuMmLa-1">
          <mxGeometry x="130" y="300" width="70" height="60" as="geometry" />
        </mxCell>
        <mxCell id="qE30QkaUTCeM1UBuMmLa-6" value="12" style="rounded=0;whiteSpace=wrap;html=1;" vertex="1" parent="qE30QkaUTCeM1UBuMmLa-1">
          <mxGeometry x="200" y="300" width="70" height="60" as="geometry" />
        </mxCell>
        <mxCell id="qE30QkaUTCeM1UBuMmLa-7" value="61" style="rounded=0;whiteSpace=wrap;html=1;" vertex="1" parent="qE30QkaUTCeM1UBuMmLa-1">
          <mxGeometry x="270" y="300" width="70" height="60" as="geometry" />
        </mxCell>
        <mxCell id="qE30QkaUTCeM1UBuMmLa-8" value="14" style="rounded=0;whiteSpace=wrap;html=1;" vertex="1" parent="qE30QkaUTCeM1UBuMmLa-1">
          <mxGeometry x="340" y="300" width="70" height="60" as="geometry" />
        </mxCell>
        <mxCell id="qE30QkaUTCeM1UBuMmLa-9" value="74" style="rounded=0;whiteSpace=wrap;html=1;" vertex="1" parent="qE30QkaUTCeM1UBuMmLa-1">
          <mxGeometry x="410" y="300" width="70" height="60" as="geometry" />
        </mxCell>
        <mxCell id="qE30QkaUTCeM1UBuMmLa-10" value="24" style="rounded=0;whiteSpace=wrap;html=1;" vertex="1" parent="qE30QkaUTCeM1UBuMmLa-1">
          <mxGeometry x="480" y="300" width="70" height="60" as="geometry" />
        </mxCell>
        <mxCell id="qE30QkaUTCeM1UBuMmLa-11" value="42" style="rounded=0;whiteSpace=wrap;html=1;" vertex="1" parent="qE30QkaUTCeM1UBuMmLa-1">
          <mxGeometry x="550" y="300" width="70" height="60" as="geometry" />
        </mxCell>
        <mxCell id="qE30QkaUTCeM1UBuMmLa-12" value="" style="rounded=0;whiteSpace=wrap;html=1;" vertex="1" parent="qE30QkaUTCeM1UBuMmLa-1">
          <mxGeometry x="620" y="300" width="70" height="60" as="geometry" />
        </mxCell>
        <mxCell id="qE30QkaUTCeM1UBuMmLa-13" value="" style="rounded=0;whiteSpace=wrap;html=1;" vertex="1" parent="qE30QkaUTCeM1UBuMmLa-1">
          <mxGeometry x="690" y="300" width="70" height="60" as="geometry" />
        </mxCell>
        <mxCell id="qE30QkaUTCeM1UBuMmLa-14" value="&lt;span style=&quot;font-family: -apple-system, BlinkMacSystemFont, &amp;quot;Segoe UI&amp;quot;, Roboto, &amp;quot;Helvetica Neue&amp;quot;, Arial, &amp;quot;Noto Sans&amp;quot;, &amp;quot;Liberation Sans&amp;quot;, sans-serif, &amp;quot;Apple Color Emoji&amp;quot;, &amp;quot;Segoe UI Emoji&amp;quot;, &amp;quot;Segoe UI Symbol&amp;quot;, &amp;quot;Noto Color Emoji&amp;quot;; font-size: 16px; font-style: normal; font-variant-ligatures: normal; font-variant-caps: normal; font-weight: 400; letter-spacing: normal; orphans: 2; text-align: left; text-indent: 0px; text-transform: none; widows: 2; word-spacing: 0px; -webkit-text-stroke-width: 0px; white-space: normal; text-decoration-thickness: initial; text-decoration-style: initial; text-decoration-color: initial; float: none; display: inline !important;&quot;&gt;&lt;font style=&quot;color: light-dark(rgb(193, 193, 193), rgb(255, 255, 255));&quot;&gt;0&lt;/font&gt;&lt;/span&gt;" style="text;whiteSpace=wrap;html=1;" vertex="1" parent="qE30QkaUTCeM1UBuMmLa-1">
          <mxGeometry x="85" y="250" width="20" height="30" as="geometry" />
        </mxCell>
        <mxCell id="qE30QkaUTCeM1UBuMmLa-15" value="&lt;span style=&quot;font-family: -apple-system, BlinkMacSystemFont, &amp;quot;Segoe UI&amp;quot;, Roboto, &amp;quot;Helvetica Neue&amp;quot;, Arial, &amp;quot;Noto Sans&amp;quot;, &amp;quot;Liberation Sans&amp;quot;, sans-serif, &amp;quot;Apple Color Emoji&amp;quot;, &amp;quot;Segoe UI Emoji&amp;quot;, &amp;quot;Segoe UI Symbol&amp;quot;, &amp;quot;Noto Color Emoji&amp;quot;; font-size: 16px; font-style: normal; font-variant-ligatures: normal; font-variant-caps: normal; font-weight: 400; letter-spacing: normal; orphans: 2; text-align: left; text-indent: 0px; text-transform: none; widows: 2; word-spacing: 0px; -webkit-text-stroke-width: 0px; white-space: normal; text-decoration-thickness: initial; text-decoration-style: initial; text-decoration-color: initial; float: none; display: inline !important;&quot;&gt;&lt;font style=&quot;color: light-dark(rgb(193, 193, 193), rgb(255, 255, 255));&quot;&gt;1&lt;/font&gt;&lt;/span&gt;" style="text;whiteSpace=wrap;html=1;" vertex="1" parent="qE30QkaUTCeM1UBuMmLa-1">
          <mxGeometry x="155" y="250" width="20" height="30" as="geometry" />
        </mxCell>
        <mxCell id="qE30QkaUTCeM1UBuMmLa-16" value="&lt;span style=&quot;font-family: -apple-system, BlinkMacSystemFont, &amp;quot;Segoe UI&amp;quot;, Roboto, &amp;quot;Helvetica Neue&amp;quot;, Arial, &amp;quot;Noto Sans&amp;quot;, &amp;quot;Liberation Sans&amp;quot;, sans-serif, &amp;quot;Apple Color Emoji&amp;quot;, &amp;quot;Segoe UI Emoji&amp;quot;, &amp;quot;Segoe UI Symbol&amp;quot;, &amp;quot;Noto Color Emoji&amp;quot;; font-size: 16px; font-style: normal; font-variant-ligatures: normal; font-variant-caps: normal; font-weight: 400; letter-spacing: normal; orphans: 2; text-align: left; text-indent: 0px; text-transform: none; widows: 2; word-spacing: 0px; -webkit-text-stroke-width: 0px; white-space: normal; text-decoration-thickness: initial; text-decoration-style: initial; text-decoration-color: initial; float: none; display: inline !important;&quot;&gt;&lt;font style=&quot;color: light-dark(rgb(193, 193, 193), rgb(255, 255, 255));&quot;&gt;2&lt;/font&gt;&lt;/span&gt;" style="text;whiteSpace=wrap;html=1;" vertex="1" parent="qE30QkaUTCeM1UBuMmLa-1">
          <mxGeometry x="225" y="250" width="20" height="30" as="geometry" />
        </mxCell>
        <mxCell id="qE30QkaUTCeM1UBuMmLa-17" value="&lt;span style=&quot;font-family: -apple-system, BlinkMacSystemFont, &amp;quot;Segoe UI&amp;quot;, Roboto, &amp;quot;Helvetica Neue&amp;quot;, Arial, &amp;quot;Noto Sans&amp;quot;, &amp;quot;Liberation Sans&amp;quot;, sans-serif, &amp;quot;Apple Color Emoji&amp;quot;, &amp;quot;Segoe UI Emoji&amp;quot;, &amp;quot;Segoe UI Symbol&amp;quot;, &amp;quot;Noto Color Emoji&amp;quot;; font-size: 16px; font-style: normal; font-variant-ligatures: normal; font-variant-caps: normal; font-weight: 400; letter-spacing: normal; orphans: 2; text-align: left; text-indent: 0px; text-transform: none; widows: 2; word-spacing: 0px; -webkit-text-stroke-width: 0px; white-space: normal; text-decoration-thickness: initial; text-decoration-style: initial; text-decoration-color: initial; float: none; display: inline !important;&quot;&gt;&lt;font style=&quot;color: light-dark(rgb(193, 193, 193), rgb(255, 255, 255));&quot;&gt;3&lt;/font&gt;&lt;/span&gt;" style="text;whiteSpace=wrap;html=1;" vertex="1" parent="qE30QkaUTCeM1UBuMmLa-1">
          <mxGeometry x="295" y="250" width="20" height="30" as="geometry" />
        </mxCell>
        <mxCell id="qE30QkaUTCeM1UBuMmLa-18" value="&lt;span style=&quot;font-family: -apple-system, BlinkMacSystemFont, &amp;quot;Segoe UI&amp;quot;, Roboto, &amp;quot;Helvetica Neue&amp;quot;, Arial, &amp;quot;Noto Sans&amp;quot;, &amp;quot;Liberation Sans&amp;quot;, sans-serif, &amp;quot;Apple Color Emoji&amp;quot;, &amp;quot;Segoe UI Emoji&amp;quot;, &amp;quot;Segoe UI Symbol&amp;quot;, &amp;quot;Noto Color Emoji&amp;quot;; font-size: 16px; font-style: normal; font-variant-ligatures: normal; font-variant-caps: normal; font-weight: 400; letter-spacing: normal; orphans: 2; text-align: left; text-indent: 0px; text-transform: none; widows: 2; word-spacing: 0px; -webkit-text-stroke-width: 0px; white-space: normal; text-decoration-thickness: initial; text-decoration-style: initial; text-decoration-color: initial; float: none; display: inline !important;&quot;&gt;&lt;font style=&quot;color: light-dark(rgb(193, 193, 193), rgb(255, 255, 255));&quot;&gt;4&lt;/font&gt;&lt;/span&gt;" style="text;whiteSpace=wrap;html=1;" vertex="1" parent="qE30QkaUTCeM1UBuMmLa-1">
          <mxGeometry x="365" y="250" width="20" height="30" as="geometry" />
        </mxCell>
        <mxCell id="qE30QkaUTCeM1UBuMmLa-19" value="&lt;span style=&quot;font-family: -apple-system, BlinkMacSystemFont, &amp;quot;Segoe UI&amp;quot;, Roboto, &amp;quot;Helvetica Neue&amp;quot;, Arial, &amp;quot;Noto Sans&amp;quot;, &amp;quot;Liberation Sans&amp;quot;, sans-serif, &amp;quot;Apple Color Emoji&amp;quot;, &amp;quot;Segoe UI Emoji&amp;quot;, &amp;quot;Segoe UI Symbol&amp;quot;, &amp;quot;Noto Color Emoji&amp;quot;; font-size: 16px; font-style: normal; font-variant-ligatures: normal; font-variant-caps: normal; font-weight: 400; letter-spacing: normal; orphans: 2; text-align: left; text-indent: 0px; text-transform: none; widows: 2; word-spacing: 0px; -webkit-text-stroke-width: 0px; white-space: normal; text-decoration-thickness: initial; text-decoration-style: initial; text-decoration-color: initial; float: none; display: inline !important;&quot;&gt;&lt;font style=&quot;color: light-dark(rgb(193, 193, 193), rgb(255, 255, 255));&quot;&gt;5&lt;/font&gt;&lt;/span&gt;" style="text;whiteSpace=wrap;html=1;" vertex="1" parent="qE30QkaUTCeM1UBuMmLa-1">
          <mxGeometry x="435" y="250" width="20" height="30" as="geometry" />
        </mxCell>
        <mxCell id="qE30QkaUTCeM1UBuMmLa-20" value="&lt;span style=&quot;font-family: -apple-system, BlinkMacSystemFont, &amp;quot;Segoe UI&amp;quot;, Roboto, &amp;quot;Helvetica Neue&amp;quot;, Arial, &amp;quot;Noto Sans&amp;quot;, &amp;quot;Liberation Sans&amp;quot;, sans-serif, &amp;quot;Apple Color Emoji&amp;quot;, &amp;quot;Segoe UI Emoji&amp;quot;, &amp;quot;Segoe UI Symbol&amp;quot;, &amp;quot;Noto Color Emoji&amp;quot;; font-size: 16px; font-style: normal; font-variant-ligatures: normal; font-variant-caps: normal; font-weight: 400; letter-spacing: normal; orphans: 2; text-align: left; text-indent: 0px; text-transform: none; widows: 2; word-spacing: 0px; -webkit-text-stroke-width: 0px; white-space: normal; text-decoration-thickness: initial; text-decoration-style: initial; text-decoration-color: initial; float: none; display: inline !important;&quot;&gt;&lt;font style=&quot;color: light-dark(rgb(193, 193, 193), rgb(255, 255, 255));&quot;&gt;6&lt;/font&gt;&lt;/span&gt;" style="text;whiteSpace=wrap;html=1;" vertex="1" parent="qE30QkaUTCeM1UBuMmLa-1">
          <mxGeometry x="505" y="250" width="20" height="30" as="geometry" />
        </mxCell>
        <mxCell id="qE30QkaUTCeM1UBuMmLa-21" value="&lt;span style=&quot;font-family: -apple-system, BlinkMacSystemFont, &amp;quot;Segoe UI&amp;quot;, Roboto, &amp;quot;Helvetica Neue&amp;quot;, Arial, &amp;quot;Noto Sans&amp;quot;, &amp;quot;Liberation Sans&amp;quot;, sans-serif, &amp;quot;Apple Color Emoji&amp;quot;, &amp;quot;Segoe UI Emoji&amp;quot;, &amp;quot;Segoe UI Symbol&amp;quot;, &amp;quot;Noto Color Emoji&amp;quot;; font-size: 16px; font-style: normal; font-variant-ligatures: normal; font-variant-caps: normal; font-weight: 400; letter-spacing: normal; orphans: 2; text-align: left; text-indent: 0px; text-transform: none; widows: 2; word-spacing: 0px; -webkit-text-stroke-width: 0px; white-space: normal; text-decoration-thickness: initial; text-decoration-style: initial; text-decoration-color: initial; float: none; display: inline !important;&quot;&gt;&lt;font style=&quot;color: light-dark(rgb(193, 193, 193), rgb(255, 255, 255));&quot;&gt;7&lt;/font&gt;&lt;/span&gt;" style="text;whiteSpace=wrap;html=1;" vertex="1" parent="qE30QkaUTCeM1UBuMmLa-1">
          <mxGeometry x="570" y="250" width="20" height="30" as="geometry" />
        </mxCell>
        <mxCell id="qE30QkaUTCeM1UBuMmLa-22" value="&lt;span style=&quot;font-family: -apple-system, BlinkMacSystemFont, &amp;quot;Segoe UI&amp;quot;, Roboto, &amp;quot;Helvetica Neue&amp;quot;, Arial, &amp;quot;Noto Sans&amp;quot;, &amp;quot;Liberation Sans&amp;quot;, sans-serif, &amp;quot;Apple Color Emoji&amp;quot;, &amp;quot;Segoe UI Emoji&amp;quot;, &amp;quot;Segoe UI Symbol&amp;quot;, &amp;quot;Noto Color Emoji&amp;quot;; font-size: 16px; font-style: normal; font-variant-ligatures: normal; font-variant-caps: normal; font-weight: 400; letter-spacing: normal; orphans: 2; text-align: left; text-indent: 0px; text-transform: none; widows: 2; word-spacing: 0px; -webkit-text-stroke-width: 0px; white-space: normal; text-decoration-thickness: initial; text-decoration-style: initial; text-decoration-color: initial; float: none; display: inline !important;&quot;&gt;&lt;font style=&quot;color: light-dark(rgb(193, 193, 193), rgb(255, 255, 255));&quot;&gt;8&lt;/font&gt;&lt;/span&gt;" style="text;whiteSpace=wrap;html=1;" vertex="1" parent="qE30QkaUTCeM1UBuMmLa-1">
          <mxGeometry x="640" y="250" width="20" height="30" as="geometry" />
        </mxCell>
        <mxCell id="qE30QkaUTCeM1UBuMmLa-23" value="&lt;span style=&quot;font-family: -apple-system, BlinkMacSystemFont, &amp;quot;Segoe UI&amp;quot;, Roboto, &amp;quot;Helvetica Neue&amp;quot;, Arial, &amp;quot;Noto Sans&amp;quot;, &amp;quot;Liberation Sans&amp;quot;, sans-serif, &amp;quot;Apple Color Emoji&amp;quot;, &amp;quot;Segoe UI Emoji&amp;quot;, &amp;quot;Segoe UI Symbol&amp;quot;, &amp;quot;Noto Color Emoji&amp;quot;; font-size: 16px; font-style: normal; font-variant-ligatures: normal; font-variant-caps: normal; font-weight: 400; letter-spacing: normal; orphans: 2; text-align: left; text-indent: 0px; text-transform: none; widows: 2; word-spacing: 0px; -webkit-text-stroke-width: 0px; white-space: normal; text-decoration-thickness: initial; text-decoration-style: initial; text-decoration-color: initial; float: none; display: inline !important;&quot;&gt;&lt;font style=&quot;color: light-dark(rgb(193, 193, 193), rgb(255, 255, 255));&quot;&gt;9&lt;/font&gt;&lt;/span&gt;" style="text;whiteSpace=wrap;html=1;" vertex="1" parent="qE30QkaUTCeM1UBuMmLa-1">
          <mxGeometry x="710" y="250" width="20" height="30" as="geometry" />
        </mxCell>
      </root>
    </mxGraphModel>
  </diagram>
  <diagram name="CÃ³pia do CÃ³pia do CÃ³pia do CÃ³pia do CÃ³pia do CÃ³pia do CÃ³pia do PÃ¡gina-1" id="czYqOvEyJmEpAfzRAmGn">
    <mxGraphModel dx="2024" dy="834" grid="1" gridSize="10" guides="1" tooltips="1" connect="1" arrows="1" fold="1" page="1" pageScale="1" pageWidth="827" pageHeight="1169" math="0" shadow="0">
      <root>
        <mxCell id="dkCQYwV0HhbK4kQydzO7-0" />
        <mxCell id="dkCQYwV0HhbK4kQydzO7-1" parent="dkCQYwV0HhbK4kQydzO7-0" />
        <mxCell id="dkCQYwV0HhbK4kQydzO7-2" value="&lt;span style=&quot;color: rgb(51, 51, 51); font-family: -apple-system, BlinkMacSystemFont, &amp;quot;Segoe UI&amp;quot;, Roboto, &amp;quot;Helvetica Neue&amp;quot;, Arial, &amp;quot;Noto Sans&amp;quot;, &amp;quot;Liberation Sans&amp;quot;, sans-serif, &amp;quot;Apple Color Emoji&amp;quot;, &amp;quot;Segoe UI Emoji&amp;quot;, &amp;quot;Segoe UI Symbol&amp;quot;, &amp;quot;Noto Color Emoji&amp;quot;; font-style: normal; font-variant-ligatures: normal; font-variant-caps: normal; font-weight: 400; letter-spacing: normal; orphans: 2; text-align: left; text-indent: 0px; text-transform: none; widows: 2; word-spacing: 0px; -webkit-text-stroke-width: 0px; white-space: normal; background-color: rgb(255, 255, 255); text-decoration-thickness: initial; text-decoration-style: initial; text-decoration-color: initial; float: none; display: inline !important;&quot;&gt;&lt;font style=&quot;font-size: 16px;&quot;&gt;Inserir 32&amp;nbsp;&lt;/font&gt;&lt;/span&gt;" style="text;whiteSpace=wrap;html=1;" vertex="1" parent="dkCQYwV0HhbK4kQydzO7-1">
          <mxGeometry x="120" y="40" width="250" height="40" as="geometry" />
        </mxCell>
        <mxCell id="dkCQYwV0HhbK4kQydzO7-3" value="&lt;span style=&quot;color: rgb(51, 51, 51); font-family: -apple-system, BlinkMacSystemFont, &amp;quot;Segoe UI&amp;quot;, Roboto, &amp;quot;Helvetica Neue&amp;quot;, Arial, &amp;quot;Noto Sans&amp;quot;, &amp;quot;Liberation Sans&amp;quot;, sans-serif, &amp;quot;Apple Color Emoji&amp;quot;, &amp;quot;Segoe UI Emoji&amp;quot;, &amp;quot;Segoe UI Symbol&amp;quot;, &amp;quot;Noto Color Emoji&amp;quot;; font-style: normal; font-variant-ligatures: normal; font-variant-caps: normal; font-weight: 400; letter-spacing: normal; orphans: 2; text-align: left; text-indent: 0px; text-transform: none; widows: 2; word-spacing: 0px; -webkit-text-stroke-width: 0px; white-space: normal; background-color: rgb(255, 255, 255); text-decoration-thickness: initial; text-decoration-style: initial; text-decoration-color: initial; float: none; display: inline !important;&quot;&gt;&lt;font style=&quot;font-size: 16px;&quot;&gt;Tamanho 10&lt;/font&gt;&lt;/span&gt;" style="text;whiteSpace=wrap;html=1;" vertex="1" parent="dkCQYwV0HhbK4kQydzO7-1">
          <mxGeometry x="570" y="40" width="100" height="40" as="geometry" />
        </mxCell>
        <mxCell id="dkCQYwV0HhbK4kQydzO7-4" value="" style="rounded=0;whiteSpace=wrap;html=1;" vertex="1" parent="dkCQYwV0HhbK4kQydzO7-1">
          <mxGeometry x="60" y="300" width="70" height="60" as="geometry" />
        </mxCell>
        <mxCell id="dkCQYwV0HhbK4kQydzO7-5" value="21" style="rounded=0;whiteSpace=wrap;html=1;" vertex="1" parent="dkCQYwV0HhbK4kQydzO7-1">
          <mxGeometry x="130" y="300" width="70" height="60" as="geometry" />
        </mxCell>
        <mxCell id="dkCQYwV0HhbK4kQydzO7-6" value="12" style="rounded=0;whiteSpace=wrap;html=1;" vertex="1" parent="dkCQYwV0HhbK4kQydzO7-1">
          <mxGeometry x="200" y="300" width="70" height="60" as="geometry" />
        </mxCell>
        <mxCell id="dkCQYwV0HhbK4kQydzO7-7" value="61" style="rounded=0;whiteSpace=wrap;html=1;" vertex="1" parent="dkCQYwV0HhbK4kQydzO7-1">
          <mxGeometry x="270" y="300" width="70" height="60" as="geometry" />
        </mxCell>
        <mxCell id="dkCQYwV0HhbK4kQydzO7-8" value="14" style="rounded=0;whiteSpace=wrap;html=1;" vertex="1" parent="dkCQYwV0HhbK4kQydzO7-1">
          <mxGeometry x="340" y="300" width="70" height="60" as="geometry" />
        </mxCell>
        <mxCell id="dkCQYwV0HhbK4kQydzO7-9" value="74" style="rounded=0;whiteSpace=wrap;html=1;" vertex="1" parent="dkCQYwV0HhbK4kQydzO7-1">
          <mxGeometry x="410" y="300" width="70" height="60" as="geometry" />
        </mxCell>
        <mxCell id="dkCQYwV0HhbK4kQydzO7-10" value="24" style="rounded=0;whiteSpace=wrap;html=1;" vertex="1" parent="dkCQYwV0HhbK4kQydzO7-1">
          <mxGeometry x="480" y="300" width="70" height="60" as="geometry" />
        </mxCell>
        <mxCell id="dkCQYwV0HhbK4kQydzO7-11" value="42" style="rounded=0;whiteSpace=wrap;html=1;" vertex="1" parent="dkCQYwV0HhbK4kQydzO7-1">
          <mxGeometry x="550" y="300" width="70" height="60" as="geometry" />
        </mxCell>
        <mxCell id="dkCQYwV0HhbK4kQydzO7-12" value="32" style="rounded=0;whiteSpace=wrap;html=1;" vertex="1" parent="dkCQYwV0HhbK4kQydzO7-1">
          <mxGeometry x="620" y="300" width="70" height="60" as="geometry" />
        </mxCell>
        <mxCell id="dkCQYwV0HhbK4kQydzO7-13" value="" style="rounded=0;whiteSpace=wrap;html=1;" vertex="1" parent="dkCQYwV0HhbK4kQydzO7-1">
          <mxGeometry x="690" y="300" width="70" height="60" as="geometry" />
        </mxCell>
        <mxCell id="dkCQYwV0HhbK4kQydzO7-14" value="&lt;span style=&quot;font-family: -apple-system, BlinkMacSystemFont, &amp;quot;Segoe UI&amp;quot;, Roboto, &amp;quot;Helvetica Neue&amp;quot;, Arial, &amp;quot;Noto Sans&amp;quot;, &amp;quot;Liberation Sans&amp;quot;, sans-serif, &amp;quot;Apple Color Emoji&amp;quot;, &amp;quot;Segoe UI Emoji&amp;quot;, &amp;quot;Segoe UI Symbol&amp;quot;, &amp;quot;Noto Color Emoji&amp;quot;; font-size: 16px; font-style: normal; font-variant-ligatures: normal; font-variant-caps: normal; font-weight: 400; letter-spacing: normal; orphans: 2; text-align: left; text-indent: 0px; text-transform: none; widows: 2; word-spacing: 0px; -webkit-text-stroke-width: 0px; white-space: normal; text-decoration-thickness: initial; text-decoration-style: initial; text-decoration-color: initial; float: none; display: inline !important;&quot;&gt;&lt;font style=&quot;color: light-dark(rgb(193, 193, 193), rgb(255, 255, 255));&quot;&gt;0&lt;/font&gt;&lt;/span&gt;" style="text;whiteSpace=wrap;html=1;" vertex="1" parent="dkCQYwV0HhbK4kQydzO7-1">
          <mxGeometry x="85" y="250" width="20" height="30" as="geometry" />
        </mxCell>
        <mxCell id="dkCQYwV0HhbK4kQydzO7-15" value="&lt;span style=&quot;font-family: -apple-system, BlinkMacSystemFont, &amp;quot;Segoe UI&amp;quot;, Roboto, &amp;quot;Helvetica Neue&amp;quot;, Arial, &amp;quot;Noto Sans&amp;quot;, &amp;quot;Liberation Sans&amp;quot;, sans-serif, &amp;quot;Apple Color Emoji&amp;quot;, &amp;quot;Segoe UI Emoji&amp;quot;, &amp;quot;Segoe UI Symbol&amp;quot;, &amp;quot;Noto Color Emoji&amp;quot;; font-size: 16px; font-style: normal; font-variant-ligatures: normal; font-variant-caps: normal; font-weight: 400; letter-spacing: normal; orphans: 2; text-align: left; text-indent: 0px; text-transform: none; widows: 2; word-spacing: 0px; -webkit-text-stroke-width: 0px; white-space: normal; text-decoration-thickness: initial; text-decoration-style: initial; text-decoration-color: initial; float: none; display: inline !important;&quot;&gt;&lt;font style=&quot;color: light-dark(rgb(193, 193, 193), rgb(255, 255, 255));&quot;&gt;1&lt;/font&gt;&lt;/span&gt;" style="text;whiteSpace=wrap;html=1;" vertex="1" parent="dkCQYwV0HhbK4kQydzO7-1">
          <mxGeometry x="155" y="250" width="20" height="30" as="geometry" />
        </mxCell>
        <mxCell id="dkCQYwV0HhbK4kQydzO7-16" value="&lt;span style=&quot;font-family: -apple-system, BlinkMacSystemFont, &amp;quot;Segoe UI&amp;quot;, Roboto, &amp;quot;Helvetica Neue&amp;quot;, Arial, &amp;quot;Noto Sans&amp;quot;, &amp;quot;Liberation Sans&amp;quot;, sans-serif, &amp;quot;Apple Color Emoji&amp;quot;, &amp;quot;Segoe UI Emoji&amp;quot;, &amp;quot;Segoe UI Symbol&amp;quot;, &amp;quot;Noto Color Emoji&amp;quot;; font-size: 16px; font-style: normal; font-variant-ligatures: normal; font-variant-caps: normal; font-weight: 400; letter-spacing: normal; orphans: 2; text-align: left; text-indent: 0px; text-transform: none; widows: 2; word-spacing: 0px; -webkit-text-stroke-width: 0px; white-space: normal; text-decoration-thickness: initial; text-decoration-style: initial; text-decoration-color: initial; float: none; display: inline !important;&quot;&gt;&lt;font style=&quot;color: light-dark(rgb(193, 193, 193), rgb(255, 255, 255));&quot;&gt;2&lt;/font&gt;&lt;/span&gt;" style="text;whiteSpace=wrap;html=1;" vertex="1" parent="dkCQYwV0HhbK4kQydzO7-1">
          <mxGeometry x="225" y="250" width="20" height="30" as="geometry" />
        </mxCell>
        <mxCell id="dkCQYwV0HhbK4kQydzO7-17" value="&lt;span style=&quot;font-family: -apple-system, BlinkMacSystemFont, &amp;quot;Segoe UI&amp;quot;, Roboto, &amp;quot;Helvetica Neue&amp;quot;, Arial, &amp;quot;Noto Sans&amp;quot;, &amp;quot;Liberation Sans&amp;quot;, sans-serif, &amp;quot;Apple Color Emoji&amp;quot;, &amp;quot;Segoe UI Emoji&amp;quot;, &amp;quot;Segoe UI Symbol&amp;quot;, &amp;quot;Noto Color Emoji&amp;quot;; font-size: 16px; font-style: normal; font-variant-ligatures: normal; font-variant-caps: normal; font-weight: 400; letter-spacing: normal; orphans: 2; text-align: left; text-indent: 0px; text-transform: none; widows: 2; word-spacing: 0px; -webkit-text-stroke-width: 0px; white-space: normal; text-decoration-thickness: initial; text-decoration-style: initial; text-decoration-color: initial; float: none; display: inline !important;&quot;&gt;&lt;font style=&quot;color: light-dark(rgb(193, 193, 193), rgb(255, 255, 255));&quot;&gt;3&lt;/font&gt;&lt;/span&gt;" style="text;whiteSpace=wrap;html=1;" vertex="1" parent="dkCQYwV0HhbK4kQydzO7-1">
          <mxGeometry x="295" y="250" width="20" height="30" as="geometry" />
        </mxCell>
        <mxCell id="dkCQYwV0HhbK4kQydzO7-18" value="&lt;span style=&quot;font-family: -apple-system, BlinkMacSystemFont, &amp;quot;Segoe UI&amp;quot;, Roboto, &amp;quot;Helvetica Neue&amp;quot;, Arial, &amp;quot;Noto Sans&amp;quot;, &amp;quot;Liberation Sans&amp;quot;, sans-serif, &amp;quot;Apple Color Emoji&amp;quot;, &amp;quot;Segoe UI Emoji&amp;quot;, &amp;quot;Segoe UI Symbol&amp;quot;, &amp;quot;Noto Color Emoji&amp;quot;; font-size: 16px; font-style: normal; font-variant-ligatures: normal; font-variant-caps: normal; font-weight: 400; letter-spacing: normal; orphans: 2; text-align: left; text-indent: 0px; text-transform: none; widows: 2; word-spacing: 0px; -webkit-text-stroke-width: 0px; white-space: normal; text-decoration-thickness: initial; text-decoration-style: initial; text-decoration-color: initial; float: none; display: inline !important;&quot;&gt;&lt;font style=&quot;color: light-dark(rgb(193, 193, 193), rgb(255, 255, 255));&quot;&gt;4&lt;/font&gt;&lt;/span&gt;" style="text;whiteSpace=wrap;html=1;" vertex="1" parent="dkCQYwV0HhbK4kQydzO7-1">
          <mxGeometry x="365" y="250" width="20" height="30" as="geometry" />
        </mxCell>
        <mxCell id="dkCQYwV0HhbK4kQydzO7-19" value="&lt;span style=&quot;font-family: -apple-system, BlinkMacSystemFont, &amp;quot;Segoe UI&amp;quot;, Roboto, &amp;quot;Helvetica Neue&amp;quot;, Arial, &amp;quot;Noto Sans&amp;quot;, &amp;quot;Liberation Sans&amp;quot;, sans-serif, &amp;quot;Apple Color Emoji&amp;quot;, &amp;quot;Segoe UI Emoji&amp;quot;, &amp;quot;Segoe UI Symbol&amp;quot;, &amp;quot;Noto Color Emoji&amp;quot;; font-size: 16px; font-style: normal; font-variant-ligatures: normal; font-variant-caps: normal; font-weight: 400; letter-spacing: normal; orphans: 2; text-align: left; text-indent: 0px; text-transform: none; widows: 2; word-spacing: 0px; -webkit-text-stroke-width: 0px; white-space: normal; text-decoration-thickness: initial; text-decoration-style: initial; text-decoration-color: initial; float: none; display: inline !important;&quot;&gt;&lt;font style=&quot;color: light-dark(rgb(193, 193, 193), rgb(255, 255, 255));&quot;&gt;5&lt;/font&gt;&lt;/span&gt;" style="text;whiteSpace=wrap;html=1;" vertex="1" parent="dkCQYwV0HhbK4kQydzO7-1">
          <mxGeometry x="435" y="250" width="20" height="30" as="geometry" />
        </mxCell>
        <mxCell id="dkCQYwV0HhbK4kQydzO7-20" value="&lt;span style=&quot;font-family: -apple-system, BlinkMacSystemFont, &amp;quot;Segoe UI&amp;quot;, Roboto, &amp;quot;Helvetica Neue&amp;quot;, Arial, &amp;quot;Noto Sans&amp;quot;, &amp;quot;Liberation Sans&amp;quot;, sans-serif, &amp;quot;Apple Color Emoji&amp;quot;, &amp;quot;Segoe UI Emoji&amp;quot;, &amp;quot;Segoe UI Symbol&amp;quot;, &amp;quot;Noto Color Emoji&amp;quot;; font-size: 16px; font-style: normal; font-variant-ligatures: normal; font-variant-caps: normal; font-weight: 400; letter-spacing: normal; orphans: 2; text-align: left; text-indent: 0px; text-transform: none; widows: 2; word-spacing: 0px; -webkit-text-stroke-width: 0px; white-space: normal; text-decoration-thickness: initial; text-decoration-style: initial; text-decoration-color: initial; float: none; display: inline !important;&quot;&gt;&lt;font style=&quot;color: light-dark(rgb(193, 193, 193), rgb(255, 255, 255));&quot;&gt;6&lt;/font&gt;&lt;/span&gt;" style="text;whiteSpace=wrap;html=1;" vertex="1" parent="dkCQYwV0HhbK4kQydzO7-1">
          <mxGeometry x="505" y="250" width="20" height="30" as="geometry" />
        </mxCell>
        <mxCell id="dkCQYwV0HhbK4kQydzO7-21" value="&lt;span style=&quot;font-family: -apple-system, BlinkMacSystemFont, &amp;quot;Segoe UI&amp;quot;, Roboto, &amp;quot;Helvetica Neue&amp;quot;, Arial, &amp;quot;Noto Sans&amp;quot;, &amp;quot;Liberation Sans&amp;quot;, sans-serif, &amp;quot;Apple Color Emoji&amp;quot;, &amp;quot;Segoe UI Emoji&amp;quot;, &amp;quot;Segoe UI Symbol&amp;quot;, &amp;quot;Noto Color Emoji&amp;quot;; font-size: 16px; font-style: normal; font-variant-ligatures: normal; font-variant-caps: normal; font-weight: 400; letter-spacing: normal; orphans: 2; text-align: left; text-indent: 0px; text-transform: none; widows: 2; word-spacing: 0px; -webkit-text-stroke-width: 0px; white-space: normal; text-decoration-thickness: initial; text-decoration-style: initial; text-decoration-color: initial; float: none; display: inline !important;&quot;&gt;&lt;font style=&quot;color: light-dark(rgb(193, 193, 193), rgb(255, 255, 255));&quot;&gt;7&lt;/font&gt;&lt;/span&gt;" style="text;whiteSpace=wrap;html=1;" vertex="1" parent="dkCQYwV0HhbK4kQydzO7-1">
          <mxGeometry x="570" y="250" width="20" height="30" as="geometry" />
        </mxCell>
        <mxCell id="dkCQYwV0HhbK4kQydzO7-22" value="&lt;span style=&quot;font-family: -apple-system, BlinkMacSystemFont, &amp;quot;Segoe UI&amp;quot;, Roboto, &amp;quot;Helvetica Neue&amp;quot;, Arial, &amp;quot;Noto Sans&amp;quot;, &amp;quot;Liberation Sans&amp;quot;, sans-serif, &amp;quot;Apple Color Emoji&amp;quot;, &amp;quot;Segoe UI Emoji&amp;quot;, &amp;quot;Segoe UI Symbol&amp;quot;, &amp;quot;Noto Color Emoji&amp;quot;; font-size: 16px; font-style: normal; font-variant-ligatures: normal; font-variant-caps: normal; font-weight: 400; letter-spacing: normal; orphans: 2; text-align: left; text-indent: 0px; text-transform: none; widows: 2; word-spacing: 0px; -webkit-text-stroke-width: 0px; white-space: normal; text-decoration-thickness: initial; text-decoration-style: initial; text-decoration-color: initial; float: none; display: inline !important;&quot;&gt;&lt;font style=&quot;color: light-dark(rgb(193, 193, 193), rgb(255, 255, 255));&quot;&gt;8&lt;/font&gt;&lt;/span&gt;" style="text;whiteSpace=wrap;html=1;" vertex="1" parent="dkCQYwV0HhbK4kQydzO7-1">
          <mxGeometry x="640" y="250" width="20" height="30" as="geometry" />
        </mxCell>
        <mxCell id="dkCQYwV0HhbK4kQydzO7-23" value="&lt;span style=&quot;font-family: -apple-system, BlinkMacSystemFont, &amp;quot;Segoe UI&amp;quot;, Roboto, &amp;quot;Helvetica Neue&amp;quot;, Arial, &amp;quot;Noto Sans&amp;quot;, &amp;quot;Liberation Sans&amp;quot;, sans-serif, &amp;quot;Apple Color Emoji&amp;quot;, &amp;quot;Segoe UI Emoji&amp;quot;, &amp;quot;Segoe UI Symbol&amp;quot;, &amp;quot;Noto Color Emoji&amp;quot;; font-size: 16px; font-style: normal; font-variant-ligatures: normal; font-variant-caps: normal; font-weight: 400; letter-spacing: normal; orphans: 2; text-align: left; text-indent: 0px; text-transform: none; widows: 2; word-spacing: 0px; -webkit-text-stroke-width: 0px; white-space: normal; text-decoration-thickness: initial; text-decoration-style: initial; text-decoration-color: initial; float: none; display: inline !important;&quot;&gt;&lt;font style=&quot;color: light-dark(rgb(193, 193, 193), rgb(255, 255, 255));&quot;&gt;9&lt;/font&gt;&lt;/span&gt;" style="text;whiteSpace=wrap;html=1;" vertex="1" parent="dkCQYwV0HhbK4kQydzO7-1">
          <mxGeometry x="710" y="250" width="20" height="30" as="geometry" />
        </mxCell>
      </root>
    </mxGraphModel>
  </diagram>
  <diagram name="CÃ³pia do CÃ³pia do CÃ³pia do CÃ³pia do CÃ³pia do CÃ³pia do CÃ³pia do CÃ³pia do PÃ¡gina-1" id="4IpxuoPnbsB_1rH0EKm-">
    <mxGraphModel dx="2024" dy="834" grid="1" gridSize="10" guides="1" tooltips="1" connect="1" arrows="1" fold="1" page="1" pageScale="1" pageWidth="827" pageHeight="1169" math="0" shadow="0">
      <root>
        <mxCell id="_o8mccfwwADU7bJuC04m-0" />
        <mxCell id="_o8mccfwwADU7bJuC04m-1" parent="_o8mccfwwADU7bJuC04m-0" />
        <mxCell id="_o8mccfwwADU7bJuC04m-2" value="&lt;span style=&quot;color: rgb(51, 51, 51); font-family: -apple-system, BlinkMacSystemFont, &amp;quot;Segoe UI&amp;quot;, Roboto, &amp;quot;Helvetica Neue&amp;quot;, Arial, &amp;quot;Noto Sans&amp;quot;, &amp;quot;Liberation Sans&amp;quot;, sans-serif, &amp;quot;Apple Color Emoji&amp;quot;, &amp;quot;Segoe UI Emoji&amp;quot;, &amp;quot;Segoe UI Symbol&amp;quot;, &amp;quot;Noto Color Emoji&amp;quot;; font-style: normal; font-variant-ligatures: normal; font-variant-caps: normal; font-weight: 400; letter-spacing: normal; orphans: 2; text-align: left; text-indent: 0px; text-transform: none; widows: 2; word-spacing: 0px; -webkit-text-stroke-width: 0px; white-space: normal; background-color: rgb(255, 255, 255); text-decoration-thickness: initial; text-decoration-style: initial; text-decoration-color: initial; float: none; display: inline !important;&quot;&gt;&lt;font style=&quot;font-size: 16px;&quot;&gt;Remover 74 e 12&lt;/font&gt;&lt;/span&gt;" style="text;whiteSpace=wrap;html=1;" vertex="1" parent="_o8mccfwwADU7bJuC04m-1">
          <mxGeometry x="120" y="40" width="250" height="40" as="geometry" />
        </mxCell>
        <mxCell id="_o8mccfwwADU7bJuC04m-3" value="&lt;span style=&quot;color: rgb(51, 51, 51); font-family: -apple-system, BlinkMacSystemFont, &amp;quot;Segoe UI&amp;quot;, Roboto, &amp;quot;Helvetica Neue&amp;quot;, Arial, &amp;quot;Noto Sans&amp;quot;, &amp;quot;Liberation Sans&amp;quot;, sans-serif, &amp;quot;Apple Color Emoji&amp;quot;, &amp;quot;Segoe UI Emoji&amp;quot;, &amp;quot;Segoe UI Symbol&amp;quot;, &amp;quot;Noto Color Emoji&amp;quot;; font-style: normal; font-variant-ligatures: normal; font-variant-caps: normal; font-weight: 400; letter-spacing: normal; orphans: 2; text-align: left; text-indent: 0px; text-transform: none; widows: 2; word-spacing: 0px; -webkit-text-stroke-width: 0px; white-space: normal; background-color: rgb(255, 255, 255); text-decoration-thickness: initial; text-decoration-style: initial; text-decoration-color: initial; float: none; display: inline !important;&quot;&gt;&lt;font style=&quot;font-size: 16px;&quot;&gt;Tamanho 10&lt;/font&gt;&lt;/span&gt;" style="text;whiteSpace=wrap;html=1;" vertex="1" parent="_o8mccfwwADU7bJuC04m-1">
          <mxGeometry x="570" y="40" width="100" height="40" as="geometry" />
        </mxCell>
        <mxCell id="_o8mccfwwADU7bJuC04m-4" value="" style="rounded=0;whiteSpace=wrap;html=1;" vertex="1" parent="_o8mccfwwADU7bJuC04m-1">
          <mxGeometry x="60" y="300" width="70" height="60" as="geometry" />
        </mxCell>
        <mxCell id="_o8mccfwwADU7bJuC04m-5" value="21" style="rounded=0;whiteSpace=wrap;html=1;" vertex="1" parent="_o8mccfwwADU7bJuC04m-1">
          <mxGeometry x="130" y="300" width="70" height="60" as="geometry" />
        </mxCell>
        <mxCell id="_o8mccfwwADU7bJuC04m-6" value="12" style="rounded=0;whiteSpace=wrap;html=1;" vertex="1" parent="_o8mccfwwADU7bJuC04m-1">
          <mxGeometry x="200" y="300" width="70" height="60" as="geometry" />
        </mxCell>
        <mxCell id="_o8mccfwwADU7bJuC04m-7" value="61" style="rounded=0;whiteSpace=wrap;html=1;" vertex="1" parent="_o8mccfwwADU7bJuC04m-1">
          <mxGeometry x="270" y="300" width="70" height="60" as="geometry" />
        </mxCell>
        <mxCell id="_o8mccfwwADU7bJuC04m-8" value="14" style="rounded=0;whiteSpace=wrap;html=1;" vertex="1" parent="_o8mccfwwADU7bJuC04m-1">
          <mxGeometry x="340" y="300" width="70" height="60" as="geometry" />
        </mxCell>
        <mxCell id="_o8mccfwwADU7bJuC04m-9" value="24" style="rounded=0;whiteSpace=wrap;html=1;" vertex="1" parent="_o8mccfwwADU7bJuC04m-1">
          <mxGeometry x="410" y="300" width="70" height="60" as="geometry" />
        </mxCell>
        <mxCell id="_o8mccfwwADU7bJuC04m-10" value="42" style="rounded=0;whiteSpace=wrap;html=1;" vertex="1" parent="_o8mccfwwADU7bJuC04m-1">
          <mxGeometry x="480" y="300" width="70" height="60" as="geometry" />
        </mxCell>
        <mxCell id="_o8mccfwwADU7bJuC04m-11" value="32" style="rounded=0;whiteSpace=wrap;html=1;" vertex="1" parent="_o8mccfwwADU7bJuC04m-1">
          <mxGeometry x="550" y="300" width="70" height="60" as="geometry" />
        </mxCell>
        <mxCell id="_o8mccfwwADU7bJuC04m-12" value="&amp;nbsp;" style="rounded=0;whiteSpace=wrap;html=1;" vertex="1" parent="_o8mccfwwADU7bJuC04m-1">
          <mxGeometry x="620" y="300" width="70" height="60" as="geometry" />
        </mxCell>
        <mxCell id="_o8mccfwwADU7bJuC04m-13" value="" style="rounded=0;whiteSpace=wrap;html=1;" vertex="1" parent="_o8mccfwwADU7bJuC04m-1">
          <mxGeometry x="690" y="300" width="70" height="60" as="geometry" />
        </mxCell>
        <mxCell id="_o8mccfwwADU7bJuC04m-14" value="&lt;span style=&quot;font-family: -apple-system, BlinkMacSystemFont, &amp;quot;Segoe UI&amp;quot;, Roboto, &amp;quot;Helvetica Neue&amp;quot;, Arial, &amp;quot;Noto Sans&amp;quot;, &amp;quot;Liberation Sans&amp;quot;, sans-serif, &amp;quot;Apple Color Emoji&amp;quot;, &amp;quot;Segoe UI Emoji&amp;quot;, &amp;quot;Segoe UI Symbol&amp;quot;, &amp;quot;Noto Color Emoji&amp;quot;; font-size: 16px; font-style: normal; font-variant-ligatures: normal; font-variant-caps: normal; font-weight: 400; letter-spacing: normal; orphans: 2; text-align: left; text-indent: 0px; text-transform: none; widows: 2; word-spacing: 0px; -webkit-text-stroke-width: 0px; white-space: normal; text-decoration-thickness: initial; text-decoration-style: initial; text-decoration-color: initial; float: none; display: inline !important;&quot;&gt;&lt;font style=&quot;color: light-dark(rgb(193, 193, 193), rgb(255, 255, 255));&quot;&gt;0&lt;/font&gt;&lt;/span&gt;" style="text;whiteSpace=wrap;html=1;" vertex="1" parent="_o8mccfwwADU7bJuC04m-1">
          <mxGeometry x="85" y="250" width="20" height="30" as="geometry" />
        </mxCell>
        <mxCell id="_o8mccfwwADU7bJuC04m-15" value="&lt;span style=&quot;font-family: -apple-system, BlinkMacSystemFont, &amp;quot;Segoe UI&amp;quot;, Roboto, &amp;quot;Helvetica Neue&amp;quot;, Arial, &amp;quot;Noto Sans&amp;quot;, &amp;quot;Liberation Sans&amp;quot;, sans-serif, &amp;quot;Apple Color Emoji&amp;quot;, &amp;quot;Segoe UI Emoji&amp;quot;, &amp;quot;Segoe UI Symbol&amp;quot;, &amp;quot;Noto Color Emoji&amp;quot;; font-size: 16px; font-style: normal; font-variant-ligatures: normal; font-variant-caps: normal; font-weight: 400; letter-spacing: normal; orphans: 2; text-align: left; text-indent: 0px; text-transform: none; widows: 2; word-spacing: 0px; -webkit-text-stroke-width: 0px; white-space: normal; text-decoration-thickness: initial; text-decoration-style: initial; text-decoration-color: initial; float: none; display: inline !important;&quot;&gt;&lt;font style=&quot;color: light-dark(rgb(193, 193, 193), rgb(255, 255, 255));&quot;&gt;1&lt;/font&gt;&lt;/span&gt;" style="text;whiteSpace=wrap;html=1;" vertex="1" parent="_o8mccfwwADU7bJuC04m-1">
          <mxGeometry x="155" y="250" width="20" height="30" as="geometry" />
        </mxCell>
        <mxCell id="_o8mccfwwADU7bJuC04m-16" value="&lt;span style=&quot;font-family: -apple-system, BlinkMacSystemFont, &amp;quot;Segoe UI&amp;quot;, Roboto, &amp;quot;Helvetica Neue&amp;quot;, Arial, &amp;quot;Noto Sans&amp;quot;, &amp;quot;Liberation Sans&amp;quot;, sans-serif, &amp;quot;Apple Color Emoji&amp;quot;, &amp;quot;Segoe UI Emoji&amp;quot;, &amp;quot;Segoe UI Symbol&amp;quot;, &amp;quot;Noto Color Emoji&amp;quot;; font-size: 16px; font-style: normal; font-variant-ligatures: normal; font-variant-caps: normal; font-weight: 400; letter-spacing: normal; orphans: 2; text-align: left; text-indent: 0px; text-transform: none; widows: 2; word-spacing: 0px; -webkit-text-stroke-width: 0px; white-space: normal; text-decoration-thickness: initial; text-decoration-style: initial; text-decoration-color: initial; float: none; display: inline !important;&quot;&gt;&lt;font style=&quot;color: light-dark(rgb(193, 193, 193), rgb(255, 255, 255));&quot;&gt;2&lt;/font&gt;&lt;/span&gt;" style="text;whiteSpace=wrap;html=1;" vertex="1" parent="_o8mccfwwADU7bJuC04m-1">
          <mxGeometry x="225" y="250" width="20" height="30" as="geometry" />
        </mxCell>
        <mxCell id="_o8mccfwwADU7bJuC04m-17" value="&lt;span style=&quot;font-family: -apple-system, BlinkMacSystemFont, &amp;quot;Segoe UI&amp;quot;, Roboto, &amp;quot;Helvetica Neue&amp;quot;, Arial, &amp;quot;Noto Sans&amp;quot;, &amp;quot;Liberation Sans&amp;quot;, sans-serif, &amp;quot;Apple Color Emoji&amp;quot;, &amp;quot;Segoe UI Emoji&amp;quot;, &amp;quot;Segoe UI Symbol&amp;quot;, &amp;quot;Noto Color Emoji&amp;quot;; font-size: 16px; font-style: normal; font-variant-ligatures: normal; font-variant-caps: normal; font-weight: 400; letter-spacing: normal; orphans: 2; text-align: left; text-indent: 0px; text-transform: none; widows: 2; word-spacing: 0px; -webkit-text-stroke-width: 0px; white-space: normal; text-decoration-thickness: initial; text-decoration-style: initial; text-decoration-color: initial; float: none; display: inline !important;&quot;&gt;&lt;font style=&quot;color: light-dark(rgb(193, 193, 193), rgb(255, 255, 255));&quot;&gt;3&lt;/font&gt;&lt;/span&gt;" style="text;whiteSpace=wrap;html=1;" vertex="1" parent="_o8mccfwwADU7bJuC04m-1">
          <mxGeometry x="295" y="250" width="20" height="30" as="geometry" />
        </mxCell>
        <mxCell id="_o8mccfwwADU7bJuC04m-18" value="&lt;span style=&quot;font-family: -apple-system, BlinkMacSystemFont, &amp;quot;Segoe UI&amp;quot;, Roboto, &amp;quot;Helvetica Neue&amp;quot;, Arial, &amp;quot;Noto Sans&amp;quot;, &amp;quot;Liberation Sans&amp;quot;, sans-serif, &amp;quot;Apple Color Emoji&amp;quot;, &amp;quot;Segoe UI Emoji&amp;quot;, &amp;quot;Segoe UI Symbol&amp;quot;, &amp;quot;Noto Color Emoji&amp;quot;; font-size: 16px; font-style: normal; font-variant-ligatures: normal; font-variant-caps: normal; font-weight: 400; letter-spacing: normal; orphans: 2; text-align: left; text-indent: 0px; text-transform: none; widows: 2; word-spacing: 0px; -webkit-text-stroke-width: 0px; white-space: normal; text-decoration-thickness: initial; text-decoration-style: initial; text-decoration-color: initial; float: none; display: inline !important;&quot;&gt;&lt;font style=&quot;color: light-dark(rgb(193, 193, 193), rgb(255, 255, 255));&quot;&gt;4&lt;/font&gt;&lt;/span&gt;" style="text;whiteSpace=wrap;html=1;" vertex="1" parent="_o8mccfwwADU7bJuC04m-1">
          <mxGeometry x="365" y="250" width="20" height="30" as="geometry" />
        </mxCell>
        <mxCell id="_o8mccfwwADU7bJuC04m-19" value="&lt;span style=&quot;font-family: -apple-system, BlinkMacSystemFont, &amp;quot;Segoe UI&amp;quot;, Roboto, &amp;quot;Helvetica Neue&amp;quot;, Arial, &amp;quot;Noto Sans&amp;quot;, &amp;quot;Liberation Sans&amp;quot;, sans-serif, &amp;quot;Apple Color Emoji&amp;quot;, &amp;quot;Segoe UI Emoji&amp;quot;, &amp;quot;Segoe UI Symbol&amp;quot;, &amp;quot;Noto Color Emoji&amp;quot;; font-size: 16px; font-style: normal; font-variant-ligatures: normal; font-variant-caps: normal; font-weight: 400; letter-spacing: normal; orphans: 2; text-align: left; text-indent: 0px; text-transform: none; widows: 2; word-spacing: 0px; -webkit-text-stroke-width: 0px; white-space: normal; text-decoration-thickness: initial; text-decoration-style: initial; text-decoration-color: initial; float: none; display: inline !important;&quot;&gt;&lt;font style=&quot;color: light-dark(rgb(193, 193, 193), rgb(255, 255, 255));&quot;&gt;5&lt;/font&gt;&lt;/span&gt;" style="text;whiteSpace=wrap;html=1;" vertex="1" parent="_o8mccfwwADU7bJuC04m-1">
          <mxGeometry x="435" y="250" width="20" height="30" as="geometry" />
        </mxCell>
        <mxCell id="_o8mccfwwADU7bJuC04m-20" value="&lt;span style=&quot;font-family: -apple-system, BlinkMacSystemFont, &amp;quot;Segoe UI&amp;quot;, Roboto, &amp;quot;Helvetica Neue&amp;quot;, Arial, &amp;quot;Noto Sans&amp;quot;, &amp;quot;Liberation Sans&amp;quot;, sans-serif, &amp;quot;Apple Color Emoji&amp;quot;, &amp;quot;Segoe UI Emoji&amp;quot;, &amp;quot;Segoe UI Symbol&amp;quot;, &amp;quot;Noto Color Emoji&amp;quot;; font-size: 16px; font-style: normal; font-variant-ligatures: normal; font-variant-caps: normal; font-weight: 400; letter-spacing: normal; orphans: 2; text-align: left; text-indent: 0px; text-transform: none; widows: 2; word-spacing: 0px; -webkit-text-stroke-width: 0px; white-space: normal; text-decoration-thickness: initial; text-decoration-style: initial; text-decoration-color: initial; float: none; display: inline !important;&quot;&gt;&lt;font style=&quot;color: light-dark(rgb(193, 193, 193), rgb(255, 255, 255));&quot;&gt;6&lt;/font&gt;&lt;/span&gt;" style="text;whiteSpace=wrap;html=1;" vertex="1" parent="_o8mccfwwADU7bJuC04m-1">
          <mxGeometry x="505" y="250" width="20" height="30" as="geometry" />
        </mxCell>
        <mxCell id="_o8mccfwwADU7bJuC04m-21" value="&lt;span style=&quot;font-family: -apple-system, BlinkMacSystemFont, &amp;quot;Segoe UI&amp;quot;, Roboto, &amp;quot;Helvetica Neue&amp;quot;, Arial, &amp;quot;Noto Sans&amp;quot;, &amp;quot;Liberation Sans&amp;quot;, sans-serif, &amp;quot;Apple Color Emoji&amp;quot;, &amp;quot;Segoe UI Emoji&amp;quot;, &amp;quot;Segoe UI Symbol&amp;quot;, &amp;quot;Noto Color Emoji&amp;quot;; font-size: 16px; font-style: normal; font-variant-ligatures: normal; font-variant-caps: normal; font-weight: 400; letter-spacing: normal; orphans: 2; text-align: left; text-indent: 0px; text-transform: none; widows: 2; word-spacing: 0px; -webkit-text-stroke-width: 0px; white-space: normal; text-decoration-thickness: initial; text-decoration-style: initial; text-decoration-color: initial; float: none; display: inline !important;&quot;&gt;&lt;font style=&quot;color: light-dark(rgb(193, 193, 193), rgb(255, 255, 255));&quot;&gt;7&lt;/font&gt;&lt;/span&gt;" style="text;whiteSpace=wrap;html=1;" vertex="1" parent="_o8mccfwwADU7bJuC04m-1">
          <mxGeometry x="570" y="250" width="20" height="30" as="geometry" />
        </mxCell>
        <mxCell id="_o8mccfwwADU7bJuC04m-22" value="&lt;span style=&quot;font-family: -apple-system, BlinkMacSystemFont, &amp;quot;Segoe UI&amp;quot;, Roboto, &amp;quot;Helvetica Neue&amp;quot;, Arial, &amp;quot;Noto Sans&amp;quot;, &amp;quot;Liberation Sans&amp;quot;, sans-serif, &amp;quot;Apple Color Emoji&amp;quot;, &amp;quot;Segoe UI Emoji&amp;quot;, &amp;quot;Segoe UI Symbol&amp;quot;, &amp;quot;Noto Color Emoji&amp;quot;; font-size: 16px; font-style: normal; font-variant-ligatures: normal; font-variant-caps: normal; font-weight: 400; letter-spacing: normal; orphans: 2; text-align: left; text-indent: 0px; text-transform: none; widows: 2; word-spacing: 0px; -webkit-text-stroke-width: 0px; white-space: normal; text-decoration-thickness: initial; text-decoration-style: initial; text-decoration-color: initial; float: none; display: inline !important;&quot;&gt;&lt;font style=&quot;color: light-dark(rgb(193, 193, 193), rgb(255, 255, 255));&quot;&gt;8&lt;/font&gt;&lt;/span&gt;" style="text;whiteSpace=wrap;html=1;" vertex="1" parent="_o8mccfwwADU7bJuC04m-1">
          <mxGeometry x="640" y="250" width="20" height="30" as="geometry" />
        </mxCell>
        <mxCell id="_o8mccfwwADU7bJuC04m-23" value="&lt;span style=&quot;font-family: -apple-system, BlinkMacSystemFont, &amp;quot;Segoe UI&amp;quot;, Roboto, &amp;quot;Helvetica Neue&amp;quot;, Arial, &amp;quot;Noto Sans&amp;quot;, &amp;quot;Liberation Sans&amp;quot;, sans-serif, &amp;quot;Apple Color Emoji&amp;quot;, &amp;quot;Segoe UI Emoji&amp;quot;, &amp;quot;Segoe UI Symbol&amp;quot;, &amp;quot;Noto Color Emoji&amp;quot;; font-size: 16px; font-style: normal; font-variant-ligatures: normal; font-variant-caps: normal; font-weight: 400; letter-spacing: normal; orphans: 2; text-align: left; text-indent: 0px; text-transform: none; widows: 2; word-spacing: 0px; -webkit-text-stroke-width: 0px; white-space: normal; text-decoration-thickness: initial; text-decoration-style: initial; text-decoration-color: initial; float: none; display: inline !important;&quot;&gt;&lt;font style=&quot;color: light-dark(rgb(193, 193, 193), rgb(255, 255, 255));&quot;&gt;9&lt;/font&gt;&lt;/span&gt;" style="text;whiteSpace=wrap;html=1;" vertex="1" parent="_o8mccfwwADU7bJuC04m-1">
          <mxGeometry x="710" y="250" width="20" height="30" as="geometry" />
        </mxCell>
      </root>
    </mxGraphModel>
  </diagram>
  <diagram name="CÃ³pia do CÃ³pia do CÃ³pia do CÃ³pia do CÃ³pia do CÃ³pia do CÃ³pia do CÃ³pia do CÃ³pia do PÃ¡gina-1" id="QmZO8SFGP6GO0MJaJUBU">
    <mxGraphModel dx="2024" dy="834" grid="1" gridSize="10" guides="1" tooltips="1" connect="1" arrows="1" fold="1" page="1" pageScale="1" pageWidth="827" pageHeight="1169" math="0" shadow="0">
      <root>
        <mxCell id="vSzXdOPLeJx1ILiblRyk-0" />
        <mxCell id="vSzXdOPLeJx1ILiblRyk-1" parent="vSzXdOPLeJx1ILiblRyk-0" />
        <mxCell id="vSzXdOPLeJx1ILiblRyk-2" value="&lt;span style=&quot;color: rgb(51, 51, 51); font-family: -apple-system, BlinkMacSystemFont, &amp;quot;Segoe UI&amp;quot;, Roboto, &amp;quot;Helvetica Neue&amp;quot;, Arial, &amp;quot;Noto Sans&amp;quot;, &amp;quot;Liberation Sans&amp;quot;, sans-serif, &amp;quot;Apple Color Emoji&amp;quot;, &amp;quot;Segoe UI Emoji&amp;quot;, &amp;quot;Segoe UI Symbol&amp;quot;, &amp;quot;Noto Color Emoji&amp;quot;; font-style: normal; font-variant-ligatures: normal; font-variant-caps: normal; font-weight: 400; letter-spacing: normal; orphans: 2; text-align: left; text-indent: 0px; text-transform: none; widows: 2; word-spacing: 0px; -webkit-text-stroke-width: 0px; white-space: normal; background-color: rgb(255, 255, 255); text-decoration-thickness: initial; text-decoration-style: initial; text-decoration-color: initial; float: none; display: inline !important;&quot;&gt;&lt;font style=&quot;font-size: 16px;&quot;&gt;Remover 12&lt;/font&gt;&lt;/span&gt;" style="text;whiteSpace=wrap;html=1;" vertex="1" parent="vSzXdOPLeJx1ILiblRyk-1">
          <mxGeometry x="120" y="40" width="250" height="40" as="geometry" />
        </mxCell>
        <mxCell id="vSzXdOPLeJx1ILiblRyk-3" value="&lt;span style=&quot;color: rgb(51, 51, 51); font-family: -apple-system, BlinkMacSystemFont, &amp;quot;Segoe UI&amp;quot;, Roboto, &amp;quot;Helvetica Neue&amp;quot;, Arial, &amp;quot;Noto Sans&amp;quot;, &amp;quot;Liberation Sans&amp;quot;, sans-serif, &amp;quot;Apple Color Emoji&amp;quot;, &amp;quot;Segoe UI Emoji&amp;quot;, &amp;quot;Segoe UI Symbol&amp;quot;, &amp;quot;Noto Color Emoji&amp;quot;; font-style: normal; font-variant-ligatures: normal; font-variant-caps: normal; font-weight: 400; letter-spacing: normal; orphans: 2; text-align: left; text-indent: 0px; text-transform: none; widows: 2; word-spacing: 0px; -webkit-text-stroke-width: 0px; white-space: normal; background-color: rgb(255, 255, 255); text-decoration-thickness: initial; text-decoration-style: initial; text-decoration-color: initial; float: none; display: inline !important;&quot;&gt;&lt;font style=&quot;font-size: 16px;&quot;&gt;Tamanho 10&lt;/font&gt;&lt;/span&gt;" style="text;whiteSpace=wrap;html=1;" vertex="1" parent="vSzXdOPLeJx1ILiblRyk-1">
          <mxGeometry x="570" y="40" width="100" height="40" as="geometry" />
        </mxCell>
        <mxCell id="vSzXdOPLeJx1ILiblRyk-4" value="" style="rounded=0;whiteSpace=wrap;html=1;" vertex="1" parent="vSzXdOPLeJx1ILiblRyk-1">
          <mxGeometry x="60" y="300" width="70" height="60" as="geometry" />
        </mxCell>
        <mxCell id="vSzXdOPLeJx1ILiblRyk-5" value="21" style="rounded=0;whiteSpace=wrap;html=1;" vertex="1" parent="vSzXdOPLeJx1ILiblRyk-1">
          <mxGeometry x="130" y="300" width="70" height="60" as="geometry" />
        </mxCell>
        <mxCell id="vSzXdOPLeJx1ILiblRyk-6" value="" style="rounded=0;whiteSpace=wrap;html=1;" vertex="1" parent="vSzXdOPLeJx1ILiblRyk-1">
          <mxGeometry x="200" y="300" width="70" height="60" as="geometry" />
        </mxCell>
        <mxCell id="vSzXdOPLeJx1ILiblRyk-7" value="61" style="rounded=0;whiteSpace=wrap;html=1;" vertex="1" parent="vSzXdOPLeJx1ILiblRyk-1">
          <mxGeometry x="270" y="300" width="70" height="60" as="geometry" />
        </mxCell>
        <mxCell id="vSzXdOPLeJx1ILiblRyk-8" value="14" style="rounded=0;whiteSpace=wrap;html=1;" vertex="1" parent="vSzXdOPLeJx1ILiblRyk-1">
          <mxGeometry x="340" y="300" width="70" height="60" as="geometry" />
        </mxCell>
        <mxCell id="vSzXdOPLeJx1ILiblRyk-9" value="24" style="rounded=0;whiteSpace=wrap;html=1;" vertex="1" parent="vSzXdOPLeJx1ILiblRyk-1">
          <mxGeometry x="410" y="300" width="70" height="60" as="geometry" />
        </mxCell>
        <mxCell id="vSzXdOPLeJx1ILiblRyk-10" value="42" style="rounded=0;whiteSpace=wrap;html=1;" vertex="1" parent="vSzXdOPLeJx1ILiblRyk-1">
          <mxGeometry x="480" y="300" width="70" height="60" as="geometry" />
        </mxCell>
        <mxCell id="vSzXdOPLeJx1ILiblRyk-11" value="32" style="rounded=0;whiteSpace=wrap;html=1;" vertex="1" parent="vSzXdOPLeJx1ILiblRyk-1">
          <mxGeometry x="550" y="300" width="70" height="60" as="geometry" />
        </mxCell>
        <mxCell id="vSzXdOPLeJx1ILiblRyk-12" value="&amp;nbsp;" style="rounded=0;whiteSpace=wrap;html=1;" vertex="1" parent="vSzXdOPLeJx1ILiblRyk-1">
          <mxGeometry x="620" y="300" width="70" height="60" as="geometry" />
        </mxCell>
        <mxCell id="vSzXdOPLeJx1ILiblRyk-13" value="" style="rounded=0;whiteSpace=wrap;html=1;" vertex="1" parent="vSzXdOPLeJx1ILiblRyk-1">
          <mxGeometry x="690" y="300" width="70" height="60" as="geometry" />
        </mxCell>
        <mxCell id="vSzXdOPLeJx1ILiblRyk-14" value="&lt;span style=&quot;font-family: -apple-system, BlinkMacSystemFont, &amp;quot;Segoe UI&amp;quot;, Roboto, &amp;quot;Helvetica Neue&amp;quot;, Arial, &amp;quot;Noto Sans&amp;quot;, &amp;quot;Liberation Sans&amp;quot;, sans-serif, &amp;quot;Apple Color Emoji&amp;quot;, &amp;quot;Segoe UI Emoji&amp;quot;, &amp;quot;Segoe UI Symbol&amp;quot;, &amp;quot;Noto Color Emoji&amp;quot;; font-size: 16px; font-style: normal; font-variant-ligatures: normal; font-variant-caps: normal; font-weight: 400; letter-spacing: normal; orphans: 2; text-align: left; text-indent: 0px; text-transform: none; widows: 2; word-spacing: 0px; -webkit-text-stroke-width: 0px; white-space: normal; text-decoration-thickness: initial; text-decoration-style: initial; text-decoration-color: initial; float: none; display: inline !important;&quot;&gt;&lt;font style=&quot;color: light-dark(rgb(193, 193, 193), rgb(255, 255, 255));&quot;&gt;0&lt;/font&gt;&lt;/span&gt;" style="text;whiteSpace=wrap;html=1;" vertex="1" parent="vSzXdOPLeJx1ILiblRyk-1">
          <mxGeometry x="85" y="250" width="20" height="30" as="geometry" />
        </mxCell>
        <mxCell id="vSzXdOPLeJx1ILiblRyk-15" value="&lt;span style=&quot;font-family: -apple-system, BlinkMacSystemFont, &amp;quot;Segoe UI&amp;quot;, Roboto, &amp;quot;Helvetica Neue&amp;quot;, Arial, &amp;quot;Noto Sans&amp;quot;, &amp;quot;Liberation Sans&amp;quot;, sans-serif, &amp;quot;Apple Color Emoji&amp;quot;, &amp;quot;Segoe UI Emoji&amp;quot;, &amp;quot;Segoe UI Symbol&amp;quot;, &amp;quot;Noto Color Emoji&amp;quot;; font-size: 16px; font-style: normal; font-variant-ligatures: normal; font-variant-caps: normal; font-weight: 400; letter-spacing: normal; orphans: 2; text-align: left; text-indent: 0px; text-transform: none; widows: 2; word-spacing: 0px; -webkit-text-stroke-width: 0px; white-space: normal; text-decoration-thickness: initial; text-decoration-style: initial; text-decoration-color: initial; float: none; display: inline !important;&quot;&gt;&lt;font style=&quot;color: light-dark(rgb(193, 193, 193), rgb(255, 255, 255));&quot;&gt;1&lt;/font&gt;&lt;/span&gt;" style="text;whiteSpace=wrap;html=1;" vertex="1" parent="vSzXdOPLeJx1ILiblRyk-1">
          <mxGeometry x="155" y="250" width="20" height="30" as="geometry" />
        </mxCell>
        <mxCell id="vSzXdOPLeJx1ILiblRyk-16" value="&lt;span style=&quot;font-family: -apple-system, BlinkMacSystemFont, &amp;quot;Segoe UI&amp;quot;, Roboto, &amp;quot;Helvetica Neue&amp;quot;, Arial, &amp;quot;Noto Sans&amp;quot;, &amp;quot;Liberation Sans&amp;quot;, sans-serif, &amp;quot;Apple Color Emoji&amp;quot;, &amp;quot;Segoe UI Emoji&amp;quot;, &amp;quot;Segoe UI Symbol&amp;quot;, &amp;quot;Noto Color Emoji&amp;quot;; font-size: 16px; font-style: normal; font-variant-ligatures: normal; font-variant-caps: normal; font-weight: 400; letter-spacing: normal; orphans: 2; text-align: left; text-indent: 0px; text-transform: none; widows: 2; word-spacing: 0px; -webkit-text-stroke-width: 0px; white-space: normal; text-decoration-thickness: initial; text-decoration-style: initial; text-decoration-color: initial; float: none; display: inline !important;&quot;&gt;&lt;font style=&quot;color: light-dark(rgb(193, 193, 193), rgb(255, 255, 255));&quot;&gt;2&lt;/font&gt;&lt;/span&gt;" style="text;whiteSpace=wrap;html=1;" vertex="1" parent="vSzXdOPLeJx1ILiblRyk-1">
          <mxGeometry x="225" y="250" width="20" height="30" as="geometry" />
        </mxCell>
        <mxCell id="vSzXdOPLeJx1ILiblRyk-17" value="&lt;span style=&quot;font-family: -apple-system, BlinkMacSystemFont, &amp;quot;Segoe UI&amp;quot;, Roboto, &amp;quot;Helvetica Neue&amp;quot;, Arial, &amp;quot;Noto Sans&amp;quot;, &amp;quot;Liberation Sans&amp;quot;, sans-serif, &amp;quot;Apple Color Emoji&amp;quot;, &amp;quot;Segoe UI Emoji&amp;quot;, &amp;quot;Segoe UI Symbol&amp;quot;, &amp;quot;Noto Color Emoji&amp;quot;; font-size: 16px; font-style: normal; font-variant-ligatures: normal; font-variant-caps: normal; font-weight: 400; letter-spacing: normal; orphans: 2; text-align: left; text-indent: 0px; text-transform: none; widows: 2; word-spacing: 0px; -webkit-text-stroke-width: 0px; white-space: normal; text-decoration-thickness: initial; text-decoration-style: initial; text-decoration-color: initial; float: none; display: inline !important;&quot;&gt;&lt;font style=&quot;color: light-dark(rgb(193, 193, 193), rgb(255, 255, 255));&quot;&gt;3&lt;/font&gt;&lt;/span&gt;" style="text;whiteSpace=wrap;html=1;" vertex="1" parent="vSzXdOPLeJx1ILiblRyk-1">
          <mxGeometry x="295" y="250" width="20" height="30" as="geometry" />
        </mxCell>
        <mxCell id="vSzXdOPLeJx1ILiblRyk-18" value="&lt;span style=&quot;font-family: -apple-system, BlinkMacSystemFont, &amp;quot;Segoe UI&amp;quot;, Roboto, &amp;quot;Helvetica Neue&amp;quot;, Arial, &amp;quot;Noto Sans&amp;quot;, &amp;quot;Liberation Sans&amp;quot;, sans-serif, &amp;quot;Apple Color Emoji&amp;quot;, &amp;quot;Segoe UI Emoji&amp;quot;, &amp;quot;Segoe UI Symbol&amp;quot;, &amp;quot;Noto Color Emoji&amp;quot;; font-size: 16px; font-style: normal; font-variant-ligatures: normal; font-variant-caps: normal; font-weight: 400; letter-spacing: normal; orphans: 2; text-align: left; text-indent: 0px; text-transform: none; widows: 2; word-spacing: 0px; -webkit-text-stroke-width: 0px; white-space: normal; text-decoration-thickness: initial; text-decoration-style: initial; text-decoration-color: initial; float: none; display: inline !important;&quot;&gt;&lt;font style=&quot;color: light-dark(rgb(193, 193, 193), rgb(255, 255, 255));&quot;&gt;4&lt;/font&gt;&lt;/span&gt;" style="text;whiteSpace=wrap;html=1;" vertex="1" parent="vSzXdOPLeJx1ILiblRyk-1">
          <mxGeometry x="365" y="250" width="20" height="30" as="geometry" />
        </mxCell>
        <mxCell id="vSzXdOPLeJx1ILiblRyk-19" value="&lt;span style=&quot;font-family: -apple-system, BlinkMacSystemFont, &amp;quot;Segoe UI&amp;quot;, Roboto, &amp;quot;Helvetica Neue&amp;quot;, Arial, &amp;quot;Noto Sans&amp;quot;, &amp;quot;Liberation Sans&amp;quot;, sans-serif, &amp;quot;Apple Color Emoji&amp;quot;, &amp;quot;Segoe UI Emoji&amp;quot;, &amp;quot;Segoe UI Symbol&amp;quot;, &amp;quot;Noto Color Emoji&amp;quot;; font-size: 16px; font-style: normal; font-variant-ligatures: normal; font-variant-caps: normal; font-weight: 400; letter-spacing: normal; orphans: 2; text-align: left; text-indent: 0px; text-transform: none; widows: 2; word-spacing: 0px; -webkit-text-stroke-width: 0px; white-space: normal; text-decoration-thickness: initial; text-decoration-style: initial; text-decoration-color: initial; float: none; display: inline !important;&quot;&gt;&lt;font style=&quot;color: light-dark(rgb(193, 193, 193), rgb(255, 255, 255));&quot;&gt;5&lt;/font&gt;&lt;/span&gt;" style="text;whiteSpace=wrap;html=1;" vertex="1" parent="vSzXdOPLeJx1ILiblRyk-1">
          <mxGeometry x="435" y="250" width="20" height="30" as="geometry" />
        </mxCell>
        <mxCell id="vSzXdOPLeJx1ILiblRyk-20" value="&lt;span style=&quot;font-family: -apple-system, BlinkMacSystemFont, &amp;quot;Segoe UI&amp;quot;, Roboto, &amp;quot;Helvetica Neue&amp;quot;, Arial, &amp;quot;Noto Sans&amp;quot;, &amp;quot;Liberation Sans&amp;quot;, sans-serif, &amp;quot;Apple Color Emoji&amp;quot;, &amp;quot;Segoe UI Emoji&amp;quot;, &amp;quot;Segoe UI Symbol&amp;quot;, &amp;quot;Noto Color Emoji&amp;quot;; font-size: 16px; font-style: normal; font-variant-ligatures: normal; font-variant-caps: normal; font-weight: 400; letter-spacing: normal; orphans: 2; text-align: left; text-indent: 0px; text-transform: none; widows: 2; word-spacing: 0px; -webkit-text-stroke-width: 0px; white-space: normal; text-decoration-thickness: initial; text-decoration-style: initial; text-decoration-color: initial; float: none; display: inline !important;&quot;&gt;&lt;font style=&quot;color: light-dark(rgb(193, 193, 193), rgb(255, 255, 255));&quot;&gt;6&lt;/font&gt;&lt;/span&gt;" style="text;whiteSpace=wrap;html=1;" vertex="1" parent="vSzXdOPLeJx1ILiblRyk-1">
          <mxGeometry x="505" y="250" width="20" height="30" as="geometry" />
        </mxCell>
        <mxCell id="vSzXdOPLeJx1ILiblRyk-21" value="&lt;span style=&quot;font-family: -apple-system, BlinkMacSystemFont, &amp;quot;Segoe UI&amp;quot;, Roboto, &amp;quot;Helvetica Neue&amp;quot;, Arial, &amp;quot;Noto Sans&amp;quot;, &amp;quot;Liberation Sans&amp;quot;, sans-serif, &amp;quot;Apple Color Emoji&amp;quot;, &amp;quot;Segoe UI Emoji&amp;quot;, &amp;quot;Segoe UI Symbol&amp;quot;, &amp;quot;Noto Color Emoji&amp;quot;; font-size: 16px; font-style: normal; font-variant-ligatures: normal; font-variant-caps: normal; font-weight: 400; letter-spacing: normal; orphans: 2; text-align: left; text-indent: 0px; text-transform: none; widows: 2; word-spacing: 0px; -webkit-text-stroke-width: 0px; white-space: normal; text-decoration-thickness: initial; text-decoration-style: initial; text-decoration-color: initial; float: none; display: inline !important;&quot;&gt;&lt;font style=&quot;color: light-dark(rgb(193, 193, 193), rgb(255, 255, 255));&quot;&gt;7&lt;/font&gt;&lt;/span&gt;" style="text;whiteSpace=wrap;html=1;" vertex="1" parent="vSzXdOPLeJx1ILiblRyk-1">
          <mxGeometry x="570" y="250" width="20" height="30" as="geometry" />
        </mxCell>
        <mxCell id="vSzXdOPLeJx1ILiblRyk-22" value="&lt;span style=&quot;font-family: -apple-system, BlinkMacSystemFont, &amp;quot;Segoe UI&amp;quot;, Roboto, &amp;quot;Helvetica Neue&amp;quot;, Arial, &amp;quot;Noto Sans&amp;quot;, &amp;quot;Liberation Sans&amp;quot;, sans-serif, &amp;quot;Apple Color Emoji&amp;quot;, &amp;quot;Segoe UI Emoji&amp;quot;, &amp;quot;Segoe UI Symbol&amp;quot;, &amp;quot;Noto Color Emoji&amp;quot;; font-size: 16px; font-style: normal; font-variant-ligatures: normal; font-variant-caps: normal; font-weight: 400; letter-spacing: normal; orphans: 2; text-align: left; text-indent: 0px; text-transform: none; widows: 2; word-spacing: 0px; -webkit-text-stroke-width: 0px; white-space: normal; text-decoration-thickness: initial; text-decoration-style: initial; text-decoration-color: initial; float: none; display: inline !important;&quot;&gt;&lt;font style=&quot;color: light-dark(rgb(193, 193, 193), rgb(255, 255, 255));&quot;&gt;8&lt;/font&gt;&lt;/span&gt;" style="text;whiteSpace=wrap;html=1;" vertex="1" parent="vSzXdOPLeJx1ILiblRyk-1">
          <mxGeometry x="640" y="250" width="20" height="30" as="geometry" />
        </mxCell>
        <mxCell id="vSzXdOPLeJx1ILiblRyk-23" value="&lt;span style=&quot;font-family: -apple-system, BlinkMacSystemFont, &amp;quot;Segoe UI&amp;quot;, Roboto, &amp;quot;Helvetica Neue&amp;quot;, Arial, &amp;quot;Noto Sans&amp;quot;, &amp;quot;Liberation Sans&amp;quot;, sans-serif, &amp;quot;Apple Color Emoji&amp;quot;, &amp;quot;Segoe UI Emoji&amp;quot;, &amp;quot;Segoe UI Symbol&amp;quot;, &amp;quot;Noto Color Emoji&amp;quot;; font-size: 16px; font-style: normal; font-variant-ligatures: normal; font-variant-caps: normal; font-weight: 400; letter-spacing: normal; orphans: 2; text-align: left; text-indent: 0px; text-transform: none; widows: 2; word-spacing: 0px; -webkit-text-stroke-width: 0px; white-space: normal; text-decoration-thickness: initial; text-decoration-style: initial; text-decoration-color: initial; float: none; display: inline !important;&quot;&gt;&lt;font style=&quot;color: light-dark(rgb(193, 193, 193), rgb(255, 255, 255));&quot;&gt;9&lt;/font&gt;&lt;/span&gt;" style="text;whiteSpace=wrap;html=1;" vertex="1" parent="vSzXdOPLeJx1ILiblRyk-1">
          <mxGeometry x="710" y="250" width="20" height="30" as="geometry" />
        </mxCell>
      </root>
    </mxGraphModel>
  </diagram>
  <diagram name="CÃ³pia do CÃ³pia do CÃ³pia do CÃ³pia do CÃ³pia do CÃ³pia do CÃ³pia do CÃ³pia do CÃ³pia do CÃ³pia do PÃ¡gina-1" id="8lANK6Hb-6vO4S8PXA2R">
    <mxGraphModel dx="2024" dy="834" grid="1" gridSize="10" guides="1" tooltips="1" connect="1" arrows="1" fold="1" page="1" pageScale="1" pageWidth="827" pageHeight="1169" math="0" shadow="0">
      <root>
        <mxCell id="pC0P3yr2gDCVTLoXVOXI-0" />
        <mxCell id="pC0P3yr2gDCVTLoXVOXI-1" parent="pC0P3yr2gDCVTLoXVOXI-0" />
        <mxCell id="pC0P3yr2gDCVTLoXVOXI-2" value="&lt;span style=&quot;color: rgb(51, 51, 51); font-family: -apple-system, BlinkMacSystemFont, &amp;quot;Segoe UI&amp;quot;, Roboto, &amp;quot;Helvetica Neue&amp;quot;, Arial, &amp;quot;Noto Sans&amp;quot;, &amp;quot;Liberation Sans&amp;quot;, sans-serif, &amp;quot;Apple Color Emoji&amp;quot;, &amp;quot;Segoe UI Emoji&amp;quot;, &amp;quot;Segoe UI Symbol&amp;quot;, &amp;quot;Noto Color Emoji&amp;quot;; font-style: normal; font-variant-ligatures: normal; font-variant-caps: normal; font-weight: 400; letter-spacing: normal; orphans: 2; text-align: left; text-indent: 0px; text-transform: none; widows: 2; word-spacing: 0px; -webkit-text-stroke-width: 0px; white-space: normal; background-color: rgb(255, 255, 255); text-decoration-thickness: initial; text-decoration-style: initial; text-decoration-color: initial; float: none; display: inline !important;&quot;&gt;&lt;font style=&quot;font-size: 16px;&quot;&gt;Remover 12&lt;/font&gt;&lt;/span&gt;" style="text;whiteSpace=wrap;html=1;" vertex="1" parent="pC0P3yr2gDCVTLoXVOXI-1">
          <mxGeometry x="120" y="40" width="250" height="40" as="geometry" />
        </mxCell>
        <mxCell id="pC0P3yr2gDCVTLoXVOXI-3" value="&lt;span style=&quot;color: rgb(51, 51, 51); font-family: -apple-system, BlinkMacSystemFont, &amp;quot;Segoe UI&amp;quot;, Roboto, &amp;quot;Helvetica Neue&amp;quot;, Arial, &amp;quot;Noto Sans&amp;quot;, &amp;quot;Liberation Sans&amp;quot;, sans-serif, &amp;quot;Apple Color Emoji&amp;quot;, &amp;quot;Segoe UI Emoji&amp;quot;, &amp;quot;Segoe UI Symbol&amp;quot;, &amp;quot;Noto Color Emoji&amp;quot;; font-style: normal; font-variant-ligatures: normal; font-variant-caps: normal; font-weight: 400; letter-spacing: normal; orphans: 2; text-align: left; text-indent: 0px; text-transform: none; widows: 2; word-spacing: 0px; -webkit-text-stroke-width: 0px; white-space: normal; background-color: rgb(255, 255, 255); text-decoration-thickness: initial; text-decoration-style: initial; text-decoration-color: initial; float: none; display: inline !important;&quot;&gt;&lt;font style=&quot;font-size: 16px;&quot;&gt;Tamanho 10&lt;/font&gt;&lt;/span&gt;" style="text;whiteSpace=wrap;html=1;" vertex="1" parent="pC0P3yr2gDCVTLoXVOXI-1">
          <mxGeometry x="570" y="40" width="100" height="40" as="geometry" />
        </mxCell>
        <mxCell id="pC0P3yr2gDCVTLoXVOXI-4" value="" style="rounded=0;whiteSpace=wrap;html=1;" vertex="1" parent="pC0P3yr2gDCVTLoXVOXI-1">
          <mxGeometry x="60" y="300" width="70" height="60" as="geometry" />
        </mxCell>
        <mxCell id="pC0P3yr2gDCVTLoXVOXI-5" value="21" style="rounded=0;whiteSpace=wrap;html=1;" vertex="1" parent="pC0P3yr2gDCVTLoXVOXI-1">
          <mxGeometry x="130" y="300" width="70" height="60" as="geometry" />
        </mxCell>
        <mxCell id="pC0P3yr2gDCVTLoXVOXI-6" value="61" style="rounded=0;whiteSpace=wrap;html=1;" vertex="1" parent="pC0P3yr2gDCVTLoXVOXI-1">
          <mxGeometry x="200" y="300" width="70" height="60" as="geometry" />
        </mxCell>
        <mxCell id="pC0P3yr2gDCVTLoXVOXI-7" value="" style="rounded=0;whiteSpace=wrap;html=1;" vertex="1" parent="pC0P3yr2gDCVTLoXVOXI-1">
          <mxGeometry x="270" y="300" width="70" height="60" as="geometry" />
        </mxCell>
        <mxCell id="pC0P3yr2gDCVTLoXVOXI-8" value="14" style="rounded=0;whiteSpace=wrap;html=1;" vertex="1" parent="pC0P3yr2gDCVTLoXVOXI-1">
          <mxGeometry x="340" y="300" width="70" height="60" as="geometry" />
        </mxCell>
        <mxCell id="pC0P3yr2gDCVTLoXVOXI-9" value="24" style="rounded=0;whiteSpace=wrap;html=1;" vertex="1" parent="pC0P3yr2gDCVTLoXVOXI-1">
          <mxGeometry x="410" y="300" width="70" height="60" as="geometry" />
        </mxCell>
        <mxCell id="pC0P3yr2gDCVTLoXVOXI-10" value="42" style="rounded=0;whiteSpace=wrap;html=1;" vertex="1" parent="pC0P3yr2gDCVTLoXVOXI-1">
          <mxGeometry x="480" y="300" width="70" height="60" as="geometry" />
        </mxCell>
        <mxCell id="pC0P3yr2gDCVTLoXVOXI-11" value="32" style="rounded=0;whiteSpace=wrap;html=1;" vertex="1" parent="pC0P3yr2gDCVTLoXVOXI-1">
          <mxGeometry x="550" y="300" width="70" height="60" as="geometry" />
        </mxCell>
        <mxCell id="pC0P3yr2gDCVTLoXVOXI-12" value="&amp;nbsp;" style="rounded=0;whiteSpace=wrap;html=1;" vertex="1" parent="pC0P3yr2gDCVTLoXVOXI-1">
          <mxGeometry x="620" y="300" width="70" height="60" as="geometry" />
        </mxCell>
        <mxCell id="pC0P3yr2gDCVTLoXVOXI-13" value="" style="rounded=0;whiteSpace=wrap;html=1;" vertex="1" parent="pC0P3yr2gDCVTLoXVOXI-1">
          <mxGeometry x="690" y="300" width="70" height="60" as="geometry" />
        </mxCell>
        <mxCell id="pC0P3yr2gDCVTLoXVOXI-14" value="&lt;span style=&quot;font-family: -apple-system, BlinkMacSystemFont, &amp;quot;Segoe UI&amp;quot;, Roboto, &amp;quot;Helvetica Neue&amp;quot;, Arial, &amp;quot;Noto Sans&amp;quot;, &amp;quot;Liberation Sans&amp;quot;, sans-serif, &amp;quot;Apple Color Emoji&amp;quot;, &amp;quot;Segoe UI Emoji&amp;quot;, &amp;quot;Segoe UI Symbol&amp;quot;, &amp;quot;Noto Color Emoji&amp;quot;; font-size: 16px; font-style: normal; font-variant-ligatures: normal; font-variant-caps: normal; font-weight: 400; letter-spacing: normal; orphans: 2; text-align: left; text-indent: 0px; text-transform: none; widows: 2; word-spacing: 0px; -webkit-text-stroke-width: 0px; white-space: normal; text-decoration-thickness: initial; text-decoration-style: initial; text-decoration-color: initial; float: none; display: inline !important;&quot;&gt;&lt;font style=&quot;color: light-dark(rgb(193, 193, 193), rgb(255, 255, 255));&quot;&gt;0&lt;/font&gt;&lt;/span&gt;" style="text;whiteSpace=wrap;html=1;" vertex="1" parent="pC0P3yr2gDCVTLoXVOXI-1">
          <mxGeometry x="85" y="250" width="20" height="30" as="geometry" />
        </mxCell>
        <mxCell id="pC0P3yr2gDCVTLoXVOXI-15" value="&lt;span style=&quot;font-family: -apple-system, BlinkMacSystemFont, &amp;quot;Segoe UI&amp;quot;, Roboto, &amp;quot;Helvetica Neue&amp;quot;, Arial, &amp;quot;Noto Sans&amp;quot;, &amp;quot;Liberation Sans&amp;quot;, sans-serif, &amp;quot;Apple Color Emoji&amp;quot;, &amp;quot;Segoe UI Emoji&amp;quot;, &amp;quot;Segoe UI Symbol&amp;quot;, &amp;quot;Noto Color Emoji&amp;quot;; font-size: 16px; font-style: normal; font-variant-ligatures: normal; font-variant-caps: normal; font-weight: 400; letter-spacing: normal; orphans: 2; text-align: left; text-indent: 0px; text-transform: none; widows: 2; word-spacing: 0px; -webkit-text-stroke-width: 0px; white-space: normal; text-decoration-thickness: initial; text-decoration-style: initial; text-decoration-color: initial; float: none; display: inline !important;&quot;&gt;&lt;font style=&quot;color: light-dark(rgb(193, 193, 193), rgb(255, 255, 255));&quot;&gt;1&lt;/font&gt;&lt;/span&gt;" style="text;whiteSpace=wrap;html=1;" vertex="1" parent="pC0P3yr2gDCVTLoXVOXI-1">
          <mxGeometry x="155" y="250" width="20" height="30" as="geometry" />
        </mxCell>
        <mxCell id="pC0P3yr2gDCVTLoXVOXI-16" value="&lt;span style=&quot;font-family: -apple-system, BlinkMacSystemFont, &amp;quot;Segoe UI&amp;quot;, Roboto, &amp;quot;Helvetica Neue&amp;quot;, Arial, &amp;quot;Noto Sans&amp;quot;, &amp;quot;Liberation Sans&amp;quot;, sans-serif, &amp;quot;Apple Color Emoji&amp;quot;, &amp;quot;Segoe UI Emoji&amp;quot;, &amp;quot;Segoe UI Symbol&amp;quot;, &amp;quot;Noto Color Emoji&amp;quot;; font-size: 16px; font-style: normal; font-variant-ligatures: normal; font-variant-caps: normal; font-weight: 400; letter-spacing: normal; orphans: 2; text-align: left; text-indent: 0px; text-transform: none; widows: 2; word-spacing: 0px; -webkit-text-stroke-width: 0px; white-space: normal; text-decoration-thickness: initial; text-decoration-style: initial; text-decoration-color: initial; float: none; display: inline !important;&quot;&gt;&lt;font style=&quot;color: light-dark(rgb(193, 193, 193), rgb(255, 255, 255));&quot;&gt;2&lt;/font&gt;&lt;/span&gt;" style="text;whiteSpace=wrap;html=1;" vertex="1" parent="pC0P3yr2gDCVTLoXVOXI-1">
          <mxGeometry x="225" y="250" width="20" height="30" as="geometry" />
        </mxCell>
        <mxCell id="pC0P3yr2gDCVTLoXVOXI-17" value="&lt;span style=&quot;font-family: -apple-system, BlinkMacSystemFont, &amp;quot;Segoe UI&amp;quot;, Roboto, &amp;quot;Helvetica Neue&amp;quot;, Arial, &amp;quot;Noto Sans&amp;quot;, &amp;quot;Liberation Sans&amp;quot;, sans-serif, &amp;quot;Apple Color Emoji&amp;quot;, &amp;quot;Segoe UI Emoji&amp;quot;, &amp;quot;Segoe UI Symbol&amp;quot;, &amp;quot;Noto Color Emoji&amp;quot;; font-size: 16px; font-style: normal; font-variant-ligatures: normal; font-variant-caps: normal; font-weight: 400; letter-spacing: normal; orphans: 2; text-align: left; text-indent: 0px; text-transform: none; widows: 2; word-spacing: 0px; -webkit-text-stroke-width: 0px; white-space: normal; text-decoration-thickness: initial; text-decoration-style: initial; text-decoration-color: initial; float: none; display: inline !important;&quot;&gt;&lt;font style=&quot;color: light-dark(rgb(193, 193, 193), rgb(255, 255, 255));&quot;&gt;3&lt;/font&gt;&lt;/span&gt;" style="text;whiteSpace=wrap;html=1;" vertex="1" parent="pC0P3yr2gDCVTLoXVOXI-1">
          <mxGeometry x="295" y="250" width="20" height="30" as="geometry" />
        </mxCell>
        <mxCell id="pC0P3yr2gDCVTLoXVOXI-18" value="&lt;span style=&quot;font-family: -apple-system, BlinkMacSystemFont, &amp;quot;Segoe UI&amp;quot;, Roboto, &amp;quot;Helvetica Neue&amp;quot;, Arial, &amp;quot;Noto Sans&amp;quot;, &amp;quot;Liberation Sans&amp;quot;, sans-serif, &amp;quot;Apple Color Emoji&amp;quot;, &amp;quot;Segoe UI Emoji&amp;quot;, &amp;quot;Segoe UI Symbol&amp;quot;, &amp;quot;Noto Color Emoji&amp;quot;; font-size: 16px; font-style: normal; font-variant-ligatures: normal; font-variant-caps: normal; font-weight: 400; letter-spacing: normal; orphans: 2; text-align: left; text-indent: 0px; text-transform: none; widows: 2; word-spacing: 0px; -webkit-text-stroke-width: 0px; white-space: normal; text-decoration-thickness: initial; text-decoration-style: initial; text-decoration-color: initial; float: none; display: inline !important;&quot;&gt;&lt;font style=&quot;color: light-dark(rgb(193, 193, 193), rgb(255, 255, 255));&quot;&gt;4&lt;/font&gt;&lt;/span&gt;" style="text;whiteSpace=wrap;html=1;" vertex="1" parent="pC0P3yr2gDCVTLoXVOXI-1">
          <mxGeometry x="365" y="250" width="20" height="30" as="geometry" />
        </mxCell>
        <mxCell id="pC0P3yr2gDCVTLoXVOXI-19" value="&lt;span style=&quot;font-family: -apple-system, BlinkMacSystemFont, &amp;quot;Segoe UI&amp;quot;, Roboto, &amp;quot;Helvetica Neue&amp;quot;, Arial, &amp;quot;Noto Sans&amp;quot;, &amp;quot;Liberation Sans&amp;quot;, sans-serif, &amp;quot;Apple Color Emoji&amp;quot;, &amp;quot;Segoe UI Emoji&amp;quot;, &amp;quot;Segoe UI Symbol&amp;quot;, &amp;quot;Noto Color Emoji&amp;quot;; font-size: 16px; font-style: normal; font-variant-ligatures: normal; font-variant-caps: normal; font-weight: 400; letter-spacing: normal; orphans: 2; text-align: left; text-indent: 0px; text-transform: none; widows: 2; word-spacing: 0px; -webkit-text-stroke-width: 0px; white-space: normal; text-decoration-thickness: initial; text-decoration-style: initial; text-decoration-color: initial; float: none; display: inline !important;&quot;&gt;&lt;font style=&quot;color: light-dark(rgb(193, 193, 193), rgb(255, 255, 255));&quot;&gt;5&lt;/font&gt;&lt;/span&gt;" style="text;whiteSpace=wrap;html=1;" vertex="1" parent="pC0P3yr2gDCVTLoXVOXI-1">
          <mxGeometry x="435" y="250" width="20" height="30" as="geometry" />
        </mxCell>
        <mxCell id="pC0P3yr2gDCVTLoXVOXI-20" value="&lt;span style=&quot;font-family: -apple-system, BlinkMacSystemFont, &amp;quot;Segoe UI&amp;quot;, Roboto, &amp;quot;Helvetica Neue&amp;quot;, Arial, &amp;quot;Noto Sans&amp;quot;, &amp;quot;Liberation Sans&amp;quot;, sans-serif, &amp;quot;Apple Color Emoji&amp;quot;, &amp;quot;Segoe UI Emoji&amp;quot;, &amp;quot;Segoe UI Symbol&amp;quot;, &amp;quot;Noto Color Emoji&amp;quot;; font-size: 16px; font-style: normal; font-variant-ligatures: normal; font-variant-caps: normal; font-weight: 400; letter-spacing: normal; orphans: 2; text-align: left; text-indent: 0px; text-transform: none; widows: 2; word-spacing: 0px; -webkit-text-stroke-width: 0px; white-space: normal; text-decoration-thickness: initial; text-decoration-style: initial; text-decoration-color: initial; float: none; display: inline !important;&quot;&gt;&lt;font style=&quot;color: light-dark(rgb(193, 193, 193), rgb(255, 255, 255));&quot;&gt;6&lt;/font&gt;&lt;/span&gt;" style="text;whiteSpace=wrap;html=1;" vertex="1" parent="pC0P3yr2gDCVTLoXVOXI-1">
          <mxGeometry x="505" y="250" width="20" height="30" as="geometry" />
        </mxCell>
        <mxCell id="pC0P3yr2gDCVTLoXVOXI-21" value="&lt;span style=&quot;font-family: -apple-system, BlinkMacSystemFont, &amp;quot;Segoe UI&amp;quot;, Roboto, &amp;quot;Helvetica Neue&amp;quot;, Arial, &amp;quot;Noto Sans&amp;quot;, &amp;quot;Liberation Sans&amp;quot;, sans-serif, &amp;quot;Apple Color Emoji&amp;quot;, &amp;quot;Segoe UI Emoji&amp;quot;, &amp;quot;Segoe UI Symbol&amp;quot;, &amp;quot;Noto Color Emoji&amp;quot;; font-size: 16px; font-style: normal; font-variant-ligatures: normal; font-variant-caps: normal; font-weight: 400; letter-spacing: normal; orphans: 2; text-align: left; text-indent: 0px; text-transform: none; widows: 2; word-spacing: 0px; -webkit-text-stroke-width: 0px; white-space: normal; text-decoration-thickness: initial; text-decoration-style: initial; text-decoration-color: initial; float: none; display: inline !important;&quot;&gt;&lt;font style=&quot;color: light-dark(rgb(193, 193, 193), rgb(255, 255, 255));&quot;&gt;7&lt;/font&gt;&lt;/span&gt;" style="text;whiteSpace=wrap;html=1;" vertex="1" parent="pC0P3yr2gDCVTLoXVOXI-1">
          <mxGeometry x="570" y="250" width="20" height="30" as="geometry" />
        </mxCell>
        <mxCell id="pC0P3yr2gDCVTLoXVOXI-22" value="&lt;span style=&quot;font-family: -apple-system, BlinkMacSystemFont, &amp;quot;Segoe UI&amp;quot;, Roboto, &amp;quot;Helvetica Neue&amp;quot;, Arial, &amp;quot;Noto Sans&amp;quot;, &amp;quot;Liberation Sans&amp;quot;, sans-serif, &amp;quot;Apple Color Emoji&amp;quot;, &amp;quot;Segoe UI Emoji&amp;quot;, &amp;quot;Segoe UI Symbol&amp;quot;, &amp;quot;Noto Color Emoji&amp;quot;; font-size: 16px; font-style: normal; font-variant-ligatures: normal; font-variant-caps: normal; font-weight: 400; letter-spacing: normal; orphans: 2; text-align: left; text-indent: 0px; text-transform: none; widows: 2; word-spacing: 0px; -webkit-text-stroke-width: 0px; white-space: normal; text-decoration-thickness: initial; text-decoration-style: initial; text-decoration-color: initial; float: none; display: inline !important;&quot;&gt;&lt;font style=&quot;color: light-dark(rgb(193, 193, 193), rgb(255, 255, 255));&quot;&gt;8&lt;/font&gt;&lt;/span&gt;" style="text;whiteSpace=wrap;html=1;" vertex="1" parent="pC0P3yr2gDCVTLoXVOXI-1">
          <mxGeometry x="640" y="250" width="20" height="30" as="geometry" />
        </mxCell>
        <mxCell id="pC0P3yr2gDCVTLoXVOXI-23" value="&lt;span style=&quot;font-family: -apple-system, BlinkMacSystemFont, &amp;quot;Segoe UI&amp;quot;, Roboto, &amp;quot;Helvetica Neue&amp;quot;, Arial, &amp;quot;Noto Sans&amp;quot;, &amp;quot;Liberation Sans&amp;quot;, sans-serif, &amp;quot;Apple Color Emoji&amp;quot;, &amp;quot;Segoe UI Emoji&amp;quot;, &amp;quot;Segoe UI Symbol&amp;quot;, &amp;quot;Noto Color Emoji&amp;quot;; font-size: 16px; font-style: normal; font-variant-ligatures: normal; font-variant-caps: normal; font-weight: 400; letter-spacing: normal; orphans: 2; text-align: left; text-indent: 0px; text-transform: none; widows: 2; word-spacing: 0px; -webkit-text-stroke-width: 0px; white-space: normal; text-decoration-thickness: initial; text-decoration-style: initial; text-decoration-color: initial; float: none; display: inline !important;&quot;&gt;&lt;font style=&quot;color: light-dark(rgb(193, 193, 193), rgb(255, 255, 255));&quot;&gt;9&lt;/font&gt;&lt;/span&gt;" style="text;whiteSpace=wrap;html=1;" vertex="1" parent="pC0P3yr2gDCVTLoXVOXI-1">
          <mxGeometry x="710" y="250" width="20" height="30" as="geometry" />
        </mxCell>
      </root>
    </mxGraphModel>
  </diagram>
</mxfile>
